<?xml version="1.0" encoding="utf-8"?>
<!-- Generator: Adobe Illustrator 25.0.1, SVG Export Plug-In . SVG Version: 6.00 Build 0)  -->
<svg version="1.1" id="adam-retter" xmlns="http://www.w3.org/2000/svg" xmlns:xlink="http://www.w3.org/1999/xlink" x="0px"
	 y="0px" viewBox="0 0 1384 144" style="enable-background:new 0 0 1384 144;" xml:space="preserve">
<style type="text/css">
	.st0{fill:none;stroke:#000000;stroke-width:4;stroke-linecap:round;stroke-linejoin:round;stroke-miterlimit:10;}
</style>
<g>
	<path id="a_1_" class="st0" d="M11.2,133.5V32.2l21.7-21.7H98l21.7,21.7v101.3H83.6V90.1H47.4v43.4H11.2z M83.6,53.9v-7.2H47.4v7.2
		H83.6z"/>
	<path id="d" class="st0" d="M140.2,133.5v-123H227l21.7,21.7v79.6L227,133.5H140.2z M212.5,97.3V46.7h-36.2v50.7H212.5z"/>
	<path id="a" class="st0" d="M269.1,133.5V32.2l21.7-21.7h65.1l21.7,21.7v101.3h-36.2V90.1h-36.2v43.4H269.1z M341.4,53.9v-7.2
		h-36.2v7.2H341.4z"/>
	<path id="m" class="st0" d="M398,133.5V32.2l21.7-21.7h36.2l7.2,7.2v0l3.6,3.6l10.9-10.9h36.2l21.7,21.7v101.3h-36.2V46.7h-14.5
		v86.8h-36.2V46.7h-14.5v86.8H398z"/>
	<path id="r_1_" class="st0" d="M619.6,133.5v-123h86.8l21.7,21.7v28.9l-7.2,7.2h0l-3.6,3.6l10.9,10.9v50.6H692V90.1h-36.2v43.4
		H619.6z M692,53.9v-7.2h-36.2v7.2H692z"/>
	<path id="e_1_" class="st0" d="M748.6,133.5v-123h108.5v36.2h-72.4v7.2h43.4v36.2h-43.4v7.2h72.4v36.2H748.6z"/>
	<path id="t_1_" class="st0" d="M913.6,133.5V46.7h-36.2V10.5H986v36.2h-36.2v86.8H913.6z"/>
	<path id="t" class="st0" d="M1042.6,133.5V46.7h-36.2V10.5h108.5v36.2h-36.2v86.8H1042.6z"/>
	<path id="e" class="st0" d="M1135.3,133.5v-123h108.5v36.2h-72.4v7.2h43.4v36.2h-43.4v7.2h72.4v36.2H1135.3z"/>
	<path id="r" class="st0" d="M1264.2,133.5v-123h86.8l21.7,21.7v28.9l-7.2,7.2h0l-3.6,3.6l10.9,10.9v50.6h-36.2V90.1h-36.2v43.4
		H1264.2z M1336.6,53.9v-7.2h-36.2v7.2H1336.6z"/>
</g>
</svg>
