<?xml version="1.0" encoding="utf-8"?>
<!-- Generator: Adobe Illustrator 25.1.0, SVG Export Plug-In . SVG Version: 6.00 Build 0)  -->
<svg version="1.1" id="Layer_1" xmlns="http://www.w3.org/2000/svg" xmlns:xlink="http://www.w3.org/1999/xlink" x="0px" y="0px"
	 viewBox="0 0 1042 189" style="enable-background:new 0 0 1042 189;" xml:space="preserve">
<style type="text/css">
	.st0{fill:none;stroke:#02DC1F;stroke-width:2.2003;stroke-miterlimit:10;}
</style>
<g>
	<g>
		
			<image style="overflow:visible;" width="4158" height="653" xlink:href="62C89A57CD0AB872.png"  transform="matrix(0.24 0 0 0.24 22.04 16.12)">
		</image>
	</g>
	<g>
		
			<image style="overflow:visible;" width="4158" height="653" xlink:href="62C89A57CD0AB876.png"  transform="matrix(0.24 0 0 0.24 22.04 16.12)">
		</image>
	</g>
	<g>
		
			<image style="overflow:visible;" width="4158" height="653" xlink:href="62C89A57CD0AB871.png"  transform="matrix(0.24 0 0 0.24 22.04 16.12)">
		</image>
	</g>
	<g>
		<path class="st0" d="M59.4,135.6V67.9l14.5-14.5h43.5l14.5,14.5v67.6h-24.2v-29H83.5v29H59.4z M107.7,82.4v-4.8H83.5v4.8H107.7z"
			/>
		<path class="st0" d="M146.9,135.6V53.4h58l14.5,14.5v53.2l-14.5,14.5H146.9z M195.2,111.4V77.6H171v33.8H195.2z"/>
		<path class="st0" d="M234.4,135.6V67.9l14.5-14.5h43.5l14.5,14.5v67.6h-24.2v-29h-24.2v29H234.4z M282.7,82.4v-4.8h-24.2v4.8
			H282.7z"/>
		<path class="st0" d="M321.9,135.6V67.9l14.5-14.5h24.2l4.8,4.8v0l2.4,2.4l7.3-7.3h24.2l14.5,14.5v67.6h-24.1v-58h-9.7v58h-24.2
			v-58H346v58H321.9z"/>
		<path class="st0" d="M472.7,135.6V53.4h58l14.5,14.5v19.3l-4.8,4.8h0l-2.4,2.4l7.3,7.3v33.8H521v-29h-24.2v29H472.7z M521,82.4
			v-4.8h-24.2v4.8H521z"/>
		<path class="st0" d="M560.2,135.6V53.4h72.5v24.2h-48.3v4.8h29v24.2h-29v4.8h48.3v24.1H560.2z"/>
		<path class="st0" d="M671.8,135.6v-58h-24.1V53.4h72.5v24.2H696v58H671.8z"/>
		<path class="st0" d="M759.3,135.6v-58h-24.1V53.4h72.5v24.2h-24.2v58H759.3z"/>
		<path class="st0" d="M822.7,135.6V53.4h72.5v24.2h-48.3v4.8h29v24.2h-29v4.8h48.3v24.1H822.7z"/>
		<path class="st0" d="M910.2,135.6V53.4h58l14.5,14.5v19.3l-4.8,4.8h0l-2.4,2.4l7.3,7.3v33.8h-24.2v-29h-24.2v29H910.2z
			 M958.5,82.4v-4.8h-24.2v4.8H958.5z"/>
	</g>
</g>
</svg>
