<?xml version="1.0" encoding="utf-8"?>
<!-- Generator: Adobe Illustrator 25.1.0, SVG Export Plug-In . SVG Version: 6.00 Build 0)  -->
<svg version="1.1"
	 id="appel" inkscape:version="0.91 r13725" sodipodi:docname="Apple_1998.svg" xmlns:cc="http://creativecommons.org/ns#" xmlns:dc="http://purl.org/dc/elements/1.1/" xmlns:inkscape="http://www.inkscape.org/namespaces/inkscape" xmlns:rdf="http://www.w3.org/1999/02/22-rdf-syntax-ns#" xmlns:sodipodi="http://sodipodi.sourceforge.net/DTD/sodipodi-0.dtd" xmlns:svg="http://www.w3.org/2000/svg"
	 xmlns="http://www.w3.org/2000/svg" xmlns:xlink="http://www.w3.org/1999/xlink" x="0px" y="0px" viewBox="0 0 1200 1200"
	 style="enable-background:new 0 0 1200 1200;" xml:space="preserve">
<style type="text/css">
	.st0{fill:#FFFFFF;}
</style>
<sodipodi:namedview  bordercolor="#666666" borderopacity="1" gridtolerance="10" guidetolerance="10" id="namedview6" inkscape:current-layer="svg2" inkscape:cx="-1066.5045" inkscape:cy="964.94669" inkscape:pageopacity="0" inkscape:pageshadow="2" inkscape:window-height="705" inkscape:window-maximized="1" inkscape:window-width="1366" inkscape:window-x="-8" inkscape:window-y="-8" inkscape:zoom="0.1767767" objecttolerance="10" pagecolor="#ffffff" showgrid="false">
	</sodipodi:namedview>
<path id="path4" inkscape:connector-curvature="0" class="st0" d="M1083.3,931.6c-18,41.5-39.2,79.7-63.8,114.8
	c-33.6,47.9-61,81-82.2,99.4c-32.8,30.2-68,45.7-105.7,46.5c-27,0-59.7-7.7-97.6-23.3c-38.1-15.5-73.1-23.2-105.1-23.2
	c-33.6,0-69.6,7.7-108.1,23.2c-38.6,15.6-69.6,23.7-93.4,24.5c-36.1,1.5-72.1-14.4-108.1-47.8c-22.9-20-51.6-54.3-86-102.9
	c-36.9-51.9-67.2-112-90.9-180.6c-25.3-74.1-38.1-145.8-38.1-215.3c0-79.6,17.2-148.2,51.6-205.7C183,395,219,358.6,264,331.8
	c45.1-26.7,93.7-40.4,146.2-41.3c28.7,0,66.3,8.9,113.1,26.3c46.6,17.5,76.6,26.4,89.7,26.4c9.8,0,43.1-10.4,99.4-31.1
	c53.3-19.2,98.3-27.1,135.2-24c99.9,8.1,174.9,47.4,224.8,118.4c-89.3,54.1-133.5,129.9-132.6,227.2c0.8,75.8,28.3,138.8,82.3,188.8
	c24.5,23.2,51.8,41.2,82.2,53.9C1097.7,895.7,1090.7,914,1083.3,931.6L1083.3,931.6z M854.3,30.2c0,59.4-21.7,114.8-64.9,166.1
	c-52.2,61-115.3,96.2-183.7,90.7c-0.9-7.1-1.4-14.6-1.4-22.5c0-57,24.8-118,68.9-167.9c22-25.3,50-46.3,83.9-63
	C791,17.1,823,8,853.1,6.4C853.9,14.3,854.3,22.3,854.3,30.2L854.3,30.2z"/>
</svg>
