<?xml version="1.0" encoding="utf-8"?>
<!-- Generator: Adobe Illustrator 25.1.0, SVG Export Plug-In . SVG Version: 6.00 Build 0)  -->
<svg version="1.1"
	 id="appel" inkscape:version="0.91 r13725" sodipodi:docname="Apple_1998.svg" xmlns:cc="http://creativecommons.org/ns#" xmlns:dc="http://purl.org/dc/elements/1.1/" xmlns:inkscape="http://www.inkscape.org/namespaces/inkscape" xmlns:rdf="http://www.w3.org/1999/02/22-rdf-syntax-ns#" xmlns:sodipodi="http://sodipodi.sourceforge.net/DTD/sodipodi-0.dtd" xmlns:svg="http://www.w3.org/2000/svg"
	 xmlns="http://www.w3.org/2000/svg" xmlns:xlink="http://www.w3.org/1999/xlink" x="0px" y="0px" viewBox="0 0 4990.5 752.2"
	 style="enable-background:new 0 0 4990.5 752.2;" xml:space="preserve">
<style type="text/css">
	.st0{fill:#5190CC;}
</style>
<sodipodi:namedview  bordercolor="#666666" borderopacity="1" gridtolerance="10" guidetolerance="10" id="namedview6" inkscape:current-layer="svg2" inkscape:cx="-1066.5045" inkscape:cy="964.94669" inkscape:pageopacity="0" inkscape:pageshadow="2" inkscape:window-height="705" inkscape:window-maximized="1" inkscape:window-width="1366" inkscape:window-x="-8" inkscape:window-y="-8" inkscape:zoom="0.1767767" objecttolerance="10" pagecolor="#ffffff" showgrid="false">
	</sodipodi:namedview>
<g>
	<g>
		<path class="st0" d="M1701.4,599.7c-3.4-6.5-10.8-5.3-17-5.3c-43.9-0.3-83.3-16.7-124.4-33.8c6.3-13.3,17.4-14.6,25.6-20
			c85.8-56.3,113.7-138.3,99-235.3c-13.4-88.6-65.4-147.2-152.1-174c-54.2-16.7-109.3-17.8-163.9-4.5
			c-88.6,21.5-146.5,76.9-165.7,166.4c-19.6,91.5-0.2,175.6,78.1,232.2c71.8,52,147.7,98.7,230.9,133.3
			c66.2,27.5,123.2,37.3,169.1-31.1c2.7-4,7.8-6.3,11.2-10C1697,612.5,1706.3,609,1701.4,599.7z M1444.4,462.5
			c-68.4,0.8-114.8-46.4-114.3-116.3c0.5-68.3,45.6-113.6,113-113.5c66.8,0.1,112.6,46.5,112.9,114.3
			C1556.5,414.6,1510.9,461.7,1444.4,462.5z"/>
		<path class="st0" d="M2181.7,123.9c-35.5-1-44.1,10-43,43.9c2.2,67.7,3,135.9-1.8,203.4c-4.1,58.6-40.2,91.4-90.1,93.5
			c-54.3,2.2-88.1-26.5-99.5-87.3c-9.6-51-3.5-102.8-4-154.2c-0.9-103.6-0.2-102.8-103.9-99c-22.7,0.8-26.9,9.4-26.7,29.3
			c1,79.2-0.9,158.4,1.3,237.5c2.2,76.3,41.2,131.1,110.5,161.6c74.7,32.8,152,33.2,227.5,2.6c73.2-29.7,113.6-85.1,116.5-164.9
			c1.4-37.6,0.2-75.4,0.2-113.1c0.3,0,0.5,0,0.8,0c0-21.4,0-42.7,0-64.1C2269.5,124.6,2269.4,126.4,2181.7,123.9z"/>
		<path class="st0" d="M4902.8,313.2c-17.2-93.3-78.6-160.9-166.4-178.8c-85.8-17.5-173-7.1-259.6-9.4c-20.2-0.6-17.3,13.8-17.3,26
			c-0.1,65.3-0.1,130.6-0.1,195.9c0,65.3,0.6,130.6-0.4,195.9c-0.3,20.2,4.1,29.1,26.8,28.6c75.4-1.5,150.9,0,226.4-1.5
			c35.4-0.7,69.3-8.9,99.9-29C4884.3,493.5,4919.8,405.3,4902.8,313.2z M4762.9,411.6c-11.7,50-56.9,59.9-100,66.3
			c-73.6,10.9-73.8,10.1-73.8-62.7c0-22.6,0-45.2,0-67.9c0-36.4,0.5-72.9-0.2-109.3c-0.3-15.6,4.9-21.6,21.4-23
			C4757.1,203.2,4790.4,293.4,4762.9,411.6z"/>
		<path class="st0" d="M4308.7,464c-47.8,1.4-95.7-0.6-143.5,0.9c-23.1,0.7-30.6-6.6-30.1-29.9c1.3-71.7,0.5-143.3,0.5-215
			c0-97.8,0-96.8-99.5-95.9c-26,0.2-31.3,9.3-30.8,32.8c1.3,62.8,0.5,125.7,0.5,188.6c0,65.4,0.9,130.8-0.5,196.2
			c-0.5,23.1,6.2,30.2,29.7,29.8c75.5-1.4,151.1-0.5,226.7-0.5c78.2,0,77.5,0,75.3-78.5C4336.2,471.6,4330.6,463.4,4308.7,464z"/>
		<path class="st0" d="M3630.5,118.3c-147.2-0.3-245,90-245.8,226.7c-0.8,139.2,97.2,232.4,244.5,232.5
			c145,0.1,245.7-92.5,247.3-227.4C3878,212.7,3778.1,118.6,3630.5,118.3z M3630.8,462.4c-67.3,1-116-48.5-114.8-116.6
			c1.1-66.7,49-114,114.5-113.2c67.8,0.9,111.5,45.9,111.5,114.7C3741.8,417.1,3699.1,461.4,3630.8,462.4z"/>
		<path class="st0" d="M3124.7,214.9c37.6,2.1,75.6-1.1,113.2,1c26.9,1.5,41.2-5.1,36.4-34.8c-1.2-7.3-1-15.2,0-22.6
			c3.5-25.6-5.6-34.9-32.8-34.4c-81.8,1.7-163.6,1.7-245.4,0c-27.6-0.6-33.6,9.2-33,34.6c1.6,62.8,0.5,125.6,0.5,188.5
			c0,41.5,0,82.9,0,124.4c0,101.9,0,100.9,102.7,100c26.7-0.2,31.4-10.3,30.6-33.2c-1.3-38.9,0.9-78-0.8-116.8
			c-1.1-24.1,5.7-33.7,31.3-32.4c38.9,2,78-0.7,117,1c22.8,1,32.8-5.9,29.9-29.4c-1.4-11.1-1.2-22.7,0-33.9
			c2.4-22.2-8.1-27.9-28.6-27.3c-40.2,1.2-80.6-1.4-120.8,0.8c-37.2,2.1-28.1-23.4-28-42.7C3097.1,238.6,3087.3,212.8,3124.7,214.9z
			"/>
	</g>
	<path class="st0" d="M2723.5,229.1c-14.9-34.3-19.2-82.3-48.8-98.5c-29.2-16.1-73.5-3.7-111.1-6.2c-22.8-1.5-33.1,7.7-41.5,27.9
		c-35.2,84.6-72.1,168.5-108.3,252.7c-23.2,53.9-46.2,107.9-71,166c26.5,0,47.6,0,68.7,0c64.6,0,65.9,0.5,88.7-61.4
		c8.4-22.8,19.6-31.3,43.5-29.6c30.1,2,60.4,0.5,90.6,0.5c65.4,0,65.1,0.1,90.1,60c4.9,11.7,4.1,29.9,23.2,30.2
		c39.3,0.6,78.6,0.2,122.4,0.2C2819.6,452.6,2772,340.7,2723.5,229.1z M2650.5,403.4c-103.2,14.3-110.4,6-73-88.1
		c8.7-21.8,17.5-43.5,30-74.6c21,53.5,37.9,97.4,55.6,141.1C2668.7,395.6,2667,401.1,2650.5,403.4z"/>
	<path class="st0" d="M1116.2,543.6c-45.3-106.3-90.4-212.7-136.8-318.6c-14.5-33.1-18.3-79.7-47.7-95.1
		c-28.9-15.1-71.2-4.5-107.7-5.2c-2.5,0-5.1,0.3-7.6,0c-17.7-2.4-27.1,5.7-34.1,22c-56.6,132.9-113.7,265.6-171.4,398
		c-8.3,19-7.5,27.4,16.1,26.4c27.7-1.2,55.5-1.2,83.1,0.1c18.1,0.8,29.8-5.3,32.7-23c10.1-60.9,47.6-78.1,104.3-68.2
		c14.7,2.5,30.2,0.4,45.3,0.4c65.4,0,65.3,0,89.8,60.5c5.8,14.4,7.4,31.7,31.1,30.5c36.2-1.8,72.6-0.5,108.2-0.5
		C1125.5,558.9,1119.5,551.4,1116.2,543.6z M903.3,403c-1.2-0.1-2.5,0-3.8,0.1c-102,7-102.4,6.9-64.5-87
		c9.2-22.7,14.3-47.5,31.6-70.5C885,292,902.4,336,919.8,380C926.2,396.2,920.6,403.8,903.3,403z"/>
	<g>
		<path class="st0" d="M228.8,292.4c-0.6-55.6-37.6-89.4-98.7-90.2c-61.5-0.8-101.1,35.2-101.2,92c-0.1,57.6,36.7,90.5,101.1,90.3
			C194.2,384.4,229.5,351.5,228.8,292.4z M128.5,337.6c-27.9-1-35-22.2-34.6-44.3c0.4-22.2,8.9-44,36.2-43
			c26.7,1,33.1,22.3,35.2,46.1C162.1,317.4,157,338.6,128.5,337.6z"/>
		<path class="st0" d="M293.7,360.7c-75.5,0.1-126.8,47-126.5,115.5c0.3,69.1,49.9,112.6,127.9,112.1
			c79.4-0.5,123.6-42.1,122.7-115.5C417,403.9,369.1,360.6,293.7,360.7z M338.6,476.9c-1.3,28.3-10.9,52.6-44.4,54.7
			c-27.7,1.7-45.5-22-44.9-63.4c1.8-22,9-46.7,43.6-47.9C321,419.2,340.1,442.7,338.6,476.9z"/>
		<path class="st0" d="M289.5,224.8c46.5-0.2,73.6-24.3,74.2-66.1c0.6-42.2-30-70.5-75.5-69.8c-44.1,0.7-75,28.1-75.6,67.1
			C212.1,197.5,242.8,225,289.5,224.8z M288.8,126.2c20.2,0.5,27.5,15,26.9,32.9c-0.6,16.2-8.3,30.3-26.3,30
			c-19.9-0.3-27-14.6-26.2-33.3C263.9,139.2,269.9,125.8,288.8,126.2z"/>
	</g>
</g>
</svg>
