<?xml version="1.0" encoding="utf-8"?>
<!-- Generator: Adobe Illustrator 25.1.0, SVG Export Plug-In . SVG Version: 6.00 Build 0)  -->
<svg version="1.1"
	 id="appel" inkscape:version="0.91 r13725" sodipodi:docname="Apple_1998.svg" xmlns:cc="http://creativecommons.org/ns#" xmlns:dc="http://purl.org/dc/elements/1.1/" xmlns:inkscape="http://www.inkscape.org/namespaces/inkscape" xmlns:rdf="http://www.w3.org/1999/02/22-rdf-syntax-ns#" xmlns:sodipodi="http://sodipodi.sourceforge.net/DTD/sodipodi-0.dtd" xmlns:svg="http://www.w3.org/2000/svg"
	 xmlns="http://www.w3.org/2000/svg" xmlns:xlink="http://www.w3.org/1999/xlink" x="0px" y="0px" viewBox="0 0 1200 1200"
	 style="enable-background:new 0 0 1200 1200;" xml:space="preserve">
<style type="text/css">
	.st0{fill:#5190CC;}
</style>
<sodipodi:namedview  bordercolor="#666666" borderopacity="1" gridtolerance="10" guidetolerance="10" id="namedview6" inkscape:current-layer="svg2" inkscape:cx="-1066.5045" inkscape:cy="964.94669" inkscape:pageopacity="0" inkscape:pageshadow="2" inkscape:window-height="705" inkscape:window-maximized="1" inkscape:window-width="1366" inkscape:window-x="-8" inkscape:window-y="-8" inkscape:zoom="0.1767767" objecttolerance="10" pagecolor="#ffffff" showgrid="false">
	</sodipodi:namedview>
<g>
	<g>
		<path class="st0" d="M603.6,492c-1.2-130.7-88.1-209.8-231.7-211.8c-144.4-2.1-237.5,82.7-237.5,216
			c-0.4,135.3,86.1,212.7,237.1,212.2C522.5,707.9,605.3,631,603.6,492z M368.2,598.3c-65.4-2.5-82.3-52.1-81.1-103.8
			c0.8-52.1,21.1-103.4,84.8-100.9c62.9,2.5,77.8,52.5,82.7,108.4C446.8,550.7,435.2,600.4,368.2,598.3z"/>
		<path class="st0" d="M756.3,652.5C578.8,652.9,458.4,763,459.2,923.9c0.8,162.2,117.1,264.4,300.4,263.1
			c186.6-1.2,290.4-98.9,288.4-271.4C1045.5,753.9,933.4,652.1,756.3,652.5z M861.4,925.5c-2.9,66.6-25.7,123.7-104.3,128.7
			c-65,4.1-106.7-51.7-105.5-148.9c4.1-51.7,21.1-109.6,102.6-112.5C820.4,789.8,865.1,844.9,861.4,925.5z"/>
		<path class="st0" d="M746.4,333.1C855.6,332.7,919.3,276,920.5,178c1.2-99.3-70.3-165.5-177.5-163.8
			c-103.4,1.7-176.2,66.2-177.5,157.6C564.3,269.4,636.7,333.9,746.4,333.1z M744.7,101.8c47.6,1.2,64.5,35.2,63.3,77.4
			c-1.2,38.1-19.4,71.2-61.6,70.3c-46.8-0.8-63.3-34.3-61.6-78.2C686,132.4,700,100.6,744.7,101.8z"/>
	</g>
</g>
</svg>
