<?xml version="1.0" encoding="utf-8"?>
<!-- Generator: Adobe Illustrator 25.1.0, SVG Export Plug-In . SVG Version: 6.00 Build 0)  -->
<svg version="1.1" id="Layer_1" focusable="false" xmlns="http://www.w3.org/2000/svg" xmlns:xlink="http://www.w3.org/1999/xlink"
	 x="0px" y="0px" viewBox="0 0 448 512" style="enable-background:new 0 0 448 512;" xml:space="preserve">
<style type="text/css">
	.st0{fill:#B10580;}
</style>
<path class="st0" d="M290.7,257.5l100.1-100.1c12.3-12.3,12.3-32.2,0-44.5l-22.2-22.2c-12.3-12.3-32.2-12.3-44.5,0L224,190.8
	L123.9,90.7c-12.3-12.3-32.2-12.3-44.5,0l-22.2,22.2c-12.3,12.3-12.3,32.2,0,44.5l100.1,100.1L57.2,357.6
	c-12.3,12.3-12.3,32.2,0,44.5l22.2,22.2c12.3,12.3,32.2,12.3,44.5,0L224,324.2l100.1,100.1c12.3,12.3,32.2,12.3,44.5,0l22.2-22.2
	c12.3-12.3,12.3-32.2,0-44.5L290.7,257.5z"/>
</svg>
