<?xml version="1.0" encoding="utf-8"?>
<!-- Generator: Adobe Illustrator 24.3.0, SVG Export Plug-In . SVG Version: 6.00 Build 0)  -->
<svg version="1.1"
	 id="existdb-logo-white" xmlns:cc="http://creativecommons.org/ns#" xmlns:dc="http://purl.org/dc/elements/1.1/" xmlns:inkscape="http://www.inkscape.org/namespaces/inkscape" xmlns:rdf="http://www.w3.org/1999/02/22-rdf-syntax-ns#" xmlns:sodipodi="http://sodipodi.sourceforge.net/DTD/sodipodi-0.dtd" xmlns:svg="http://www.w3.org/2000/svg"
	 xmlns="http://www.w3.org/2000/svg" xmlns:xlink="http://www.w3.org/1999/xlink" x="0px" y="0px" viewBox="0 0 300 140"
	 style="enable-background:new 0 0 300 140;" xml:space="preserve">
<style type="text/css">
	.st0{fill:#737577;}
	.st1{fill:#858789;}
	.st2{fill:#FFFFFF;}
	.st3{fill:#0088CC;}
</style>
<g id="layer2" inkscape:groupmode="layer" inkscape:label="text">
	<g id="exist-logo" transform="matrix(0.47807439,0,0,0.47807439,13.687647,44.698669)">
		<path id="path3823" inkscape:connector-curvature="0" class="st0" d="M169.4,33.8c0,10.3-8.4,18.6-18.6,18.6
			c-10.3,0-18.6-8.4-18.6-18.6c0-10.3,8.4-18.6,18.6-18.6C161.1,15.2,169.4,23.5,169.4,33.8"/>
		<path id="path3825" inkscape:connector-curvature="0" class="st1" d="M196.4,28.3c0,5-4.1,9.1-9.1,9.1c-5,0-9.1-4.1-9.1-9.1
			s4.1-9.1,9.1-9.1C192.3,19.2,196.4,23.3,196.4,28.3"/>
		<path id="path3827" inkscape:connector-curvature="0" class="st1" d="M191.4,61.1c0,6.4-5.2,11.6-11.6,11.6
			c-6.4,0-11.6-5.2-11.6-11.6c0-6.4,5.2-11.6,11.6-11.6C186.2,49.5,191.4,54.7,191.4,61.1"/>
		<path id="path3829" inkscape:connector-curvature="0" class="st1" d="M126.4,114c0,8.1-6.5,14.6-14.6,14.6
			c-8.1,0-14.6-6.5-14.6-14.6c0-8.1,6.5-14.6,14.6-14.6C119.8,99.4,126.4,105.9,126.4,114"/>
		<path id="path3831" inkscape:connector-curvature="0" class="st1" d="M101.4,13.6c0-4.2,3.4-7.6,7.6-7.6c4.2,0,7.6,3.4,7.6,7.6
			s-3.4,7.6-7.6,7.6C104.7,21.1,101.4,17.7,101.4,13.6"/>
		<path id="path3833" inkscape:connector-curvature="0" class="st1" d="M124.4,79c0,2.8-2.3,5-5,5s-5-2.3-5-5c0-2.8,2.3-5,5-5
			S124.4,76.2,124.4,79"/>
		<path id="path3835" inkscape:connector-curvature="0" class="st1" d="M236.4,127c0,3.9-3.2,7.1-7.1,7.1s-7.1-3.2-7.1-7.1
			c0-3.9,3.2-7.1,7.1-7.1S236.4,123.1,236.4,127"/>
		<path id="path3837" inkscape:connector-curvature="0" class="st2" d="M26.5,52.7h52.2c-1.9-7.2-11.3-17.8-27.3-19.1
			C35.7,34.4,28,45.3,26.5,52.7 M6.4,61.5c0.2-24.4,19.7-44.9,45-44.9c24,0,43,17.4,44.4,41.7v0.9c0,0.4,0,1.3-0.2,1.6
			c-0.6,4.3-4.4,7.2-9.6,7.2H27.5c0.9,4.1,3,8.8,6.3,11.9c3.9,4.3,11.2,7.6,17.7,8.1c6.6,0.5,14.6-1.1,19.2-4.5
			c3.9-4,11.4-3.4,13.8-0.5c2.4,2.5,4.2,7.9,0,11.7c-9,8.1-19.9,11.9-33,11.9C26.1,106.4,6.6,86,6.4,61.6"/>
		<path id="path3839" inkscape:connector-curvature="0" class="st2" d="M260.4,26.6v70.1c0,5.4-4.2,9.7-10,9.7c-5.5,0-10-4.3-10-9.7
			V26.6c0-5.8,4.4-9.9,10-9.9C256.1,16.7,260.4,20.8,260.4,26.6"/>
		<path id="path3841" inkscape:connector-curvature="0" class="st2" d="M267.4,81c3.3-4.3,9.8-4.8,13.8-1.4
			c4.8,3.9,13.1,8.1,20.3,7.9c5,0,9.6-1.6,12.5-3.4c2.6-2.2,3.3-4,3.3-5.4c0-0.9-0.2-1.3-0.6-1.8c-0.2-0.5-0.9-1.3-2.4-2.2
			c-2.6-1.8-8.1-3.8-14.8-5h-0.2c-5.7-1.1-11.2-2.5-16-4.7c-5-2.3-9.4-5.6-12.7-10.4c-2-3.2-3.1-7.2-3.1-11.3
			c0-8.3,4.8-15.3,10.9-19.8c6.5-4.3,14.2-6.7,22.7-6.7c12.7,0,21.8,5.9,27.7,9.9c4.4,2.9,5.7,8.8,3,13.3c-3,4.3-9,5.6-13.6,2.5
			c-5.9-3.8-11.1-6.7-17-6.7c-4.6,0-8.7,1.4-11.1,3.2c-2.4,1.6-3,3.2-3,4.1c0,0.7,0,0.9,0.4,1.4c0.2,0.4,0.7,1.1,2,1.8
			c2.4,1.6,7.2,3.2,13.5,4.3l0.2,0.2h0.2c6.1,1.1,11.8,2.7,17.1,5.2c5,2.2,10,5.6,13.1,10.6c2.2,3.6,3.5,7.7,3.5,11.9
			c0,8.8-5,16.2-11.6,20.8c-6.6,4.5-14.9,7.2-24,7.2c-14.4-0.2-25.4-6.7-32.8-12.4C264.6,91,264.1,84.9,267.4,81"/>
		<path id="path3843" inkscape:connector-curvature="0" class="st2" d="M386.4,26.4c0,5.4-4.8,9.9-10.3,9.9h-4.6v50.1
			c5.7,0,10.1,4.5,10.1,10.1c0,5.6-4.4,9.9-10.1,9.9c-11.2,0-20.5-9-20.5-20V36.2h-5.4c-5.7,0-10.1-4.5-10.1-9.9
			c0-5.6,4.4-9.9,10.1-9.9h5.4V-9.6c0-5.6,4.6-9.9,10.3-9.9c5.7,0,10.1,4.3,10.1,9.9v26.1h4.6c5.5,0,10.3,4.3,10.3,9.9"/>
		<path id="path3845" inkscape:connector-curvature="0" class="st2" d="M176.4,84c0,6.1-5,11.1-11.1,11.1c-6.1,0-11.1-5-11.1-11.1
			c0-6.1,5-11.1,11.1-11.1C171.4,72.9,176.4,77.8,176.4,84"/>
		<path id="path3847" inkscape:connector-curvature="0" class="st2" d="M206.4,106c0,7.2-5.9,13.1-13.1,13.1
			c-7.2,0-13.1-5.9-13.1-13.1c0-7.2,5.9-13.1,13.1-13.1C200.5,92.9,206.4,98.7,206.4,106"/>
		<path id="path3849" inkscape:connector-curvature="0" class="st2" d="M121.4-7c0,4.5-3.6,8.1-8.1,8.1c-4.4,0-8.1-3.6-8.1-8.1
			s3.6-8.1,8.1-8.1C117.7-15.1,121.4-11.5,121.4-7"/>
		<path id="path3851" inkscape:connector-curvature="0" class="st2" d="M98.2,128c0,3.9-3.2,7.1-7.1,7.1c-3.9,0-7.1-3.2-7.1-7.1
			c0-3.9,3.2-7.1,7.1-7.1S98.2,124.1,98.2,128"/>
		<path id="path3853" inkscape:connector-curvature="0" class="st2" d="M188.4,7.6c0,4.2-3.4,7.6-7.6,7.6c-4.2,0-7.6-3.4-7.6-7.6
			s3.4-7.6,7.6-7.6C185,0,188.4,3.4,188.4,7.6"/>
		<path id="path3855" inkscape:connector-curvature="0" class="st3" d="M140.4,7.6c0,5.8-4.7,10.6-10.6,10.6
			c-5.8,0-10.6-4.7-10.6-10.6c0-5.9,4.7-10.6,10.6-10.6C135.6-3,140.4,1.7,140.4,7.6"/>
		<path id="path3857" inkscape:connector-curvature="0" class="st3" d="M127.4,30.3c0,3.9-3.2,7.1-7.1,7.1s-7.1-3.2-7.1-7.1
			c0-3.9,3.2-7.1,7.1-7.1C124.2,23.2,127.4,26.4,127.4,30.3"/>
		<path id="path3859" inkscape:connector-curvature="0" class="st3" d="M423.4,36.2c-6.6,0-12.7,2.7-17.3,7.4
			c-4.6,4.5-7.4,11-7.4,18.2c0,6.8,2.8,13.3,7.4,17.8c4.6,4.7,10.7,7.4,17.3,7.4c6.8,0,12.7-2.7,17.3-7.4c4.6-4.5,7.4-11,7.4-17.8
			c0-7.2-2.8-13.7-7.4-18.2C436,38.9,430.2,36.2,423.4,36.2 M468.2,96.8c0,5.2-4.4,9.7-10,9.7c-5,0-8.9-3.4-9.8-7.7
			c-7,4.7-15.9,7.7-25.1,7.7c-24.9,0-44.8-20.5-44.8-44.8c0-24.6,19.9-45.1,44.8-45.1c9,0,17.9,2.9,24.7,7.6V-9.7
			c0-5.2,4.4-9.7,10.1-9.7c5.5,0,10,4.5,10,9.7v71.2v0.2L468.2,96.8L468.2,96.8z"/>
		<path id="path3861" inkscape:connector-curvature="0" class="st3" d="M494.4,61.7c0,6.8,2.8,13.3,7.4,17.8
			c4.6,4.7,10.5,7.4,17.3,7.4c6.6,0,12.7-2.7,17.3-7.4c4.6-4.5,7.4-11,7.4-17.8c0-7.2-2.8-13.7-7.4-18.2c-4.6-4.7-10.7-7.4-17.3-7.4
			c-6.8,0-12.7,2.7-17.3,7.4C497.1,48,494.4,54.5,494.4,61.7 M474.3,61.7v-0.2V-9.7c0-5.2,4.4-9.7,10-9.7c5.7,0,10.1,4.5,10.1,9.7
			v33.8c6.8-4.7,15.7-7.6,24.7-7.6c24.9,0,44.8,20.5,44.8,45.1c0,24.3-19.9,44.8-44.8,44.8c-9.2,0-18.1-3.1-25.1-7.7
			c-0.9,4.3-4.8,7.7-9.8,7.7c-5.5,0-10-4.5-10-9.7L474.3,61.7L474.3,61.7z"/>
		<path id="path3863" inkscape:connector-curvature="0" class="st3" d="M236.4-11.5c0,4.2-3.4,7.6-7.6,7.6s-7.6-3.4-7.6-7.6
			s3.4-7.6,7.6-7.6S236.4-15.7,236.4-11.5"/>
		<path id="path3865" inkscape:connector-curvature="0" class="st3" d="M220.4,6.1c0,7.8-6.3,14.1-14.1,14.1
			c-7.8,0-14.1-6.3-14.1-14.1c0-7.8,6.3-14.1,14.1-14.1C214-8,220.4-1.7,220.4,6.1"/>
		<path id="path3867" inkscape:connector-curvature="0" class="st3" d="M149.4,67c0,5.6-4.5,10.1-10.1,10.1
			c-5.6,0-10.1-4.5-10.1-10.1c0-5.6,4.5-10.1,10.1-10.1C144.8,56.9,149.4,61.4,149.4,67"/>
		<path id="path3869" inkscape:connector-curvature="0" class="st3" d="M140.4,93c0,5-4.1,9.1-9.1,9.1s-9.1-4.1-9.1-9.1
			c0-5,4.1-9.1,9.1-9.1C136.3,83.9,140.4,88,140.4,93"/>
		<path id="path3871" inkscape:connector-curvature="0" class="st3" d="M214.4,81c0,5-4.1,9.1-9.1,9.1s-9.1-4.1-9.1-9.1
			c0-5,4.1-9.1,9.1-9.1C210.3,71.9,214.4,76,214.4,81"/>
		<path id="path3873" inkscape:connector-curvature="0" class="st3" d="M228.4,106c0,4.4-3.6,8.1-8.1,8.1c-4.5,0-8.1-3.6-8.1-8.1
			c0-4.5,3.6-8.1,8.1-8.1C224.7,97.9,228.4,101.5,228.4,106"/>
		<path id="path3875" inkscape:connector-curvature="0" class="st3" d="M100-10.5c0,2.8-2.3,5-5,5c-2.8,0-5-2.3-5-5s2.3-5,5-5
			C97.7-15.6,100-13.3,100-10.5"/>
		<path id="path3877" inkscape:connector-curvature="0" class="st3" d="M98.2-24.1c0,2.8-2.3,5-5,5s-5-2.3-5-5s2.3-5,5-5
			S98.2-26.9,98.2-24.1"/>
		<path id="path3879" inkscape:connector-curvature="0" class="st3" d="M114.4,89c0,3.3-2.7,6.1-6.1,6.1s-6.1-2.7-6.1-6.1
			c0-3.3,2.7-6.1,6.1-6.1C111.6,82.9,114.4,85.6,114.4,89"/>
	</g>
</g>
</svg>
