<?xml version="1.0" encoding="utf-8"?>
<!-- Generator: Adobe Illustrator 25.1.0, SVG Export Plug-In . SVG Version: 6.00 Build 0)  -->
<svg version="1.1" id="ghost-logo" xmlns="http://www.w3.org/2000/svg" xmlns:xlink="http://www.w3.org/1999/xlink" x="0px" y="0px"
	 viewBox="0 0 512 165" style="enable-background:new 0 0 512 165;" xml:space="preserve">
<style type="text/css">
	.st0{fill:#FFFFFF;}
</style>
<g>
	<g transform="translate(0.000000, 37.436559)">
		<rect x="0.2" y="70.8" class="st0" width="34.9" height="17.5"/>
		<rect x="52.6" y="70.8" class="st0" width="34.9" height="17.5"/>
		<rect x="0.2" y="35.9" class="st0" width="87.3" height="17.5"/>
		<rect x="0.2" y="1" class="st0" width="52.4" height="17.5"/>
		<rect x="70" y="1" class="st0" width="17.5" height="17.5"/>
	</g>
	<g transform="translate(125.522581, 0.000000)">
		<path class="st0" d="M215.3,38.3c-28,0-42.5,19.8-42.5,44.3c0,24.5,14.1,44.3,42.5,44.3s42.5-19.8,42.5-44.3
			C257.9,58.1,243.4,38.3,215.3,38.3L215.3,38.3z M236.5,82.7L236.5,82.7c0,15.7-5.3,28.5-21.2,28.5s-21.2-12.7-21.2-28.5l0,0v0v0
			l0,0c0-15.7,5.3-28.5,21.2-28.5C231.2,54.1,236.5,66.9,236.5,82.7L236.5,82.7L236.5,82.7C236.5,82.7,236.5,82.7,236.5,82.7
			L236.5,82.7z"/>
		<path class="st0" d="M89.8,125.7V3.3c0,0,16.1-2.3,17.4-2.5c1.4-0.2,3.3,0.8,3.3,2.8V49c3.4-3.2,7-5.8,11.1-7.7
			c4-2,8.7-2.9,14.2-2.9c4.7,0,8.9,0.8,12.5,2.4c3.6,1.6,6.7,3.8,9.1,6.7c2.4,2.9,4.3,6.3,5.5,10.3c1.3,4,1.9,8.4,1.9,13.2v54.7
			h-20.7V71c0-5.3-1.2-9.3-3.6-12.2c-2.4-2.9-6.1-4.3-10.9-4.3c-3.6,0-6.9,0.8-10.1,2.4c-3.1,1.6-6.1,3.8-8.9,6.6v62.2H89.8
			L89.8,125.7z"/>
		<path class="st0" d="M366.2,126.9c-14.2,0-23.2-8.3-23.2-23.8V57.3H327c0,0,3.4-11.8,3.7-12.7c0.3-0.9,1-1.9,2.4-2.1
			c1.4-0.2,10-1.4,10-1.4l3.9-25.1c0,0,11.6-1.6,13.4-1.9c1.7-0.3,3.3,1,3.3,2.9V41H384v16.2h-20.3v45.2c0,6.2,3.8,8.5,7.4,8.5
			c2.2,0,5.2-1.2,7.5-2.2c1.4-0.6,3.5-0.2,4.1,1.8c0.5,1.7,3.1,10.8,3.1,10.8C383.5,122.9,376.3,126.9,366.2,126.9L366.2,126.9z"/>
		<path class="st0" d="M315.6,57.5c-4-1.3-11.6-3.4-18.8-3.4c-7.3,0-13.1,2.5-13.1,8.7c0,7.6,12.5,9.9,21,13c5.7,2.1,21,6.1,21,22.6
			c0,20-16.6,28.5-34.3,28.5c-17.7,0-28.2-6.6-28.2-6.6s2.7-9.7,3.3-11.6c0.5-1.7,2.5-2.3,3.8-1.8c4.6,1.8,12.8,4.2,22.1,4.2
			c9.4,0,14-2.9,14-9c0-8.2-12.7-10.6-21.1-13.3c-5.8-1.8-21.1-6.1-21.1-24.2c0-17.8,15.6-26.2,32.4-26.2c14.2,0,21.1,3,26.3,5.6
			c0,0-2.9,10.1-3.3,11.6C318.9,57.3,317.4,58.1,315.6,57.5L315.6,57.5z"/>
		<path class="st0" d="M81.7,41.3c0-1.9-1.6-3-3.2-2.9c-6.9,0.8-11.9,4.1-15.1,7.1c-6.3-4.9-15-7.3-24.8-7.3c-19.7,0-35,9.5-35,30.2
			c0,11.9,5.1,20.1,13.1,24.9c-6,2.8-9.9,8.8-9.9,14.7c0,9.9,7.8,12.9,7.8,12.9s-13.6,6.6-13.6,19.8c0,16.9,15.6,23.8,34.6,23.8
			c27.4,0,46.3-11.3,46.3-32.1c0-12.8-9.8-19.9-31.1-20.7c-12.7-0.5-20.9-1-22.9-1.6c-2.7-0.9-4-3-4-5.4c0-2.6,2.2-5.1,5.5-6.8
			c3,0.5,6.1,0.8,9.3,0.8c19.7,0,35-9.5,35-30.2c0-5-0.9-9.4-2.6-13.1c2.9-1.5,6.4-2.6,10.7-2.6C81.7,52.7,81.7,43.1,81.7,41.3
			L81.7,41.3z M27.6,125.8c0,0,10.3,0.4,20.6,0.9c11.6,0.5,15.2,3,15.2,9c0,7.3-10.1,14.5-24.2,14.5c-13.4,0-20-4.6-20-12.4
			C19.2,133.3,21.6,128.4,27.6,125.8L27.6,125.8z M38.6,84.2c-9.3,0-16.6-4.9-16.6-15.7c0-10.8,7.3-15.7,16.6-15.7
			c9.3,0,16.6,4.9,16.6,15.7S47.9,84.2,38.6,84.2L38.6,84.2z"/>
	</g>
</g>
</svg>
