<?xml version="1.0" encoding="utf-8"?>
<!-- Generator: Adobe Illustrator 24.3.0, SVG Export Plug-In . SVG Version: 6.00 Build 0)  -->
<svg version="1.1" id="java-logo" xmlns="http://www.w3.org/2000/svg" xmlns:xlink="http://www.w3.org/1999/xlink" x="0px" y="0px"
	 viewBox="0 0 500 500" style="enable-background:new 0 0 500 500;" xml:space="preserve">
<style type="text/css">
	.st0{fill:#0074BD;}
	.st1{fill:#EA2D2E;}
</style>
<g>
	<path id="XMLID_16_" class="st0" d="M207.1,264.3c0,0-12.3,7.2,8.8,9.6c25.6,2.9,38.7,2.5,66.9-2.8c0,0,7.4,4.6,17.8,8.7
		C237.3,306.9,157.4,278.2,207.1,264.3L207.1,264.3z"/>
	<path id="XMLID_15_" class="st0" d="M199.4,229c0,0-13.8,10.3,7.3,12.4c27.4,2.8,49,3.1,86.3-4.1c0,0,5.2,5.2,13.3,8.1
		C229.8,267.7,144.6,247.1,199.4,229L199.4,229z"/>
	<path id="XMLID_14_" class="st1" d="M264.5,168.9c15.6,18-4.1,34.1-4.1,34.1s39.6-20.4,21.4-46c-17-23.9-30-35.7,40.5-76.6
		C322.3,80.4,211.7,108.1,264.5,168.9L264.5,168.9z"/>
	<path id="XMLID_13_" class="st0" d="M348.2,290.5c0,0,9.1,7.5-10.1,13.4c-36.5,11.1-152,14.4-184.1,0.4c-11.5-5,10.1-12,16.9-13.4
		c7.1-1.5,11.1-1.3,11.1-1.3c-12.8-9-82.9,17.7-35.6,25.4C275.5,335.9,381.7,305.6,348.2,290.5L348.2,290.5z"/>
	<path id="XMLID_12_" class="st0" d="M213,192.3c0,0-58.7,14-20.8,19c16,2.1,47.9,1.7,77.7-0.8c24.3-2,48.7-6.4,48.7-6.4
		s-8.6,3.7-14.8,7.9c-59.7,15.7-174.9,8.4-141.7-7.7C190.2,190.8,213,192.3,213,192.3L213,192.3z"/>
	<path id="XMLID_11_" class="st0" d="M318.4,251.2c60.6-31.5,32.6-61.8,13-57.7c-4.8,1-6.9,1.9-6.9,1.9s1.8-2.8,5.2-4
		c38.7-13.6,68.5,40.1-12.5,61.4C317.2,252.8,318.1,251.9,318.4,251.2L318.4,251.2z"/>
	<path id="XMLID_10_" class="st1" d="M281.8,14.4c0,0,33.6,33.6-31.9,85.2c-52.5,41.4-12,65.1,0,92.1c-30.6-27.6-53.1-52-38-74.6
		C234.1,83.9,295.4,67.8,281.8,14.4L281.8,14.4z"/>
	<path id="XMLID_9_" class="st0" d="M219,336.6c58.2,3.7,147.6-2.1,149.7-29.6c0,0-4.1,10.4-48.1,18.7
		c-49.7,9.4-110.9,8.3-147.3,2.3C173.3,328,180.8,334.1,219,336.6L219,336.6z"/>
	<path class="st1" d="M366,386h-1.8v-1h4.8v1h-1.8v5H366L366,386L366,386L366,386z M375.5,386.2L375.5,386.2l-1.8,4.7h-0.8l-1.7-4.7
		h0v4.7H370V385h1.7l1.6,4.2l1.6-4.2h1.7v5.9h-1.1L375.5,386.2L375.5,386.2z"/>
	<path class="st1" d="M209.5,441.8c-5.5,4.8-11.3,7.4-16.5,7.4c-7.4,0-11.4-4.5-11.4-11.6c0-7.7,4.3-13.4,21.6-13.4h6.4V441.8
		L209.5,441.8L209.5,441.8z M224.6,458.9V406c0-13.5-7.7-22.4-26.3-22.4c-10.8,0-20.3,2.7-28.1,6.1l2.2,9.4c6.1-2.2,14-4.3,21.7-4.3
		c10.7,0,15.3,4.3,15.3,13.2v6.7h-5.4c-26,0-37.7,10.1-37.7,25.3c0,13.1,7.7,20.5,22.3,20.5c9.4,0,16.3-3.9,22.9-9.5l1.2,8H224.6
		L224.6,458.9z"/>
	<path id="XMLID_4_" class="st1" d="M275.2,458.9h-18.9l-22.7-74H250l14.1,45.5l3.1,13.7c7.1-19.8,12.2-39.8,14.7-59.1h16
		C293.7,409.2,286,436,275.2,458.9L275.2,458.9z"/>
	<path class="st1" d="M347.6,441.8c-5.5,4.8-11.3,7.4-16.5,7.4c-7.4,0-11.4-4.5-11.4-11.6c0-7.7,4.3-13.4,21.6-13.4h6.4L347.6,441.8
		L347.6,441.8L347.6,441.8z M362.8,458.9V406c0-13.5-7.7-22.4-26.3-22.4c-10.9,0-20.4,2.7-28.1,6.1l2.2,9.4c6.1-2.2,14-4.3,21.7-4.3
		c10.7,0,15.3,4.3,15.3,13.2v6.7h-5.4c-26,0-37.7,10.1-37.7,25.3c0,13.1,7.7,20.5,22.3,20.5c9.4,0,16.3-3.9,22.9-9.5l1.2,8H362.8
		L362.8,458.9z"/>
	<path id="XMLID_1_" class="st1" d="M149.8,471.4c-4.3,6.3-11.3,11.3-18.9,14.1l-7.5-8.8c5.8-3,10.8-7.8,13.1-12.3
		c2-4,2.8-9.1,2.8-21.4v-84.5h16.1v83.3C155.4,458.3,154.1,465,149.8,471.4L149.8,471.4z"/>
</g>
</svg>
