<?xml version="1.0" encoding="utf-8"?>
<!-- Generator: Adobe Illustrator 25.1.0, SVG Export Plug-In . SVG Version: 6.00 Build 0)  -->
<svg version="1.1"
	 id="appel" inkscape:version="0.91 r13725" sodipodi:docname="Apple_1998.svg" xmlns:cc="http://creativecommons.org/ns#" xmlns:dc="http://purl.org/dc/elements/1.1/" xmlns:inkscape="http://www.inkscape.org/namespaces/inkscape" xmlns:rdf="http://www.w3.org/1999/02/22-rdf-syntax-ns#" xmlns:sodipodi="http://sodipodi.sourceforge.net/DTD/sodipodi-0.dtd" xmlns:svg="http://www.w3.org/2000/svg"
	 xmlns="http://www.w3.org/2000/svg" xmlns:xlink="http://www.w3.org/1999/xlink" x="0px" y="0px" viewBox="0 0 2332.8 752.2"
	 style="enable-background:new 0 0 2332.8 752.2;" xml:space="preserve">
<style type="text/css">
	.st0{fill:#F54029;}
	.st1{fill:#FFFFFF;}
</style>
<sodipodi:namedview  bordercolor="#666666" borderopacity="1" gridtolerance="10" guidetolerance="10" id="namedview6" inkscape:current-layer="svg2" inkscape:cx="-1066.5045" inkscape:cy="964.94669" inkscape:pageopacity="0" inkscape:pageshadow="2" inkscape:window-height="705" inkscape:window-maximized="1" inkscape:window-width="1366" inkscape:window-x="-8" inkscape:window-y="-8" inkscape:zoom="0.1767767" objecttolerance="10" pagecolor="#ffffff" showgrid="false">
	</sodipodi:namedview>
<g id="Layer_x0020_1">
	<g id="_152392584">
		<g>
			<path id="_152391984" class="st0" d="M1906.2,460.3l77.9-325h45.2l-78.7,325H1906.2L1906.2,460.3z M2049.2,419.4v-60.7
				l150.5-59.2l-150.5-58.5v-60.2l215.7,93.2v51.4L2049.2,419.4z"/>
			<path id="_152389104" class="st1" d="M885,178.6h64.1l54.5,161.7l53.2-161.7h62.4l-80.4,219.1l-14.4,39.7
				c-5.3,13.2-10.3,23.4-15.1,30.4c-4.8,7-10.3,12.7-16.5,17.1c-6.2,4.3-13.8,7.8-22.9,10.2c-9.1,2.4-19.3,3.7-30.8,3.7
				c-11.6,0-22.9-1.2-34.1-3.7l-5.3-47.2c9.4,1.9,17.9,2.8,25.5,2.8c14,0,24.4-4.1,31.1-12.3c6.7-8.2,11.9-18.7,15.4-31.4L885,178.6
				L885,178.6z M1152.2,421.3l68.8,8.3c1.2,8,3.8,13.5,7.9,16.5c5.7,4.3,14.8,6.4,27,6.4c15.7,0,27.5-2.3,35.4-7.1
				c5.3-3.1,9.3-8.2,12-15.2c1.8-5,2.8-14.2,2.8-27.7v-33.2c-18,24.6-40.8,36.9-68.2,36.9c-30.6,0-54.8-13-72.7-38.8
				c-14-20.5-21-45.9-21-76.3c0-38.2,9.2-67.3,27.6-87.5c18.4-20.1,41.2-30.2,68.5-30.2c28.1,0,51.4,12.4,69.7,37.1v-31.9h56.4
				v204.3c0,26.9-2.2,46.9-6.7,60.2c-4.4,13.3-10.6,23.7-18.6,31.3c-8.1,7.5-18.7,13.5-32.1,17.8c-13.4,4.2-30.3,6.4-50.7,6.4
				c-38.6,0-66-6.7-82.1-19.8c-16.2-13.2-24.2-30-24.2-50.3C1152,426.6,1152.1,424.1,1152.2,421.3L1152.2,421.3z M1206,287.7
				c0,24.2,4.7,41.9,14,53.1c9.4,11.2,20.9,16.8,34.6,16.8c14.7,0,27.2-5.8,37.3-17.3c10.1-11.5,15.2-28.5,15.2-51.2
				c0-23.6-4.9-41.1-14.6-52.5c-9.7-11.5-22-17.2-36.8-17.2c-14.5,0-26.3,5.6-35.7,16.8C1210.7,247.6,1206,264.7,1206,287.7z
				 M1557.8,333.8l60.1,10c-7.8,22-19.9,38.8-36.6,50.3c-16.6,11.6-37.5,17.3-62.5,17.3c-39.6,0-68.9-12.9-87.9-38.8
				c-15-20.7-22.5-46.9-22.5-78.5c0-37.8,9.9-67.3,29.6-88.7c19.7-21.4,44.6-32.1,74.8-32.1c33.9,0,60.6,11.2,80.2,33.6
				c19.5,22.4,28.9,56.6,28.1,102.8h-151c0.4,17.9,5.3,31.8,14.6,41.6c9.3,10,20.9,14.9,34.8,14.9c9.4,0,17.3-2.6,23.8-7.7
				C1549.7,353.5,1554.6,345.3,1557.8,333.8L1557.8,333.8z M1561.3,272.9c-0.4-17.5-4.9-30.7-13.5-39.8c-8.6-9.1-19-13.6-31.3-13.6
				c-13.2,0-24,4.8-32.6,14.4c-8.6,9.5-12.8,22.5-12.7,39H1561.3z M1877.4,406.3h-60.2V290.1c0-24.6-1.3-40.5-3.9-47.7
				c-2.6-7.2-6.8-12.8-12.6-16.8c-5.8-4-12.7-6-20.9-6c-10.5,0-19.8,2.9-28.1,8.6c-8.3,5.8-14,13.3-17.1,22.8
				c-3.1,9.4-4.6,26.9-4.6,52.3v103.1h-60.2V178.6h55.9v33.4c19.9-25.8,44.9-38.6,75.1-38.6c13.2,0,25.5,2.4,36.4,7.2
				c11,4.8,19.3,10.9,25,18.4c5.6,7.5,9.6,15.9,11.8,25.3c2.3,9.4,3.4,22.9,3.4,40.5L1877.4,406.3L1877.4,406.3z"/>
			<g>
				<path id="_152390160" class="st1" d="M2237.3,121c15.2,0,27.6,12.4,27.6,27.6c0,15.2-12.4,27.6-27.6,27.6
					c-15.2,0-27.6-12.4-27.6-27.6C2209.7,133.3,2222.1,121,2237.3,121z"/>
				<path id="_152389536" class="st1" d="M2252.7,165.8h-4.9l-3.2-9.2c-0.6-1.6-1.5-3-2.9-4c-1.3-1-2.9-1.6-4.7-1.6h-8.5v14.8h-4.6
					v-34.5h15.3c2.7,0,4.8,0.3,6.5,0.8c1.7,0.5,3.1,1.6,4.1,3.3c1.1,1.7,1.6,3.5,1.6,5.6c0,2.4-0.7,4.4-2.1,6
					c-1.4,1.6-3.3,2.6-5.7,3.1v0.1c2.4,0.8,4.2,2.8,5.5,6.2L2252.7,165.8z M2228.5,146.9h10.2c2.8,0,4.9-0.4,6.2-1.3
					c1.3-0.9,1.9-2.4,1.9-4.6c0-3.9-2.5-5.9-7.4-5.9h-10.9V146.9z"/>
			</g>
			<path id="_152391096" class="st1" d="M315.4,296.3c0-20,5-39.4,14.8-58.1c9.9-18.7,23.9-33,41.9-42.8
				c18.1-9.9,38.3-14.9,60.6-14.9c34.4,0,62.6,11.2,84.7,33.6c22,22.4,33,50.6,33,84.8c0,34.4-11.1,62.9-33.3,85.6
				c-22.2,22.7-50.2,34-83.9,34c-20.9,0-40.8-4.7-59.7-14.1c-19-9.4-33.4-23.3-43.3-41.5C320.4,344.7,315.4,322.5,315.4,296.3
				L315.4,296.3z M377.2,299.5c0,22.6,5.3,39.9,16.1,51.9c10.7,12,23.9,18,39.7,18c15.7,0,28.9-6,39.5-18c10.7-12,16-29.4,16-52.3
				c0-22.2-5.3-39.4-16-51.4c-10.6-12-23.8-18-39.5-18c-15.7,0-29,6-39.7,18C382.5,259.6,377.2,277,377.2,299.5z"/>
			<polygon id="_152388912" class="st0" points="287.6,419.3 72.1,325.5 72.1,273.6 287.6,180.4 287.6,241.5 137.3,299 287.6,358.6 
							"/>
			<path id="_152392368" class="st0" d="M877.4,452.2l-77.4,52.2c-25.1-37.7-47.3-70.9-66.6-99.6c-19.3-28.5-32.7-48.5-40.2-59.6
				c-45.1,69.3-80.3,121.1-105.6,155.4c-25.2,34.4-47,60.4-65.4,78.2c0-3.1,12.4-34,37.4-92.6c24.8-58.5,55.5-128.3,91.9-209.5
				l-124.4-195l65.3-14.5c13.2,25.6,26.6,52.2,40.1,79.9c13.5,27.7,29.4,61.1,47.7,100c9.8-15.6,26.8-43.8,51-84.6
				c24.1-40.9,42.9-69.7,56.3-86.6c-17.7,61-31,106.6-40.1,136.9c-9,30.4-17.5,58.5-25.8,84.5L877.4,452.2L877.4,452.2z"/>
		</g>
		<polygon id="_152389896" class="st1" points="1396.3,637 1436.9,575.2 1400.2,518.5 1428.1,518.5 1451.9,556.6 1475.2,518.5 
			1502.9,518.5 1466,576 1506.5,637 1477.7,637 1451.4,596 1425.1,637 		"/>
		<polygon id="_1523898961" class="st1" points="1518.5,637 1518.5,518.5 1554.3,518.5 1575.8,599.3 1597.1,518.5 1633,518.5 
			1633,637 1610.8,637 1610.8,543.7 1587.2,637 1564.2,637 1540.7,543.7 1540.7,637 		"/>
		<polygon id="_15238989612" class="st1" points="1657.4,637 1657.4,519.5 1681.3,519.5 1681.3,617 1740.8,617 1740.8,637 		"/>
		<polygon id="_152389896123" class="st1" points="1800.9,637 1800.9,518.5 1888.8,518.5 1888.8,538.5 1824.9,538.5 1824.9,564.8 
			1884.4,564.8 1884.4,584.8 1824.9,584.8 1824.9,617 1891.1,617 1891.1,637 		"/>
		<path id="_1523898961234" class="st1" d="M1989.9,637h-21.1v-12.6c-3.5,4.9-7.6,8.6-12.4,11c-4.8,2.4-9.6,3.6-14.4,3.6
			c-9.9,0-18.3-4-25.4-11.9c-7-7.9-10.5-19-10.5-33.3c0-14.6,3.4-25.6,10.3-33.2c6.8-7.6,15.5-11.4,26-11.4c9.6,0,17.9,4,24.9,12
			v-42.7h22.7L1989.9,637L1989.9,637z M1929.3,592.2c0,9.2,1.3,15.8,3.8,19.9c3.6,5.9,8.8,8.9,15.3,8.9c5.2,0,9.7-2.2,13.4-6.7
			c3.6-4.4,5.5-11.1,5.5-19.9c0-9.9-1.8-17-5.3-21.3c-3.6-4.3-8.1-6.5-13.7-6.5c-5.4,0-9.9,2.2-13.5,6.4
			C1931.1,577.3,1929.3,583.7,1929.3,592.2L1929.3,592.2z"/>
		<path id="_15238989612345" class="st1" d="M2012.3,539.5v-21h22.7v21H2012.3z M2012.3,637v-85.8h22.7V637H2012.3z"/>
		<path id="_152389896123456" class="st1" d="M2097.7,551.2v18.1h-15.5v34.6c0,7,0.1,11.1,0.4,12.3c0.3,1.2,1,2.1,2,2.9
			c1,0.7,2.3,1.1,3.8,1.1c2.1,0,5.2-0.7,9.2-2.2l1.9,17.6c-5.3,2.3-11.3,3.4-18,3.4c-4.1,0-7.8-0.7-11.1-2c-3.3-1.4-5.7-3.2-7.2-5.4
			c-1.5-2.2-2.6-5.1-3.2-8.9c-0.5-2.6-0.7-8-0.7-16v-37.4H2049v-18.1h10.4v-17.1l22.8-13.2v30.3H2097.7L2097.7,551.2z"/>
		<path id="_1523898961234567" class="st1" d="M2108.2,592.9c0-7.5,1.9-14.8,5.6-21.9c3.7-7,9-12.4,15.8-16.1
			c6.8-3.7,14.4-5.6,22.9-5.6c13,0,23.6,4.2,31.9,12.7c8.3,8.4,12.4,19.1,12.4,32c0,13-4.2,23.7-12.6,32.3
			c-8.4,8.6-18.9,12.8-31.7,12.8c-7.9,0-15.4-1.8-22.5-5.3c-7.1-3.6-12.6-8.8-16.3-15.6C2110.1,611.1,2108.2,602.7,2108.2,592.9
			L2108.2,592.9z M2131.5,594.1c0,8.5,2,15,6.1,19.6c4,4.5,9,6.8,15,6.8c5.9,0,10.9-2.3,14.9-6.8c4-4.5,6-11.1,6-19.7
			c0-8.4-2-14.9-6-19.4c-4-4.5-9-6.8-14.9-6.8c-5.9,0-10.9,2.3-15,6.8C2133.5,579,2131.5,585.6,2131.5,594.1z"/>
		<path id="_15238989612345678" class="st1" d="M2236.4,637h-22.7v-85.8h21.1v12.2c3.6-5.8,6.9-9.6,9.7-11.4
			c2.9-1.8,6.2-2.8,9.8-2.8c5.2,0,10.2,1.4,15,4.3l-7,19.8c-3.8-2.5-7.4-3.7-10.7-3.7c-3.2,0-5.9,0.9-8.1,2.6
			c-2.2,1.7-3.9,4.9-5.2,9.5c-1.3,4.6-1.9,14.2-1.9,28.8V637L2236.4,637z"/>
	</g>
</g>
</svg>
