<?xml version="1.0" encoding="utf-8"?>
<!-- Generator: Adobe Illustrator 25.1.0, SVG Export Plug-In . SVG Version: 6.00 Build 0)  -->
<svg version="1.1"
	 id="appel" inkscape:version="0.91 r13725" sodipodi:docname="Apple_1998.svg" xmlns:cc="http://creativecommons.org/ns#" xmlns:dc="http://purl.org/dc/elements/1.1/" xmlns:inkscape="http://www.inkscape.org/namespaces/inkscape" xmlns:rdf="http://www.w3.org/1999/02/22-rdf-syntax-ns#" xmlns:sodipodi="http://sodipodi.sourceforge.net/DTD/sodipodi-0.dtd" xmlns:svg="http://www.w3.org/2000/svg"
	 xmlns="http://www.w3.org/2000/svg" xmlns:xlink="http://www.w3.org/1999/xlink" x="0px" y="0px" viewBox="0 0 1200 1200"
	 style="enable-background:new 0 0 1200 1200;" xml:space="preserve">
<style type="text/css">
	.st0{fill:#F54029;}
</style>
<sodipodi:namedview  bordercolor="#666666" borderopacity="1" gridtolerance="10" guidetolerance="10" id="namedview6" inkscape:current-layer="svg2" inkscape:cx="-1066.5045" inkscape:cy="964.94669" inkscape:pageopacity="0" inkscape:pageshadow="2" inkscape:window-height="705" inkscape:window-maximized="1" inkscape:window-width="1366" inkscape:window-x="-8" inkscape:window-y="-8" inkscape:zoom="0.1767767" objecttolerance="10" pagecolor="#ffffff" showgrid="false">
	</sodipodi:namedview>
<g id="Layer_x0020_1">
	<g id="_152392584">
		<g>
			<path id="_152392368" class="st0" d="M1032.3,891.9L854,1012c-57.8-86.9-108.8-163.3-153.2-229.2
				c-44.5-65.5-75.2-111.6-92.6-137.5c-103.9,159.7-184.8,279-243.4,357.8c-58.2,79.2-108.4,139.1-150.8,179.9
				c0-7.3,28.7-78.4,86.1-213.5C357.2,834.9,427.9,674,512,487.2L225.8,38.9L376.2,5.3c30.3,59,61.5,120.1,92.2,184
				s67.5,140.7,110,230.5c22.6-36,61.9-101.1,117.7-194.9c55.4-94.2,98.6-160.5,129.8-199.3c-40.8,140.3-71.6,245.4-92.2,315.4
				c-20.6,69.9-40.4,134.6-59.4,194.5L1032.3,891.9L1032.3,891.9z"/>
		</g>
	</g>
</g>
</svg>
