<?xml version="1.0" encoding="utf-8"?>
<!-- Generator: Adobe Illustrator 25.1.0, SVG Export Plug-In . SVG Version: 6.00 Build 0)  -->
<svg version="1.1"
	 id="pdf-file-icon" inkscape:version="0.92.3 (2405546, 2018-03-11)" sodipodi:docname="PDF file icon.svg" xmlns:cc="http://creativecommons.org/ns#" xmlns:dc="http://purl.org/dc/elements/1.1/" xmlns:inkscape="http://www.inkscape.org/namespaces/inkscape" xmlns:rdf="http://www.w3.org/1999/02/22-rdf-syntax-ns#" xmlns:sodipodi="http://sodipodi.sourceforge.net/DTD/sodipodi-0.dtd" xmlns:svg="http://www.w3.org/2000/svg"
	 xmlns="http://www.w3.org/2000/svg" xmlns:xlink="http://www.w3.org/1999/xlink" x="0px" y="0px" viewBox="0 0 1200 1200"
	 style="enable-background:new 0 0 1200 1200;" xml:space="preserve">
<style type="text/css">
	.st0{fill:#FF2116;}
	.st1{fill:#F5F5F5;}
	.st2{fill:#2C2C2C;}
</style>
<sodipodi:namedview  bordercolor="#666666" borderopacity="1.0" fit-margin-bottom="0" fit-margin-left="0" fit-margin-right="0" fit-margin-top="0" id="base" inkscape:current-layer="g899" inkscape:cx="122.12727" inkscape:cy="167.02823" inkscape:document-units="mm" inkscape:object-nodes="false" inkscape:pageopacity="0.0" inkscape:pageshadow="2" inkscape:snap-others="false" inkscape:snap-page="false" inkscape:window-height="705" inkscape:window-maximized="1" inkscape:window-width="1366" inkscape:window-x="-8" inkscape:window-y="-8" inkscape:zoom="0.98994949" pagecolor="#ffffff" showgrid="false">
	</sodipodi:namedview>
<g id="layer1" transform="translate(36.076172,-93.731774)" inkscape:groupmode="layer" inkscape:label="Capa 1">
	<g id="g899" transform="matrix(1.4843054,0,0,1.4843054,17.471885,-90.243502)">
		<g id="g876">
			<path id="path890" inkscape:connector-curvature="0" class="st0" d="M153.8,175.3c-40.1,0-72.8,32.7-72.8,72.8V807
				c0,40.1,32.7,72.8,72.8,72.8h427.5c40.1,0,72.8-32.7,72.8-72.8V347.3c0,0,1.2-13.5-4.7-26.5C643.9,308.6,635,300,635,300
				s0-0.1-0.1-0.1l-106.1-104c-0.1-0.1-0.1-0.1-0.2-0.2c0,0-9.1-8.6-22.5-14.4c-15.8-6.7-32.1-6-32.1-6h0.3H153.8z"/>
			<path id="rect2684" inkscape:connector-curvature="0" class="st1" d="M153.8,199.1h320.5c0.1,0,0.2,0,0.3,0
				c0,0,12.8,0.1,22.2,4.1c9,3.9,15.4,9.7,15.5,9.8v0.1l105.7,103.8c0,0,6.4,6.7,9.4,13.7c2.5,5.6,2.6,15.8,2.6,15.8
				c0,0.2,0,0.4,0,0.5v460.1c0,27.3-21.6,48.9-48.9,48.9H153.8c-27.3,0-48.9-21.6-48.9-48.9v-559
				C104.9,220.7,126.5,199.1,153.8,199.1L153.8,199.1z"/>
			
				<path id="path2697" inkscape:connector-curvature="0" sodipodi:nodetypes="scccscccscccccssscacccsccccccccccccccccccccaccccccccc" class="st0" d="
				M224.1,594.7c-16.5-16.5,1.3-39.1,49.7-63.1l30.4-15.1l11.9-25.9c6.5-14.2,16.2-37.5,21.6-51.7l9.7-25.7l-6.7-19.1
				c-8.3-23.4-11.2-58.7-5.9-71.4c7.1-17.2,30.4-15.4,39.6,3c7.2,14.4,6.5,40.4-2.1,73.2l-7,26.9l6.1,10.4
				c3.4,5.8,13.3,19.4,22,30.3l16.4,20.3l20.3-2.7c64.7-8.5,86.8,5.9,86.8,26.5c0,26-50.8,28.1-93.5-1.9
				c-9.6-6.7-16.2-13.4-16.2-13.4s-26.7,5.4-39.9,9c-13.6,3.7-20.3,5.9-40.2,12.7c0,0-7,10.2-11.5,17.5
				c-16.9,27.4-36.7,50.1-50.8,58.4C249,602.5,232.4,603.1,224.1,594.7z M249.9,585.5c9.3-5.8,28-27.8,40.9-48.4l5.2-8.3l-23.8,12
				c-36.9,18.5-53.7,36-45,46.6C232.2,593.4,238,592.8,249.9,585.5L249.9,585.5z M489.5,518.2c9-6.3,7.7-19.1-2.5-24.2
				c-7.9-4-14.4-4.9-35-4.5c-12.7,0.9-33.1,3.4-36.6,4.2c0,0,11.2,7.7,16.2,10.6c6.7,3.8,22.8,10.8,34.6,14.4
				C477.7,522.3,484.4,521.9,489.5,518.2L489.5,518.2z M393.2,478.2c-5.5-5.8-14.8-17.7-20.7-26.7c-7.7-10.1-11.6-17.3-11.6-17.3
				s-5.7,18.2-10.3,29.1L336.2,499l-4.2,8.1c0,0,22.2-7.3,33.6-10.3c12-3.1,36.4-7.9,36.4-7.9L393.2,478.2z M362.1,353.7
				c1.4-11.7,2-23.4-1.8-29.3c-10.4-11.4-23-1.9-20.9,25.2c0.7,9.1,3,24.7,6,34.4l5.5,17.5l3.9-13.1
				C357,381.1,360.3,365.5,362.1,353.7L362.1,353.7z"/>
			<g id="g858">
				<path id="path845" inkscape:connector-curvature="0" class="st2" d="M252,670.9h26.7c8.5,0,15.5,0.8,20.8,2.4
					c5.3,1.6,9.8,5.1,13.4,10.7c3.6,5.5,5.5,12.1,5.5,19.8c0,7.1-1.4,13.2-4.4,18.4c-3,5.1-6.9,8.8-12,11.1
					c-4.9,2.2-12.6,3.4-22.9,3.4h-9.3v42.1H252L252,670.9z M270,684.7v37.6h8.8c7.9,0,13.3-1.4,16.4-4.4c3.1-3,4.6-7.7,4.6-14.4
					c0-4.9-1-9-3-12c-2-3.1-4.2-5-6.7-5.7c-2.3-0.7-6.1-1.1-11.3-1.1L270,684.7z"/>
				<path id="path847" inkscape:connector-curvature="0" class="st2" d="M332.1,670.9h24.3c11.8,0,21.1,2.1,28.2,6.2
					s12.4,10.3,15.9,18.5c3.6,8.2,5.5,17.4,5.5,27.4c0,10.5-1.6,20-4.9,28.2S393,766,386.3,771c-6.7,5-16.1,7.6-28.4,7.6h-25.6
					V670.9H332.1z M350,685.2v79.3h7.5c10.3,0,17.9-3.6,22.6-10.7c4.7-7.2,7-16.8,7-28.8c0-26.5-9.9-39.7-29.6-39.7L350,685.2z"/>
				<path id="path849" inkscape:connector-curvature="0" class="st2" d="M423,670.9H483v14.3h-42v32.2h33.7v14.3h-33.7v47h-17.8
					L423,670.9L423,670.9z"/>
			</g>
		</g>
	</g>
</g>
</svg>
