<?xml version="1.0" encoding="utf-8"?>
<!-- Generator: Adobe Illustrator 24.2.3, SVG Export Plug-In . SVG Version: 6.00 Build 0)  -->
<svg version="1.1" id="pdf-icon" xmlns="http://www.w3.org/2000/svg" xmlns:xlink="http://www.w3.org/1999/xlink" x="0px" y="0px"
	 viewBox="0 0 128 128" style="enable-background:new 0 0 128 128;" xml:space="preserve">
<style type="text/css">
	.st0{fill:#FD4233;}
	.st1{fill:#FF402F;}
</style>
<g id="Ps">
</g>
<g id="Ai">
</g>
<g id="Ai_download">
</g>
<g id="Image">
</g>
<g id="Image_download">
</g>
<g id="Video">
</g>
<g id="Video_download">
</g>
<g id="Ps_download">
</g>
<g id="Doc">
</g>
<g id="Doc_download">
</g>
<g id="Music">
</g>
<g id="Music_download">
</g>
<g id="Pdf">
	<g>
		<g>
			<g>
				<path class="st0" d="M104,126H24c-5.5,0-10-4.5-10-10V12c0-5.5,4.5-10,10-10h40.7c2.7,0,5.2,1,7.1,2.9l39.3,39.3
					c1.9,1.9,2.9,4.4,2.9,7.1V116C114,121.5,109.5,126,104,126z M24,6c-3.3,0-6,2.7-6,6v104c0,3.3,2.7,6,6,6h80c3.3,0,6-2.7,6-6
					V51.3c0-1.6-0.6-3.1-1.8-4.2L68.9,7.8C67.8,6.6,66.3,6,64.7,6H24z"/>
			</g>
		</g>
		<g>
			<g>
				<path class="st1" d="M95.2,80.3c-0.1-0.5-0.5-1.2-0.9-1.6c-1.3-1.2-4-1.9-8.2-1.9c-2.9,0-6.3,0.2-9.9,0.7
					c-1.6-0.9-3.3-1.9-4.6-3.2c-3.5-3.3-6.5-7.9-8.3-12.9c0.1-0.5,0.2-0.9,0.3-1.3c0,0,2-11.3,1.5-15.1c-0.1-0.5-0.1-0.7-0.3-1.1
					l-0.2-0.4C64,42.3,63,41,61.3,41l-1,0h0c-1.9,0-3.4,1-3.8,2.4c-1.2,4.4,0,11.1,2.3,19.7l-0.6,1.4c-1.6,3.9-3.6,7.9-5.4,11.4
					l-0.2,0.4c-1.9,3.7-3.6,6.8-5.1,9.4l-1.6,0.8c-0.1,0.1-2.8,1.5-3.5,1.9c-5.4,3.2-9,6.9-9.6,9.8c-0.2,0.9,0,2.1,0.9,2.7l1.5,0.8
					c0.7,0.3,1.4,0.5,2.1,0.5c3.9,0,8.4-4.8,14.5-15.6c7.1-2.3,15.3-4.3,22.4-5.3c5.4,3.1,12.1,5.2,16.3,5.2c0.8,0,1.4-0.1,1.9-0.2
					c0.8-0.2,1.5-0.7,1.9-1.3C95.3,83.8,95.4,82.1,95.2,80.3z M36.5,99.3c0.7-1.9,3.5-5.8,7.6-9.1c0.3-0.2,0.9-0.8,1.5-1.4
					C41.3,95.7,38.4,98.5,36.5,99.3z M61,43c1.2,0,2,3.1,2,6.1c0.1,2.9-0.6,5-1.5,6.5c-0.7-2.3-1-5.8-1-8.2C60.4,47.5,60.4,43,61,43
					z M53.7,83.1c0.9-1.6,1.8-3.2,2.7-4.9c2.2-4.2,3.7-7.6,4.7-10.3c2.1,3.8,4.7,7.1,7.8,9.7c0.4,0.3,0.8,0.7,1.2,1
					C63.8,79.8,58.4,81.3,53.7,83.1z M93.1,82.8c-0.4,0.2-1.5,0.4-2.2,0.4c-2.3,0-5.1-1-9-2.7c1.5-0.1,2.9-0.2,4.1-0.2
					c2.3,0,2.9,0,5.2,0.6C93.4,81.4,93.5,82.6,93.1,82.8z"/>
			</g>
		</g>
	</g>
</g>
<g id="Pdf_download">
</g>
<g id="Word">
</g>
<g id="Word_download">
</g>
<g id="Exel">
</g>
<g id="Exel_download">
</g>
<g id="Powerpoint">
</g>
<g id="Powerpoint_download">
</g>
<g id="Zip">
</g>
<g id="Zip_download">
</g>
</svg>
