<?xml version="1.0" encoding="utf-8"?>
<!-- Generator: Adobe Illustrator 25.1.0, SVG Export Plug-In . SVG Version: 6.00 Build 0)  -->
<svg version="1.1" id="prey-logo" xmlns="http://www.w3.org/2000/svg" xmlns:xlink="http://www.w3.org/1999/xlink" x="0px" y="0px"
	 viewBox="0 0 1200 1200" style="enable-background:new 0 0 1200 1200;" xml:space="preserve">
<style type="text/css">
	.st0{fill:#FFFFFF;}
</style>
<g>
	<path class="st0" d="M598.3,37.6L414.3,144L537,215l61.3-35.5l61.3,35.5l122.7-71L598.3,37.6z"/>
	<path class="st0" d="M598.3,1136.9l460.6-265.8V587.2l-122.7,71v141.9l-338,194.8l-338-194.8V658.2l-122.7-71v283.8L598.3,1136.9z"
		/>
	<path class="st0" d="M1120.3,267.9L1120.3,267.9v141.9l-430,248.4l122.7,71L598.3,853L383.6,729.1l122.7-71l-430-248.4V267.9
		L15,232.4V55.6l522,301.3l61.3-35.5l61.3,35.5l522-301.9v177.4L1120.3,267.9z"/>
</g>
</svg>
