<?xml version="1.0" encoding="utf-8"?>
<!-- Generator: Adobe Illustrator 24.3.0, SVG Export Plug-In . SVG Version: 6.00 Build 0)  -->
<svg version="1.1" id="relaxNG-logo" xmlns="http://www.w3.org/2000/svg" xmlns:xlink="http://www.w3.org/1999/xlink" x="0px" y="0px"
	 viewBox="0 0 500 134.2" style="enable-background:new 0 0 500 134.2;" xml:space="preserve">
<style type="text/css">
	.st0{fill:#6C8CB8;}
</style>
<path class="st0" d="M23.9,108.3V25.8h36.6c7.4,0,12.9,0.7,16.8,2.2c3.8,1.5,6.9,4.1,9.2,7.9s3.4,7.9,3.4,12.4
	c0,5.9-1.9,10.8-5.7,14.8s-9.6,6.6-17.6,7.7c2.9,1.4,5.1,2.8,6.6,4.1c3.2,2.9,6.2,6.6,9.1,11l14.4,22.5H82.9l-11-17.3
	c-3.2-5-5.8-8.7-7.9-11.4c-2.1-2.6-3.9-4.5-5.5-5.5s-3.3-1.8-5-2.2c-1.2-0.3-3.3-0.4-6.1-0.4H34.8v36.6L23.9,108.3L23.9,108.3z
	 M34.8,62.2h23.5c5,0,8.9-0.5,11.7-1.5s5-2.7,6.4-5c1.5-2.3,2.2-4.7,2.2-7.4c0-3.9-1.4-7.1-4.3-9.6c-2.8-2.5-7.3-3.8-13.4-3.8H34.8
	L34.8,62.2z"/>
<path class="st0" d="M139.9,89l10.5,1.3c-1.7,6.1-4.7,10.9-9.2,14.2c-4.5,3.4-10.2,5.1-17.1,5.1c-8.7,0-15.7-2.7-20.8-8.1
	s-7.7-12.9-7.7-22.7c0-10.1,2.6-17.9,7.8-23.4c5.2-5.6,11.9-8.3,20.2-8.3c8,0,14.5,2.7,19.6,8.2c5.1,5.4,7.6,13.1,7.6,23
	c0,0.6,0,1.5-0.1,2.7H106c0.4,6.6,2.2,11.6,5.6,15.1c3.3,3.5,7.5,5.2,12.5,5.2c3.7,0,6.9-1,9.5-2.9C136.2,96.4,138.3,93.3,139.9,89
	L139.9,89z M106.6,72.7H140c-0.5-5-1.7-8.8-3.8-11.3c-3.2-3.9-7.4-5.9-12.6-5.9c-4.7,0-8.6,1.6-11.7,4.7
	C108.7,63.3,106.9,67.4,106.6,72.7z"/>
<path class="st0" d="M158.1,108.3V25.8h10.1v82.5H158.1z"/>
<path class="st0" d="M217.7,100.9c-3.8,3.2-7.4,5.4-10.8,6.8c-3.5,1.3-7.2,2-11.2,2c-6.6,0-11.6-1.6-15.1-4.8s-5.3-7.3-5.3-12.3
	c0-2.9,0.7-5.6,2-8s3.1-4.4,5.2-5.8c2.2-1.5,4.6-2.6,7.3-3.3c2-0.5,5-1,9-1.5c8.2-1,14.2-2.1,18.1-3.5c0-1.4,0.1-2.3,0.1-2.6
	c0-4.1-1-7-2.9-8.7c-2.6-2.3-6.4-3.4-11.5-3.4c-4.8,0-8.3,0.8-10.6,2.5s-4,4.6-5,8.9l-9.9-1.4c0.9-4.2,2.4-7.7,4.4-10.3
	c2.1-2.6,5-4.6,8.9-6s8.4-2.1,13.6-2.1c5.1,0,9.2,0.6,12.4,1.8s5.5,2.7,7,4.5s2.6,4.1,3.2,6.9c0.3,1.7,0.5,4.8,0.5,9.3v13.5
	c0,9.4,0.2,15.4,0.6,17.9s1.3,4.9,2.6,7.2h-10.6C218.7,106.2,218,103.7,217.7,100.9z M216.8,78.3c-3.7,1.5-9.2,2.8-16.5,3.8
	c-4.2,0.6-7.1,1.3-8.8,2c-1.7,0.8-3.1,1.8-4,3.3c-0.9,1.4-1.4,3-1.4,4.8c0,2.7,1,5,3.1,6.8c2,1.8,5,2.7,9,2.7
	c3.9,0,7.4-0.9,10.4-2.6s5.3-4,6.7-7c1.1-2.3,1.6-5.7,1.6-10.1v-3.7L216.8,78.3z"/>
<path class="st0" d="M233,108.3l21.8-31.1l-20.2-28.7h12.7l9.2,14c1.7,2.7,3.1,4.9,4.2,6.7c1.7-2.5,3.2-4.7,4.6-6.6l10.1-14.1h12.1
	l-20.7,28.1l22.2,31.6h-12.4l-12.3-18.6l-3.3-5l-15.7,23.6L233,108.3L233,108.3z"/>
<path class="st0" d="M325.8,108.3V25.8H342l33.8,55.1V25.8h15.5v82.5h-16.7l-33.3-53.8v53.8H325.8z"/>
<path class="st0" d="M442.1,78V64H478v32.9c-3.5,3.4-8.5,6.4-15.2,8.9c-6.6,2.6-13.3,3.9-20.1,3.9c-8.6,0-16.2-1.8-22.6-5.4
	s-11.2-8.8-14.5-15.5c-3.2-6.7-4.8-14.1-4.8-22c0-8.6,1.8-16.2,5.4-22.9s8.9-11.8,15.8-15.4c5.3-2.7,11.9-4.1,19.8-4.1
	c10.2,0,18.2,2.1,24,6.4s9.5,10.2,11.1,17.8l-16.5,3.1c-1.2-4.1-3.3-7.3-6.6-9.6c-3.2-2.3-7.2-3.5-12-3.5c-7.3,0-13.1,2.3-17.4,6.9
	S418,57,418,66c0,9.8,2.2,17.1,6.5,22c4.4,4.9,10.1,7.3,17.1,7.3c3.5,0,7-0.7,10.5-2.1s6.5-3,9-5V78L442.1,78z"/>
</svg>
