<?xml version="1.0" encoding="utf-8"?>
<!-- Generator: Adobe Illustrator 24.3.0, SVG Export Plug-In . SVG Version: 6.00 Build 0)  -->
<svg version="1.1" id="rocksDB-logo" xmlns="http://www.w3.org/2000/svg" xmlns:xlink="http://www.w3.org/1999/xlink" x="0px" y="0px"
	 viewBox="0 0 606.7 796.7" style="enable-background:new 0 0 606.7 796.7;" xml:space="preserve">
<style type="text/css">
	.st0{fill:#0F2647;}
	.st1{fill:#FFBE00;}
	.st2{fill:#FFFFFF;}
</style>
<g>
	<path class="st0" d="M569,98.4c0-5.2-1.1-10.2-3.1-14.6c-4.8-13.3-17.5-22.9-32.3-22.9H73.1c-14.9,0-27.7,9.6-32.3,22.9
		c-2,4.5-3.1,9.5-3.1,14.7v457.9c0,4.9,1,9.5,2.8,13.8c4.4,13.8,17.4,23.9,32.7,23.9h460.5c15.2,0,28.1-10.1,32.7-23.8
		c1.8-4.3,2.8-9.1,2.8-14V98.4z"/>
	<path class="st1" d="M374.7,441.6l-59.2,1.4l-22.4,51.3L235,509.5l-36.4,33.2h293.1c15.2,0,27.6-12.4,27.6-27.6V369.5l-104,25.9
		L374.7,441.6z M161.2,445.9l-49.3,42.3c-0.4-3-1.7-6.1-3.8-8.6l-25.9,21.8c5.5,6.5,14.7,7.8,21.8,3.4l48.2-21.8L161.2,445.9z
		 M447.4,297.2l6,15.7c9.2-2.3,23.5-12.5,33.4-20.4c-0.3,2.8-0.2,5.5,0.8,8.2l31.8-11.7c-3.3-8.7-13-13.2-21.8-10
		c-0.2,0.1-0.6,0.2-0.8,0.4l0.1-0.1L447.4,297.2z M502.2,323.8h-0.2l-58.2-5l-13.3-34.9v-37c2.7,1.4,5.5,2.3,8.7,2.3
		c9.6,0,17.5-7.4,18.4-16.7l14-9.2l-0.7-18.7c-0.1-1.9-1.6-3.4-3.4-3.4L450,201c-3.7-5.1-10.4-7.3-16.4-4.5l-38.2,17.9
		c0.1,0.1,0.1,0.2,0.1,0.3c1.3,2.7,3.2,4.7,5.5,6.1c-46.6,24-66.3,56.6-66.3,56.6l-178,95.9c-10.4,5.5-23.5,1.7-29.1-8.7
		c-5.5-10.4-1.7-23.5,8.7-29.1l50.5-27.1c12.8-6.9,20.3-19.7,21.3-33.1l-30.2,16.3l-50.5,27.1c-19.7,10.6-27.1,35.3-16.6,55
		c7.3,13.6,21.4,21.4,35.9,21.4c6.5,0,13.1-1.6,19.2-4.9l22.8-12.3c-1.7,9-0.9,18.6,2.7,27.7c1.2,3.1,2,5,2,5
		c8.1,17.5-2.5,31.2-16.5,31.2h-4.4l-16.1,69.8c-2.1-2.2-4.9-3.9-8.1-4.7l-8,32.9c8.1,1.9,16.1-2.2,19.3-9.5l36.3-65.1
		c45.9-4.4,70.1-35.5,69-79.4c47.6,2.9,110.9-27,139.2-67.9c21.4,27.1,61.9,23.4,79.8,16.5l3.4-1.2c-1.3,2.3-2,5.1-2,8.1l33.9-0.3
		C519,331.1,511.5,323.7,502.2,323.8L502.2,323.8z M186.6,262.1c1.7,3.1,2.4,6.4,2.5,9.7l17.8-9.6c-0.8-3.1-1.9-6.2-3.5-9.2
		l-0.9-1.8l-16.8,9.1L186.6,262.1z M180.1,250.1l16.8-9.1l-2.2-4c-2.4-4.7-8.3-6.4-13-4c-4.7,2.4-6.4,8.3-4,13L180.1,250.1z"/>
	<path class="st0" d="M438.3,205.4c-3,0-5.4,2.4-5.4,5.5c0,3,2.4,5.5,5.4,5.5c3,0,5.5-2.4,5.5-5.5
		C443.8,207.9,441.3,205.4,438.3,205.4z M406.4,246.3c-1.3,0.8-2.1,1.8-2.1,1.8s2.3,2.7,5.1,2.7s5.1-2.7,5.1-2.7s-0.8-1-2.1-1.8
		c2-0.8,3.4-2.1,3.4-2.1s-1.3-1.3-3.4-2.1c1.3-0.8,2.1-1.8,2.1-1.8s-2.3-2.7-5.1-2.7s-5.1,2.7-5.1,2.7s0.8,1,2.1,1.8
		c-2,0.8-3.4,2.1-3.4,2.1S404.4,245.6,406.4,246.3z M387.9,253.1c0,0-2.3-2.7-5.1-2.7c-2.9,0-5.1,2.7-5.1,2.7s0.8,1,2.1,1.8
		c-2,0.8-3.4,2.1-3.4,2.1s1.3,1.3,3.4,2.1c-1.3,0.8-2.1,1.8-2.1,1.8s2.3,2.7,5.1,2.7c2.9,0,5.1-2.7,5.1-2.7s-0.8-1-2.1-1.8
		c2-0.8,3.4-2.1,3.4-2.1s-1.3-1.3-3.4-2.1C387.1,253.9,387.9,253.1,387.9,253.1z M412.3,279c0,0-0.8-1-2.1-1.8
		c2-0.8,3.4-2.1,3.4-2.1s-1.3-1.3-3.4-2.1c1.3-0.8,2.1-1.8,2.1-1.8s-2.3-2.7-5.1-2.7s-5.1,2.7-5.1,2.7s0.8,1,2.1,1.8
		c-2,0.8-3.4,2.1-3.4,2.1s1.3,1.3,3.4,2.1c-1.3,0.8-2.1,1.8-2.1,1.8s2.3,2.7,5.1,2.7S412.3,279,412.3,279z M384.6,288.2
		c1.3-0.8,2.1-1.8,2.1-1.8s-2.3-2.7-5.1-2.7s-5.1,2.7-5.1,2.7s0.8,1,2.1,1.8c-2,0.8-3.4,2.1-3.4,2.1s1.3,1.3,3.4,2.1
		c-1.3,0.8-2.1,1.8-2.1,1.8s2.3,2.7,5.1,2.7s5.1-2.7,5.1-2.7s-0.8-1-2.1-1.8c2-0.8,3.4-2.1,3.4-2.1S386.7,289,384.6,288.2z
		 M358.3,280.2c1.3-0.8,2.1-1.8,2.1-1.8s-2.3-2.7-5.1-2.7c-2.9,0-5.1,2.7-5.1,2.7s0.8,1,2.1,1.8c-2,0.8-3.4,2.1-3.4,2.1
		s1.3,1.3,3.4,2.1c-1.3,0.8-2.1,1.8-2.1,1.8s2.3,2.7,5.1,2.7c2.9,0,5.1-2.7,5.1-2.7s-0.8-1-2.1-1.8c2-0.8,3.4-2.1,3.4-2.1
		S360.4,281.1,358.3,280.2z M348.3,311.3c0,0-0.8-1-2.1-1.8c2-0.8,3.4-2.1,3.4-2.1s-1.3-1.3-3.4-2.1c1.3-0.8,2.1-1.8,2.1-1.8
		s-2.3-2.7-5.1-2.7c-2.9,0-5.1,2.7-5.1,2.7s0.8,1,2.1,1.8c-2,0.8-3.4,2.1-3.4,2.1s1.3,1.3,3.4,2.1c-1.3,0.8-2.1,1.8-2.1,1.8
		s2.3,2.7,5.1,2.7S348.3,311.3,348.3,311.3z M303.3,315.8c0,0,2.3,2.7,5.1,2.7s5.1-2.7,5.1-2.7s-0.8-1-2.1-1.8
		c2-0.8,3.4-2.1,3.4-2.1s-1.3-1.3-3.4-2.1c1.3-0.8,2.1-1.8,2.1-1.8s-2.3-2.7-5.1-2.7s-5.1,2.7-5.1,2.7s0.8,1,2.1,1.8
		c-2,0.8-3.4,2.1-3.4,2.1s1.3,1.3,3.4,2.1C304.1,315,303.3,315.8,303.3,315.8z M328,331.7c1.3-0.8,2.1-1.8,2.1-1.8s-2.3-2.7-5.1-2.7
		c-2.9,0-5.1,2.7-5.1,2.7s0.8,1,2.1,1.8c-2,0.8-3.4,2.1-3.4,2.1s1.3,1.3,3.4,2.1c-1.3,0.8-2.1,1.8-2.1,1.8s2.3,2.7,5.1,2.7
		c2.9,0,5.1-2.7,5.1-2.7s-0.8-1-2.1-1.8c2-0.8,3.4-2.1,3.4-2.1S330,332.3,328,331.7z M355.1,337.5c1.3-0.8,2.1-1.8,2.1-1.8
		s-2.3-2.7-5.1-2.7c-2.9,0-5.1,2.7-5.1,2.7s0.8,1,2.1,1.8c-2,0.8-3.4,2.1-3.4,2.1s1.3,1.3,3.4,2.1c-1.3,0.8-2.1,1.8-2.1,1.8
		s2.3,2.7,5.1,2.7c2.9,0,5.1-2.7,5.1-2.7s-0.8-1-2.1-1.8c2-0.8,3.4-2.1,3.4-2.1S357.1,338.4,355.1,337.5z M377.3,316.2
		c1.3-0.8,2.1-1.8,2.1-1.8s-2.3-2.7-5.1-2.7c-2.9,0-5.1,2.7-5.1,2.7s0.8,1,2.1,1.8c-2,0.8-3.4,2.1-3.4,2.1s1.3,1.3,3.4,2.1
		c-1.3,0.8-2.1,1.8-2.1,1.8s2.3,2.7,5.1,2.7c2.9,0,5.1-2.7,5.1-2.7s-0.8-1-2.1-1.8c2-0.8,3.4-2.1,3.4-2.1S379.3,316.9,377.3,316.2z
		 M416.9,298.3c1.3-0.8,2.1-1.8,2.1-1.8s-2.3-2.7-5.1-2.7s-5.1,2.7-5.1,2.7s0.8,1,2.1,1.8c-2,0.8-3.4,2.1-3.4,2.1s1.3,1.3,3.4,2.1
		c-1.3,0.8-2.1,1.8-2.1,1.8s2.3,2.7,5.1,2.7s5.1-2.7,5.1-2.7s-0.8-1-2.1-1.8c2-0.8,3.4-2.1,3.4-2.1S418.9,299,416.9,298.3z
		 M286.7,332c1.3-0.8,2.1-1.8,2.1-1.8s-2.3-2.7-5.1-2.7s-5.1,2.7-5.1,2.7s0.8,1,2.1,1.8c-2,0.8-3.4,2.1-3.4,2.1s1.3,1.3,3.4,2.1
		c-1.3,0.8-2.1,1.8-2.1,1.8s2.3,2.7,5.1,2.7s5.1-2.7,5.1-2.7s-0.8-1-2.1-1.8c2-0.8,3.4-2.1,3.4-2.1S288.7,332.8,286.7,332z
		 M313.1,358c1.3-0.8,2.1-1.8,2.1-1.8s-2.3-2.7-5.1-2.7s-5.1,2.7-5.1,2.7s0.8,1,2.1,1.8c-2,0.8-3.4,2.1-3.4,2.1s1.3,1.3,3.4,2.1
		c-1.3,0.8-2.1,1.8-2.1,1.8s2.3,2.7,5.1,2.7s5.1-2.7,5.1-2.7s-0.8-1-2.1-1.8c2-0.8,3.4-2.1,3.4-2.1S315.2,358.8,313.1,358z
		 M279.4,362.8c1.3-0.8,2.1-1.8,2.1-1.8s-2.3-2.7-5.1-2.7c-2.9,0-5.1,2.7-5.1,2.7s0.8,1,2.1,1.8c-2,0.8-3.4,2.1-3.4,2.1
		s1.3,1.3,3.4,2.1c-1.3,0.8-2.1,1.8-2.1,1.8s2.3,2.7,5.1,2.7c2.9,0,5.1-2.7,5.1-2.7s-0.8-1-2.1-1.8c2-0.8,3.4-2.1,3.4-2.1
		S281.5,363.6,279.4,362.8z M251.9,343.4c1.3-0.8,2.1-1.8,2.1-1.8s-2.3-2.7-5.1-2.7c-2.9,0-5.1,2.7-5.1,2.7s0.8,1,2.1,1.8
		c-2,0.8-3.4,2.1-3.4,2.1s1.3,1.3,3.4,2.1c-1.3,0.8-2.1,1.8-2.1,1.8s2.3,2.7,5.1,2.7c2.9,0,5.1-2.7,5.1-2.7s-0.8-1-2.1-1.8
		c2-0.8,3.4-2.1,3.4-2.1S254,344.2,251.9,343.4z M213,368.5c-1.3,0.8-2.1,1.8-2.1,1.8s2.3,2.7,5.1,2.7c2.8,0,5.1-2.7,5.1-2.7
		s-0.8-1-2.1-1.8c2-0.8,3.4-2.1,3.4-2.1s-1.3-1.3-3.4-2.1c1.3-0.8,2.1-1.8,2.1-1.8s-2.3-2.7-5.1-2.7c-2.8,0-5.1,2.7-5.1,2.7
		s0.8,1,2.1,1.8c-2,0.8-3.4,2.1-3.4,2.1S211,367.7,213,368.5z M248.1,377.8c1.3-0.8,2.1-1.8,2.1-1.8s-2.3-2.7-5.1-2.7
		c-2.9,0-5.1,2.7-5.1,2.7s0.8,1,2.1,1.8c-2,0.8-3.4,2.1-3.4,2.1s1.3,1.3,3.4,2.1c-1.3,0.8-2.1,1.8-2.1,1.8s2.3,2.7,5.1,2.7
		c2.9,0,5.1-2.7,5.1-2.7s-0.8-1-2.1-1.8c2-0.8,3.4-2.1,3.4-2.1S250.1,378.5,248.1,377.8z M242.3,406.4c1.3-0.8,2.1-1.8,2.1-1.8
		s-2.3-2.7-5.1-2.7c-2.9,0-5.1,2.7-5.1,2.7s0.8,1,2.1,1.8c-2,0.8-3.4,2.1-3.4,2.1s1.3,1.3,3.4,2.1c-1.3,0.8-2.1,1.8-2.1,1.8
		s2.3,2.7,5.1,2.7c2.9,0,5.1-2.7,5.1-2.7s-0.8-1-2.1-1.8c2-0.8,3.4-2.1,3.4-2.1S244.3,407.2,242.3,406.4z M215.6,402.2
		c0,0-0.8-1-2.1-1.8c2-0.8,3.4-2.1,3.4-2.1s-1.3-1.3-3.4-2.1c1.3-0.8,2.1-1.8,2.1-1.8s-2.3-2.7-5.1-2.7c-2.9,0-5.1,2.7-5.1,2.7
		s0.8,1,2.1,1.8c-2,0.8-3.4,2.1-3.4,2.1s1.3,1.3,3.4,2.1c-1.3,0.8-2.1,1.8-2.1,1.8s2.3,2.7,5.1,2.7
		C213.2,405,215.6,402.2,215.6,402.2z M222.5,429.2c1.3-0.8,2.1-1.8,2.1-1.8s-2.3-2.7-5.1-2.7c-2.9,0-5.1,2.7-5.1,2.7s0.8,1,2.1,1.8
		c-2,0.8-3.4,2.1-3.4,2.1s1.3,1.3,3.4,2.1c-1.3,0.8-2.1,1.8-2.1,1.8s2.3,2.7,5.1,2.7c2.9,0,5.1-2.7,5.1-2.7s-0.8-1-2.1-1.8
		c2-0.8,3.4-2.1,3.4-2.1S224.6,430,222.5,429.2z"/>
	<g>
		<path class="st2" d="M115,734.6h-11.7c-2.4,0-4.2-1-5.3-3l-25.3-37.9c-0.8-1.2-1.6-2-2.5-2.6c-0.9-0.5-2.3-0.8-4.1-0.8H56v44.3
			H42.9v-106h27.6c6.2,0,11.5,0.7,16,2c4.5,1.4,8.2,3.3,11.1,5.9c2.9,2.6,5.1,5.7,6.5,9.3c1.4,3.6,2.1,7.7,2.1,12.2
			c0,3.8-0.5,7.3-1.6,10.5s-2.7,6.2-4.7,8.8c-2.1,2.6-4.6,4.8-7.6,6.6c-3,1.8-6.3,3.2-10.1,4.1c1.7,1,3.1,2.5,4.4,4.5L115,734.6z
			 M69.9,680c3.8,0,7.2-0.5,10.1-1.5c2.9-1,5.4-2.4,7.4-4.3c2-1.8,3.5-4.1,4.5-6.6c1-2.6,1.5-5.4,1.5-8.5c0-6.3-1.9-11.1-5.7-14.3
			c-3.8-3.2-9.5-4.8-17.2-4.8H56v40H69.9z"/>
		<path class="st2" d="M150,658.5c5,0,9.6,0.9,13.6,2.7c4,1.8,7.5,4.4,10.3,7.8c2.9,3.4,5,7.4,6.6,12.2c1.5,4.8,2.3,10.1,2.3,15.9
			c0,5.9-0.8,11.2-2.3,16c-1.5,4.7-3.7,8.8-6.6,12.1c-2.9,3.4-6.3,5.9-10.3,7.7c-4,1.8-8.6,2.7-13.6,2.7c-5.1,0-9.7-0.9-13.7-2.7
			c-4.1-1.8-7.5-4.4-10.4-7.7c-2.9-3.4-5-7.4-6.6-12.1c-1.5-4.7-2.3-10.1-2.3-16c0-5.9,0.8-11.2,2.3-15.9c1.5-4.8,3.7-8.8,6.6-12.2
			c2.9-3.4,6.3-5.9,10.4-7.8C140.3,659.4,144.9,658.5,150,658.5z M150,725.4c6.8,0,11.9-2.5,15.2-7.4c3.4-5,5-11.9,5-20.8
			c0-8.9-1.7-15.9-5-20.9c-3.4-5-8.4-7.5-15.2-7.5c-3.4,0-6.5,0.6-9,1.9c-2.6,1.3-4.7,3.1-6.4,5.6c-1.7,2.4-3,5.4-3.8,8.9
			c-0.8,3.5-1.3,7.5-1.3,12c0,8.9,1.7,15.8,5.1,20.8C138,722.9,143.1,725.4,150,725.4z"/>
		<path class="st2" d="M246.1,673c-0.4,0.5-0.7,1-1.1,1.3c-0.4,0.3-0.9,0.4-1.5,0.4c-0.7,0-1.4-0.3-2.2-0.9c-0.8-0.6-1.8-1.3-3-2
			c-1.2-0.7-2.7-1.4-4.4-2c-1.7-0.6-3.9-0.9-6.4-0.9c-3.4,0-6.4,0.7-9,2c-2.6,1.3-4.8,3.2-6.5,5.7c-1.7,2.5-3.1,5.5-3.9,9
			c-0.9,3.5-1.3,7.4-1.3,11.8c0,4.5,0.5,8.6,1.4,12.1c1,3.5,2.3,6.5,4.1,8.9c1.7,2.4,3.9,4.2,6.3,5.5c2.5,1.3,5.3,1.9,8.3,1.9
			c3,0,5.4-0.4,7.3-1.1c1.9-0.8,3.5-1.6,4.7-2.6c1.2-0.9,2.3-1.8,3.1-2.6c0.8-0.8,1.7-1.1,2.5-1.1c1,0,1.8,0.4,2.3,1.3l3.4,4.8
			c-1.5,2-3.2,3.8-5.1,5.2c-1.9,1.4-4,2.6-6.2,3.6c-2.2,1-4.5,1.7-6.9,2.1c-2.4,0.4-4.9,0.7-7.4,0.7c-4.3,0-8.3-0.9-12-2.6
			c-3.7-1.7-6.9-4.2-9.6-7.5c-2.7-3.3-4.9-7.3-6.4-12.1c-1.5-4.8-2.3-10.2-2.3-16.4c0-5.6,0.7-10.7,2.1-15.5
			c1.4-4.7,3.5-8.8,6.3-12.2c2.7-3.4,6.1-6.1,10.1-8s8.6-2.9,13.9-2.9c4.9,0,9.1,0.9,12.8,2.6c3.7,1.7,7,4.1,9.8,7.2L246.1,673z"/>
		<path class="st2" d="M275.3,625.6v64.2h3.1c0.9,0,1.7-0.1,2.3-0.4c0.6-0.3,1.3-0.8,1.9-1.7l21.8-25.4c0.6-0.8,1.3-1.5,2-2
			c0.7-0.5,1.6-0.7,2.8-0.7h11l-25.4,29.4c-1.2,1.7-2.5,3-3.9,3.9c0.8,0.6,1.6,1.3,2.2,2c0.7,0.8,1.3,1.6,1.9,2.6l27,37h-10.8
			c-1,0-1.9-0.2-2.7-0.6s-1.4-1-1.9-2l-22.7-30.7c-0.7-1-1.4-1.7-2-2c-0.7-0.3-1.7-0.5-3-0.5h-3.5v35.8h-12.2v-109H275.3z"/>
		<path class="st2" d="M372.5,672c-0.5,1.1-1.4,1.6-2.5,1.6c-0.7,0-1.5-0.3-2.3-0.8c-0.9-0.5-1.9-1.1-3.2-1.8s-2.7-1.3-4.5-1.9
			c-1.7-0.6-3.8-0.9-6.1-0.9c-2,0-3.9,0.3-5.5,0.9c-1.6,0.6-3,1.3-4.2,2.3c-1.2,1-2,2.1-2.7,3.4c-0.6,1.3-0.9,2.7-0.9,4.3
			c0,1.9,0.5,3.5,1.5,4.8c1,1.3,2.4,2.4,4.1,3.3c1.7,0.9,3.6,1.8,5.7,2.5c2.1,0.7,4.3,1.5,6.6,2.3c2.2,0.8,4.4,1.7,6.6,2.7
			c2.1,1,4,2.2,5.7,3.7c1.7,1.5,3,3.3,4.1,5.4c1,2.1,1.5,4.7,1.5,7.7c0,3.5-0.6,6.6-1.7,9.6c-1.1,2.9-2.8,5.5-5,7.6
			c-2.2,2.1-4.9,3.8-8.2,5.1s-6.9,1.8-11.2,1.8c-4.8,0-9.2-0.9-13.1-2.6c-3.9-1.7-7.2-3.9-9.9-6.5l2.9-5c0.4-0.6,0.8-1.1,1.3-1.5
			c0.5-0.3,1.1-0.5,1.9-0.5c0.8,0,1.7,0.3,2.6,1c0.9,0.7,2,1.5,3.3,2.3c1.3,0.8,2.9,1.6,4.7,2.3c1.9,0.7,4.2,1,6.9,1
			c2.4,0,4.4-0.3,6.2-1c1.8-0.7,3.2-1.6,4.4-2.7c1.2-1.1,2.1-2.4,2.6-3.9c0.6-1.5,0.9-3.1,0.9-4.7c0-2.1-0.5-3.8-1.5-5.1
			c-1-1.4-2.4-2.5-4.1-3.5c-1.7-1-3.6-1.8-5.8-2.5c-2.2-0.7-4.4-1.5-6.6-2.3c-2.2-0.8-4.4-1.7-6.6-2.7c-2.2-1-4.1-2.3-5.8-3.8
			c-1.7-1.5-3-3.4-4.1-5.7c-1-2.2-1.5-5-1.5-8.2c0-2.9,0.5-5.6,1.6-8.3c1.1-2.6,2.7-5,4.8-7c2.1-2,4.7-3.6,7.7-4.8
			c3-1.2,6.5-1.8,10.4-1.8c4.5,0,8.6,0.8,12.2,2.3c3.6,1.6,6.7,3.7,9.4,6.4L372.5,672z"/>
		<path class="st2" d="M476.7,681.7c0,7.9-1.2,15.2-3.5,21.7c-2.3,6.5-5.6,12.1-9.8,16.7c-4.2,4.6-9.3,8.2-15.2,10.8
			s-12.5,3.8-19.6,3.8h-36.4v-106h36.4c7.2,0,13.7,1.3,19.6,3.8c5.9,2.5,11,6.1,15.2,10.8s7.5,10.2,9.8,16.8
			S476.7,673.7,476.7,681.7z M463.2,681.7c0-6.5-0.8-12.3-2.5-17.5c-1.6-5.1-3.9-9.5-6.9-13c-3-3.6-6.6-6.3-10.9-8.1
			c-4.3-1.9-9-2.8-14.3-2.8h-23.2V723h23.2c5.3,0,10-0.9,14.3-2.8c4.3-1.9,7.9-4.6,10.9-8.1c3-3.5,5.3-7.9,6.9-13
			C462.3,694,463.2,688.2,463.2,681.7z"/>
		<path class="st2" d="M526.8,628.6c6,0,11.2,0.6,15.5,1.9c4.3,1.3,7.9,3.1,10.7,5.5c2.8,2.4,4.8,5.3,6.2,8.7c1.3,3.4,2,7.3,2,11.6
			c0,2.6-0.4,5.1-1.1,7.5c-0.7,2.4-1.9,4.6-3.4,6.7c-1.5,2.1-3.4,3.9-5.7,5.6c-2.3,1.7-5,3-8.1,4c7.2,1.5,12.6,4.3,16.2,8.3
			c3.6,4.1,5.4,9.4,5.4,16c0,4.5-0.8,8.6-2.3,12.3s-3.7,6.9-6.7,9.5c-2.9,2.7-6.5,4.7-10.8,6.2c-4.3,1.5-9.1,2.2-14.6,2.2h-34.4
			v-106H526.8z M508.8,639.9v36.2h17.4c3.7,0,7-0.4,9.7-1.3c2.7-0.9,5-2.1,6.8-3.7c1.8-1.6,3.1-3.5,4-5.7c0.9-2.2,1.3-4.7,1.3-7.4
			c0-6.3-1.7-10.8-5.2-13.7c-3.4-2.9-8.8-4.3-16.1-4.3H508.8z M529.9,723.2c3.8,0,7-0.5,9.7-1.4c2.7-0.9,5-2.3,6.7-4
			c1.7-1.7,3-3.7,3.8-6.1c0.8-2.3,1.2-4.9,1.2-7.7c0-5.5-1.8-9.8-5.4-13c-3.6-3.2-9-4.8-16.1-4.8h-21.1v36.9H529.9z"/>
	</g>
</g>
</svg>
