<?xml version="1.0" encoding="utf-8"?>
<!-- Generator: Adobe Illustrator 24.3.0, SVG Export Plug-In . SVG Version: 6.00 Build 0)  -->
<svg version="1.1" id="scala-logo-white" xmlns="http://www.w3.org/2000/svg" xmlns:xlink="http://www.w3.org/1999/xlink" x="0px" y="0px"
	 viewBox="0 0 106 104.2" style="enable-background:new 0 0 106 104.2;" xml:space="preserve">
<style type="text/css">
	.st0{fill:url(#SVGID_1_);}
	.st1{fill:url(#SVGID_2_);}
	.st2{fill:url(#SVGID_3_);}
	.st3{fill:url(#SVGID_4_);}
	.st4{fill:url(#SVGID_5_);}
	.st5{fill:#FFFFFF;}
</style>
<g>
	<g>

			<linearGradient id="SVGID_1_" gradientUnits="userSpaceOnUse" x1="-1804.7795" y1="-7.368" x2="-1804.6482" y2="-7.368" gradientTransform="matrix(256 0 0 -96 462060 -663.0234)">
			<stop  offset="0" style="stop-color:#4F4F4F"/>
			<stop  offset="1" style="stop-color:#000000"/>
		</linearGradient>
		<path class="st0" d="M36.4,42.2v4.2c0,0.7,15.3,1.9,25.3,4.2l0,0c4.8-1.1,8.4-2.5,8.4-4.2l0,0v-4.2c0-1.7-3.6-3.1-8.4-4.2l0,0
			C51.7,40.3,36.4,41.5,36.4,42.2"/>

			<linearGradient id="SVGID_2_" gradientUnits="userSpaceOnUse" x1="-1804.7795" y1="-8.5263" x2="-1804.6482" y2="-8.5263" gradientTransform="matrix(256 0 0 -96 462060 -791.0234)">
			<stop  offset="0" style="stop-color:#4F4F4F"/>
			<stop  offset="1" style="stop-color:#000000"/>
		</linearGradient>
		<path class="st1" d="M36.4,25.4v4.2c0,0.7,15.3,1.9,25.3,4.2l0,0c4.8-1.1,8.4-2.5,8.4-4.2l0,0v-4.2c0-1.7-3.6-3.1-8.4-4.2l0,0
			C51.7,23.5,36.4,24.7,36.4,25.4"/>

			<linearGradient id="SVGID_3_" gradientUnits="userSpaceOnUse" x1="-1804.7795" y1="-4.6063" x2="-1804.6482" y2="-4.6063" gradientTransform="matrix(256 0 0 -160 462060 -701.1016)">
			<stop  offset="0" style="stop-color:#C40000"/>
			<stop  offset="1" style="stop-color:#FF0000"/>
		</linearGradient>
		<path class="st2" d="M36.4,33.8v12.6c0-1.1,33.6-3.2,33.6-8.4l0,0V25.4C70.1,30.6,36.4,32.7,36.4,33.8"/>

			<linearGradient id="SVGID_4_" gradientUnits="userSpaceOnUse" x1="-1804.7795" y1="-5.3013" x2="-1804.6482" y2="-5.3013" gradientTransform="matrix(256 0 0 -160 462060 -829.1016)">
			<stop  offset="0" style="stop-color:#C40000"/>
			<stop  offset="1" style="stop-color:#FF0000"/>
		</linearGradient>
		<path class="st3" d="M36.4,17v12.6c0-1.1,33.6-3.2,33.6-8.4l0,0V8.6C70.1,13.8,36.4,15.9,36.4,17"/>

			<linearGradient id="SVGID_5_" gradientUnits="userSpaceOnUse" x1="-1804.7795" y1="-3.9113" x2="-1804.6482" y2="-3.9113" gradientTransform="matrix(256 0 0 -160 462060 -573.1016)">
			<stop  offset="0" style="stop-color:#C40000"/>
			<stop  offset="1" style="stop-color:#FF0000"/>
		</linearGradient>
		<path class="st4" d="M36.4,50.6v12.6c0-1.1,33.6-3.2,33.6-8.4l0,0V42.2C70.1,47.4,36.4,49.5,36.4,50.6"/>
	</g>
	<g>
		<path class="st5" d="M9.2,88.9c1.6,0.8,4.2,1.7,6.8,1.7c2.8,0,4.3-1.2,4.3-2.9c0-1.7-1.3-2.7-4.5-3.8c-4.5-1.6-7.4-4.1-7.4-8
			c0-4.6,3.9-8.2,10.3-8.2c3.1,0,5.3,0.6,6.9,1.4L24.1,74c-1.1-0.5-3-1.3-5.7-1.3s-3.9,1.2-3.9,2.6c0,1.7,1.5,2.5,5,3.8
			c4.8,1.8,7,4.3,7,8.1c0,4.5-3.5,8.4-10.9,8.4c-3.1,0-6.2-0.8-7.7-1.6L9.2,88.9z"/>
		<path class="st5" d="M45.5,94.7c-1.1,0.5-3.1,0.9-5.5,0.9c-6.4,0-10.4-3.9-10.4-10.1c0-5.7,3.9-10.5,11.3-10.5
			c1.6,0,3.4,0.3,4.7,0.8l-1,4.5c-0.7-0.3-1.8-0.6-3.4-0.6c-3.2,0-5.3,2.3-5.3,5.5c0,3.6,2.4,5.5,5.4,5.5c1.4,0,2.6-0.2,3.5-0.6
			L45.5,94.7z"/>
		<path class="st5" d="M60.3,95.2l-0.4-2h-0.1c-1.3,1.6-3.3,2.4-5.6,2.4c-4,0-6.4-2.9-6.4-6c0-5.1,4.6-7.6,11.5-7.5v-0.3
			c0-1-0.6-2.5-3.6-2.5c-2,0-4.1,0.7-5.4,1.5l-1.1-3.9c1.4-0.8,4.1-1.7,7.6-1.7c6.6,0,8.6,3.9,8.6,8.5v6.8c0,1.9,0.1,3.7,0.3,4.8
			h-5.4V95.2z M59.5,85.9c-3.2,0-5.7,0.7-5.7,3.1c0,1.6,1,2.3,2.4,2.3c1.5,0,2.8-1,3.2-2.3c0.1-0.3,0.1-0.7,0.1-1V85.9z"/>
		<path class="st5" d="M70.3,66.6h6.1v28.5h-6.1V66.6z"/>
		<path class="st5" d="M92.5,95.2l-0.4-2H92c-1.3,1.6-3.3,2.4-5.6,2.4c-4,0-6.4-2.9-6.4-6c0-5.1,4.6-7.6,11.5-7.5v-0.3
			c0-1-0.6-2.5-3.6-2.5c-2,0-4.1,0.7-5.4,1.5l-1.1-3.9c1.4-0.8,4.1-1.7,7.6-1.7c6.6,0,8.6,3.9,8.6,8.5v6.8c0,1.9,0.1,3.7,0.3,4.8
			h-5.4V95.2z M91.8,85.9c-3.2,0-5.7,0.7-5.7,3.1c0,1.6,1,2.3,2.4,2.3c1.5,0,2.8-1,3.2-2.3c0.1-0.3,0.1-0.7,0.1-1V85.9z"/>
	</g>
</g>
</svg>
