<?xml version="1.0" encoding="utf-8"?>
<!-- Generator: Adobe Illustrator 24.2.3, SVG Export Plug-In . SVG Version: 6.00 Build 0)  -->
<svg version="1.1" id="schema.org-logo" xmlns="http://www.w3.org/2000/svg" xmlns:xlink="http://www.w3.org/1999/xlink" x="0px" y="0px"
	 viewBox="0 0 1200 800" style="enable-background:new 0 0 1200 800;" xml:space="preserve">
<style type="text/css">
	.st0{fill:#990000;}
	.st1{fill:#510000;}
	.st2{fill:#FFFFFF;}
</style>
<path class="st0" d="M138.5,298.5h923.1v203.1H138.5V298.5z"/>
<path class="st1" d="M203.7,427c0.4,3.7,1.4,6.4,2.8,7.9c2.5,2.8,7.3,4.2,14.3,4.2c4.1,0,7.4-0.6,9.8-1.8c2.4-1.2,3.6-3,3.6-5.5
	c0-2.3-1-4.1-2.9-5.3c-2-1.2-9.2-3.3-21.7-6.3c-9-2.2-15.4-5-19.1-8.4c-3.7-3.3-5.6-8-5.5-14.3c0-7.3,2.9-13.6,8.7-19
	c5.7-5.3,13.9-7.9,24.3-7.9c9.9,0,18,2,24.3,5.9c6.2,4,9.8,10.9,10.7,20.6h-20.8c-0.3-2.7-1-4.8-2.3-6.4c-2.3-2.8-6.2-4.2-11.7-4.2
	c-4.5,0-7.7,0.8-9.6,2.1c-2,1.4-3,3.1-2.9,5c0,2.4,1,4.2,3.1,5.2c2,1.2,9.3,3.1,21.7,5.8c8.2,2,14.4,4.9,18.6,8.8
	c4.1,4,6.1,9,6.1,15c0,7.9-2.9,14.3-8.8,19.3c-5.9,5.1-15,7.6-27.2,7.5c-12.6,0-21.8-2.6-27.7-8c-6-5.3-9-12-9-20.2H203.7z"/>
<path class="st2" d="M203.7,414.5c0.4,3.7,1.4,6.4,2.8,7.9c2.5,2.8,7.3,4.2,14.3,4.2c4.1,0,7.4-0.6,9.8-1.8c2.4-1.2,3.6-3,3.6-5.5
	c0-2.3-1-4.1-2.9-5.3c-2-1.2-9.2-3.3-21.7-6.3c-9-2.2-15.4-5-19.1-8.4c-3.7-3.3-5.6-8-5.5-14.3c0-7.3,2.9-13.6,8.7-19
	c5.7-5.3,13.9-7.9,24.3-7.9c9.9,0,18,2,24.3,5.9c6.2,4,9.8,10.9,10.7,20.6h-20.8c-0.3-2.7-1-4.8-2.3-6.4c-2.3-2.8-6.2-4.2-11.7-4.2
	c-4.5,0-7.7,0.8-9.6,2.1c-2,1.4-3,3.1-2.9,5c0,2.4,1,4.2,3.1,5.2c2,1.2,9.3,3.1,21.7,5.8c8.2,2,14.4,4.9,18.6,8.8
	c4.1,4,6.1,9,6.1,15c0,7.9-2.9,14.3-8.8,19.3c-5.9,5.1-15,7.6-27.2,7.5c-12.6,0-21.8-2.6-27.7-8c-6-5.3-9-12-9-20.2H203.7z"/>
<path class="st1" d="M315.8,399.5c-0.4-2.9-1.4-5.6-3-8c-2.4-3.2-6-4.8-10.9-4.8c-7.1,0-11.9,3.5-14.4,10.4c-1.4,3.7-2.1,8.7-2,14.8
	c0,5.8,0.6,10.5,2,14.1c2.5,6.7,7.2,10,14,9.9c4.9,0,8.3-1.3,10.4-3.9c2-2.6,3.3-6,3.7-10.2h21.2c-0.5,6.4-2.8,12.4-6.9,18
	c-6.6,9.2-16.2,13.7-29,13.7c-12.8,0-22.2-3.8-28.3-11.4c-6.1-7.6-9.1-17.5-9.1-29.6c0-13.6,3.3-24.3,10-31.9
	c6.6-7.6,15.8-11.4,27.6-11.4c10,0,18.2,2.3,24.5,6.7c6.3,4.5,10.1,12.4,11.2,23.7H315.8z"/>
<path class="st2" d="M315.8,387.1c-0.4-2.9-1.4-5.6-3-8c-2.4-3.2-6-4.8-10.9-4.8c-7.1,0-11.9,3.5-14.4,10.4c-1.4,3.7-2.1,8.7-2,14.8
	c0,5.8,0.6,10.5,2,14.1c2.5,6.7,7.2,10,14,9.9c4.9,0,8.3-1.3,10.4-3.9c2-2.6,3.3-6,3.7-10.2h21.2c-0.5,6.4-2.8,12.4-6.9,18
	c-6.6,9.2-16.2,13.7-29,13.7c-12.8,0-22.2-3.8-28.3-11.4c-6.1-7.6-9.1-17.5-9.1-29.6c0-13.6,3.3-24.3,10-31.9
	c6.6-7.6,15.8-11.4,27.6-11.4c10,0,18.2,2.3,24.5,6.7c6.3,4.5,10.1,12.4,11.2,23.7H315.8z"/>
<path class="st1" d="M410.2,373.3c4,1.7,7.3,4.3,9.9,7.8c2.1,3,3.5,6.1,4,9.1c0.5,3.2,0.7,8.3,0.7,15.4v46.7h-21.2V404
	c0-4.3-0.7-7.7-2.2-10.4c-1.9-3.7-5.5-5.5-10.8-5.5c-5.5,0-9.7,1.8-12.5,5.5c-2.9,3.7-4.3,9-4.3,15.8v43.1H353V345.2h20.7v38
	c3-4.6,6.5-7.8,10.5-9.7c3.9-1.8,8.1-2.7,12.5-2.7C401.6,370.8,406.1,371.7,410.2,373.3z"/>
<path class="st2" d="M410.2,360.9c4,1.7,7.3,4.3,9.9,7.8c2.1,3,3.5,6.1,4,9.1c0.5,3.2,0.7,8.3,0.7,15.4V440h-21.2v-48.4
	c0-4.3-0.7-7.7-2.2-10.4c-1.9-3.7-5.5-5.5-10.8-5.5c-5.5,0-9.7,1.8-12.5,5.5c-2.9,3.7-4.3,9-4.3,15.8V440H353V332.7h20.7v38
	c3-4.6,6.5-7.8,10.5-9.7c3.9-1.8,8.1-2.7,12.5-2.7C401.6,358.4,406.1,359.2,410.2,360.9z"/>
<path class="st1" d="M468.7,392.4c-2.7,3-4.4,7.1-5,12.3h32.3c-0.4-5.5-2-9.6-5-12.6c-3-2.8-6.7-4.2-11.2-4.2
	C475.1,387.9,471.4,389.4,468.7,392.4z M497.8,374.4c5.3,2.5,9.7,6.5,13.1,11.8c3.1,4.8,5.1,10.2,6.1,16.4c0.5,3.7,0.7,8.9,0.7,15.8
	h-54.5c0.2,8,2.7,13.6,7.5,16.8c2.8,2,6.3,3,10.4,3c4.2,0,7.7-1.2,10.4-3.6c1.5-1.3,2.8-3.1,3.9-5.5h21.3c-0.5,4.8-3,9.6-7.4,14.4
	c-6.8,7.7-16.4,11.6-28.6,11.6c-10.2,0-19.1-3.3-26.8-9.8c-7.7-6.5-11.6-17.1-11.6-31.8c0-13.7,3.5-24.3,10.5-31.7
	c6.9-7.4,16-11,27.2-11C486.5,370.7,492.5,372,497.8,374.4L497.8,374.4z"/>
<path class="st2" d="M468.7,379.9c-2.7,3-4.4,7.1-5,12.3h32.3c-0.4-5.5-2-9.6-5-12.6c-3-2.8-6.7-4.2-11.2-4.2
	C475.1,375.5,471.4,377,468.7,379.9z M497.8,362c5.3,2.5,9.7,6.4,13.1,11.8c3.1,4.8,5.1,10.2,6.1,16.4c0.5,3.7,0.7,8.9,0.7,15.8
	h-54.5c0.2,8,2.7,13.6,7.5,16.8c2.8,2,6.3,3,10.4,3c4.2,0,7.7-1.2,10.4-3.7c1.5-1.3,2.8-3.1,3.9-5.5h21.3c-0.5,4.8-3,9.6-7.4,14.4
	c-6.8,7.7-16.4,11.6-28.6,11.6c-10.2,0-19.1-3.3-26.8-9.8c-7.7-6.5-11.6-17.1-11.6-31.8c0-13.7,3.5-24.3,10.5-31.7
	c6.9-7.4,16-11,27.2-11C486.5,358.3,492.5,359.5,497.8,362L497.8,362z"/>
<path class="st1" d="M631.2,373.1c3.4,1.4,6.5,3.8,9.3,7.2c2.2,2.8,3.7,6.2,4.5,10.2c0.5,2.7,0.7,6.6,0.7,11.8l-0.1,50.2h-21.3
	v-50.7c0-3-0.5-5.5-1.5-7.4c-1.8-3.7-5.3-5.5-10.2-5.5c-5.8,0-9.8,2.4-11.9,7.2c-1.1,2.6-1.7,5.6-1.7,9.1v47.4h-21V405
	c0-4.7-0.5-8.2-1.5-10.3c-1.8-3.8-5.2-5.8-10.3-5.8c-5.9,0-9.9,1.9-12,5.8c-1.1,2.2-1.7,5.5-1.7,9.8v47.9h-21.1V373h20.2v11.6
	c2.5-4.1,5-7.1,7.3-8.8c4-3.1,9.2-4.7,15.7-4.7c6,0,11,1.3,14.8,4c3,2.5,5.3,5.7,6.9,9.6c2.7-4.7,6.1-8.1,10.2-10.3
	c4.3-2.2,9.1-3.3,14.3-3.3C624.3,371.1,627.7,371.8,631.2,373.1L631.2,373.1z"/>
<path class="st2" d="M631.2,360.7c3.4,1.4,6.5,3.8,9.3,7.2c2.2,2.8,3.7,6.2,4.5,10.2c0.5,2.7,0.7,6.6,0.7,11.8l-0.1,50.2h-21.3
	v-50.7c0-3-0.5-5.5-1.5-7.4c-1.8-3.7-5.3-5.6-10.2-5.6c-5.8,0-9.8,2.4-11.9,7.2c-1.1,2.6-1.7,5.6-1.7,9.1V440h-21v-47.4
	c0-4.7-0.5-8.2-1.5-10.3c-1.8-3.8-5.2-5.8-10.3-5.8c-5.9,0-9.9,1.9-12,5.8c-1.1,2.2-1.7,5.5-1.7,9.8V440h-21.1v-79.4h20.2v11.6
	c2.5-4.1,5-7.1,7.3-8.8c4-3.1,9.2-4.7,15.7-4.7c6,0,11,1.3,14.8,4c3,2.5,5.3,5.7,6.9,9.6c2.7-4.7,6.1-8.1,10.2-10.3
	c4.3-2.2,9.1-3.3,14.3-3.3C624.3,358.6,627.7,359.3,631.2,360.7L631.2,360.7z"/>
<path class="st1" d="M710.6,413.7c-1.3,0.8-2.6,1.5-3.9,2c-1.4,0.5-3.3,1-5.5,1.5l-4.7,0.9c-4.4,0.8-7.5,1.8-9.4,2.8
	c-3.2,1.9-4.8,4.8-4.8,8.8c0,3.6,1,6.2,3,7.7c1.9,1.6,4.3,2.4,7.2,2.4c4.4,0,8.6-1.3,12.4-3.9c3.7-2.6,5.6-7.4,5.8-14.4L710.6,413.7
	z M698,404c3.8-0.5,6.5-1.1,8.3-1.8c3-1.2,4.5-3.2,4.5-5.9c0-3.3-1.1-5.5-3.4-6.8c-2.3-1.2-5.6-1.8-10-1.8c-4.9,0-8.4,1.3-10.4,3.7
	c-1.5,1.8-2.4,4.3-2.9,7.3h-20.1c0.4-6.9,2.4-12.6,5.8-17.2c5.5-7,14.9-10.5,28.3-10.5c8.7,0,16.4,1.8,23.2,5.2
	c6.8,3.5,10.2,10,10.2,19.6v36.5c0,2.6,0,5.6,0.1,9.2c0.1,2.8,0.6,4.6,1.2,5.5c0.6,1,1.7,1.8,3.1,2.4v3.1h-22.6
	c-0.7-1.6-1.1-3.1-1.3-4.5c-0.2-1.4-0.4-3-0.6-4.8c-2.9,3.2-6.2,5.8-9.9,8c-4.5,2.6-9.6,3.9-15.2,3.9c-7.3,0-13.2-2-17.8-6.2
	c-4.8-4.1-7.1-9.9-7.1-17.5c0-9.8,3.8-16.9,11.3-21.2c4.1-2.4,10.2-4.1,18.3-5.1L698,404z"/>
<path class="st2" d="M710.6,401.2c-1.3,0.8-2.6,1.5-3.9,2c-1.4,0.5-3.3,1-5.5,1.5l-4.7,0.9c-4.4,0.8-7.5,1.8-9.4,2.8
	c-3.2,1.9-4.8,4.8-4.8,8.8c0,3.6,1,6.2,3,7.7c1.9,1.6,4.3,2.4,7.2,2.4c4.4,0,8.6-1.3,12.4-3.9c3.7-2.6,5.6-7.4,5.8-14.4L710.6,401.2
	z M698,391.5c3.8-0.5,6.5-1.1,8.3-1.8c3-1.2,4.5-3.2,4.5-5.9c0-3.3-1.1-5.5-3.4-6.8c-2.3-1.2-5.6-1.8-10-1.8
	c-4.9,0-8.4,1.3-10.4,3.7c-1.5,1.8-2.4,4.3-2.9,7.3h-20.1c0.4-6.9,2.4-12.6,5.8-17.2c5.5-7,14.9-10.5,28.3-10.5
	c8.7,0,16.4,1.8,23.2,5.2c6.8,3.5,10.2,10,10.2,19.6v36.5c0,2.6,0,5.6,0.1,9.2c0.1,2.8,0.6,4.6,1.2,5.5c0.6,1,1.7,1.8,3.1,2.4v3.1
	h-22.6c-0.7-1.6-1.1-3.1-1.3-4.5c-0.2-1.4-0.4-3-0.6-4.8c-2.9,3.2-6.2,5.8-9.9,8c-4.5,2.6-9.6,3.9-15.2,3.9c-7.3,0-13.2-2-17.8-6.2
	c-4.8-4.1-7.1-9.9-7.1-17.5c0-9.8,3.8-16.9,11.3-21.3c4.1-2.4,10.2-4.1,18.3-5.1L698,391.5z"/>
<path class="st1" d="M750.6,430.7h22.1v21.8h-22.1V430.7z"/>
<path class="st2" d="M750.6,418.2h22.1V440h-22.1V418.2z"/>
<path class="st1" d="M853.9,431.2c3.3-4.3,4.9-10.4,4.9-18.5c0-7.9-1.6-14.1-4.9-18.5c-3.3-4.3-8-6.4-14-6.4c-6.1,0-10.8,2.1-14,6.4
	c-3.3,4.4-5,10.5-5,18.5c0,8,1.7,14.2,5,18.5c3.3,4.3,7.9,6.5,14,6.5C845.9,437.7,850.6,435.6,853.9,431.2z M870.5,442.7
	c-6.8,8.3-17,12.5-30.6,12.5c-13.7,0-23.9-4.2-30.6-12.5c-6.7-8.2-10.1-18.2-10.1-29.9c0-11.4,3.4-21.4,10.1-29.9
	c6.7-8.4,16.9-12.6,30.6-12.6c13.6,0,23.8,4.3,30.6,12.6c6.7,8.5,10.1,18.4,10.1,29.9C880.6,424.5,877.2,434.5,870.5,442.7z"/>
<path class="st2" d="M853.9,418.8c3.3-4.3,4.9-10.4,4.9-18.5c0-7.9-1.6-14.1-4.9-18.5c-3.3-4.3-8-6.4-14-6.4c-6.1,0-10.8,2.1-14,6.4
	c-3.3,4.4-5,10.5-5,18.5c0,8,1.7,14.2,5,18.5c3.3,4.3,7.9,6.5,14,6.5C845.9,425.3,850.6,423.1,853.9,418.8z M870.5,430.2
	c-6.8,8.3-17,12.5-30.6,12.5c-13.7,0-23.9-4.2-30.6-12.5c-6.7-8.2-10.1-18.2-10.1-29.9c0-11.4,3.4-21.4,10.1-29.9
	c6.7-8.4,16.9-12.6,30.6-12.6c13.6,0,23.8,4.3,30.6,12.6c6.7,8.5,10.1,18.4,10.1,29.9C880.6,412,877.2,422,870.5,430.2L870.5,430.2z
	"/>
<path class="st1" d="M933,370.9c0.2,0.1,0.8,0.1,1.8,0.1v21.3c-1.3-0.1-2.5-0.2-3.5-0.3c-1,0-1.9-0.1-2.5-0.1
	c-8.4,0-14,2.7-16.9,8.2c-1.6,3.1-2.4,7.8-2.4,14.2v38h-21v-79.6h19.9v13.9c3.2-5.3,6-8.9,8.4-10.9c3.8-3.3,8.9-4.9,15.2-4.9
	C931.9,370.9,933,370.9,933,370.9z"/>
<path class="st2" d="M933,358.5c0.2,0.1,0.8,0.1,1.8,0.1v21.3c-1.3-0.1-2.5-0.2-3.5-0.3c-1,0-1.9-0.1-2.5-0.1
	c-8.4,0-14,2.7-16.9,8.2c-1.6,3.1-2.4,7.8-2.4,14.2v38h-21v-79.6h19.9v13.9c3.2-5.3,6-8.9,8.4-10.9c3.8-3.3,8.9-4.9,15.2-4.9
	C931.9,358.5,933,358.5,933,358.5z"/>
<path class="st1" d="M988.6,429.8c3.4-3.7,5-9.5,5-17.5c0-7.5-1.6-13.2-4.7-17.2c-3.3-3.9-7.5-5.9-12.9-5.9
	c-7.3,0-12.3,3.4-15.1,10.3c-1.5,3.7-2.2,8.2-2.2,13.5c0,4.7,0.8,8.8,2.3,12.3c2.8,6.7,7.9,10.1,15.2,10.1
	C981.1,435.4,985.2,433.5,988.6,429.8L988.6,429.8z M981.5,372.7c5,2.1,9.1,6,12.3,11.5v-11.5h20.2v75.5c0,10.3-1.8,18.1-5.2,23.2
	c-5.9,9-17.3,13.5-34.2,13.4c-10.2,0-18.5-1.9-24.9-6c-6.5-3.9-10-9.9-10.7-17.9h22.6c0.6,2.4,1.5,4.2,2.8,5.3
	c2.2,1.9,6,2.8,11.3,2.8c7.4,0,12.5-2.5,15-7.5c1.7-3.2,2.5-8.6,2.5-16.2v-5.1c-2,3.5-4.2,6-6.4,7.7c-4.2,3.2-9.6,4.7-16.1,4.7
	c-10.3,0-18.4-3.6-24.5-10.8c-6.1-7.2-9.2-16.9-9.2-29.1c0-11.8,2.9-21.7,8.8-29.9c5.9-8,14.2-12,25-12
	C975,370.9,978.5,371.5,981.5,372.7L981.5,372.7z"/>
<path class="st2" d="M988.6,417.3c3.4-3.7,5-9.5,5-17.5c0-7.5-1.6-13.2-4.7-17.2c-3.3-3.9-7.5-5.9-12.9-5.9
	c-7.3,0-12.3,3.4-15.1,10.3c-1.5,3.7-2.2,8.2-2.2,13.5c0,4.7,0.8,8.8,2.3,12.3c2.8,6.7,7.9,10.1,15.2,10.1
	C981.1,422.9,985.2,421,988.6,417.3L988.6,417.3z M981.5,360.3c5,2.1,9.1,6,12.3,11.5v-11.5h20.2v75.5c0,10.3-1.8,18.1-5.2,23.2
	c-5.9,9-17.3,13.5-34.2,13.4c-10.2,0-18.5-1.9-24.9-6c-6.5-3.9-10-9.9-10.7-17.9h22.6c0.6,2.4,1.5,4.2,2.8,5.3
	c2.2,1.9,6,2.8,11.3,2.8c7.4,0,12.5-2.5,15-7.5c1.7-3.2,2.5-8.6,2.5-16.2v-5.1c-2,3.5-4.2,6-6.4,7.7c-4.2,3.2-9.6,4.7-16.1,4.7
	c-10.3,0-18.4-3.6-24.5-10.8c-6.1-7.2-9.2-16.9-9.2-29.1c0-11.8,2.9-21.7,8.8-29.9c5.9-8,14.2-12,25-12
	C975,358.4,978.5,359,981.5,360.3L981.5,360.3z"/>
</svg>
