<?xml version="1.0" encoding="utf-8"?>
<!-- Generator: Adobe Illustrator 25.1.0, SVG Export Plug-In . SVG Version: 6.00 Build 0)  -->
<svg version="1.1" id="skype-logo-2" xmlns="http://www.w3.org/2000/svg" xmlns:xlink="http://www.w3.org/1999/xlink" x="0px"
	 y="0px" viewBox="0 0 1200 1200" style="enable-background:new 0 0 1200 1200;" xml:space="preserve">
<style type="text/css">
	.st0{fill:url(#SVGID_1_);}
	.st1{fill:url(#SVGID_2_);}
	.st2{opacity:5.000000e-02;fill-rule:evenodd;clip-rule:evenodd;enable-background:new    ;}
	.st3{opacity:0.1;fill-rule:evenodd;clip-rule:evenodd;enable-background:new    ;}
	.st4{fill:url(#SVGID_3_);}
	.st5{fill-rule:evenodd;clip-rule:evenodd;fill:#FFFFFF;}
</style>
<g transform="translate(-381.7262001,-337.1428572)">
	
		<linearGradient id="SVGID_1_" gradientUnits="userSpaceOnUse" x1="-58.2223" y1="1375.5289" x2="-54.9951" y2="1355.1545" gradientTransform="matrix(33.3333 0 0 -33.3333 2626.8528 46202.9023)">
		<stop  offset="1.200000e-02" style="stop-color:#00B7F0"/>
		<stop  offset="0.339" style="stop-color:#009DE5"/>
		<stop  offset="0.755" style="stop-color:#0082D9"/>
		<stop  offset="1" style="stop-color:#0078D4"/>
	</linearGradient>
	<path class="st0" d="M1084.8,691.5c0,189.8-154.4,343.7-344.9,343.7l0,0c-190.5,0-344.9-153.9-344.9-343.7l0,0
		c0-189.8,154.4-343.7,344.9-343.7c0,0,0,0,0,0C930.4,347.8,1084.8,501.7,1084.8,691.5L1084.8,691.5"/>
	
		<linearGradient id="SVGID_2_" gradientUnits="userSpaceOnUse" x1="-51.1507" y1="1345.3621" x2="-33.236" y2="1355.7042" gradientTransform="matrix(33.3333 0 0 -33.3333 2626.8528 46202.9023)">
		<stop  offset="0" style="stop-color:#0078D4"/>
		<stop  offset="0.37" style="stop-color:#007AD5"/>
		<stop  offset="0.573" style="stop-color:#0082D9"/>
		<stop  offset="0.735" style="stop-color:#0090DF"/>
		<stop  offset="0.875" style="stop-color:#00A3E7"/>
		<stop  offset="1" style="stop-color:#00BCF2"/>
	</linearGradient>
	<path class="st1" d="M1565.4,1185.1c0,189.9-154.5,343.8-345,343.8s-345-153.9-345-343.8s154.5-343.8,345-343.8
		S1565.4,995.2,1565.4,1185.1L1565.4,1185.1"/>
	<path class="st2" d="M396.3,720.9c15.7,189.8,182.2,331,372,315.3c189.8-15.7,331-182.2,315.3-372
		c-13.4-162.6-138.9-293.5-300.8-313.8C605,409.9,463.2,545.8,396.3,720.9L396.3,720.9z"/>
	<path class="st2" d="M1564.5,1160.4c-13-190.1-177.7-333.6-367.7-320.6s-333.6,177.7-320.6,367.7c11.6,169,144.2,304.6,312.9,320
		C1362,1466,1499.2,1331.8,1564.5,1160.4L1564.5,1160.4z"/>
	<path class="st3" d="M412.4,799.5c59.2,181,253.8,279.7,434.8,220.5s279.7-253.8,220.5-434.8c-32.5-99.5-108.5-178.8-206.5-215.6
		C641.8,415.4,467.6,582.2,412.4,799.5L412.4,799.5z"/>
	<path class="st3" d="M1548.8,1079.7c-57.8-181.5-251.7-281.8-433.2-224c-181.5,57.8-281.8,251.7-224,433.2
		c33.1,103.9,113.4,186.1,216.5,221.5C1324.7,1461.8,1495.3,1295,1548.8,1079.7L1548.8,1079.7z"/>
	<path class="st3" d="M425.1,832.1c77.2,174,280.8,252.4,454.8,175.2s252.4-280.8,175.2-454.8c-32.6-73.4-89.8-133.1-161.7-168.9
		C658.7,420.2,471.8,599.2,425.1,832.1z"/>
	<path class="st3" d="M1536.1,1046.4c-76.2-174.5-279.4-254.2-453.9-178.1S828,1147.7,904.2,1322.2
		c33.7,77.1,94.4,139.3,170.8,174.8C1307.5,1457.5,1491.2,1278,1536.1,1046.4L1536.1,1046.4z"/>
	
		<linearGradient id="SVGID_3_" gradientUnits="userSpaceOnUse" x1="-55.7918" y1="1368.9342" x2="-39.443" y2="1340.6174" gradientTransform="matrix(33.3333 0 0 -33.3333 2626.8528 46202.9023)">
		<stop  offset="0" style="stop-color:#00B7F0"/>
		<stop  offset="1" style="stop-color:#007CC1"/>
	</linearGradient>
	<path class="st4" d="M1526.5,940.9c0,300.7-244.6,544.4-546.2,544.4l0,0c-301.7,0-546.2-243.7-546.2-544.4c0,0,0,0,0,0
		c0-300.7,244.6-544.4,546.2-544.4c0,0,0,0,0,0C1281.9,396.5,1526.5,640.3,1526.5,940.9L1526.5,940.9"/>
	<path class="st5" d="M826.7,922c-22.1-14.5-40.5-34-53.8-56.8c-12.9-24.1-19.2-51.2-18.4-78.5c-1-34.7,10.9-68.5,33.2-95
		c23.3-26.6,53.1-46.6,86.6-57.9c36.4-12.9,74.8-19.3,113.4-19.1c25.3-0.2,50.5,1.7,75.4,5.8c17.8,2.8,35.4,7.3,52.3,13.5
		c15.6,5.3,29.6,14.2,40.9,26.1c8.3,9.8,12.8,22.3,12.6,35.2c0.6,13.5-4.2,26.7-13.3,36.7c-8.6,9.2-20.8,14.3-33.4,13.9
		c-8.6-0.1-17.1-2-24.8-5.6c-19.2-8.6-39-15.8-59.2-21.7c-18.6-4.9-37.8-7.3-57-7.1c-25.1-0.9-49.9,5.4-71.4,18.3
		c-18.5,11.3-29.4,31.7-28.5,53.4c-0.1,14,5.2,27.4,14.8,37.5c11.4,11.9,25,21.5,39.9,28.5c16.7,8.3,41.7,19.3,74.8,33
		c3.7,1.2,7.3,2.6,10.7,4.3c32.4,12.8,63.4,28.7,92.6,47.6c23.1,15.1,42.6,35,57,58.5c14.2,24.7,21.4,52.8,20.6,81.3
		c1.2,34.9-8.8,69.2-28.5,98c-20.1,27.2-47.8,47.9-79.7,59.2c-38.4,13.7-79,20.3-119.9,19.5c-56.1,2-111.9-8.6-163.4-30.9
		c-13.2-5.9-24.7-14.8-33.6-26.1c-7.4-10.4-11.3-22.9-10.9-35.6c-0.7-13.6,4.5-26.8,14.4-36.2c10.2-8.9,23.5-13.6,37.1-13.1
		c15.1,0.2,30,4,43.3,11.1c16.6,8.3,29.7,14.5,39.3,18.7c10.9,4.6,22.3,8.2,33.9,10.7c14.3,3.1,28.9,4.6,43.5,4.5
		c25.9,1.8,51.6-5,73.1-19.5c16.3-12.8,25.5-32.7,24.6-53.4c0-14.5-5.5-28.4-15.4-39c-13.1-13.6-28.5-24.7-45.4-33.1
		c-20-10.6-48.2-23.4-84.5-38.6C887,957.3,855.9,941.2,826.7,922"/>
</g>
</svg>
