<?xml version="1.0" encoding="utf-8"?>
<!-- Generator: Adobe Illustrator 25.1.0, SVG Export Plug-In . SVG Version: 6.00 Build 0)  -->
<svg version="1.1" id="skype-logo" xmlns="http://www.w3.org/2000/svg" xmlns:xlink="http://www.w3.org/1999/xlink" x="0px" y="0px"
	 viewBox="0 0 1200 1200" style="enable-background:new 0 0 1200 1200;" xml:space="preserve">
<style type="text/css">
	.st0{fill:none;}
	.st1{fill-rule:evenodd;clip-rule:evenodd;fill:#00AEF3;}
</style>
<g id="_x31__stroke">
	<g id="Skype_1_">
		<rect x="9" y="12" class="st0" width="1171.8" height="1171.8"/>
		<path id="Skype" class="st1" d="M887.8,867.4c-25.8,36.1-64,64.7-113.6,84.9c-49,20.1-107.7,30.4-174.6,30.4
			c-80.3,0-147.6-13.9-200.2-41.4c-37.6-20-68.5-47-92-80.6c-23.8-33.7-35.8-67.2-35.8-99.6c0-20.1,7.9-37.6,23.3-52
			c15.3-14.3,34.9-21.4,58.4-21.4c19.2,0,35.8,5.6,49.2,16.8c12.9,10.8,23.9,26.8,32.8,47.2c9.9,22.4,20.7,41.3,32,56
			c11,14.4,26.8,26.4,46.9,35.9c20.3,9.4,47.6,14.3,81.2,14.3c46.2,0,84.1-9.8,112.6-28.9c27.9-18.7,41.4-41.2,41.4-68.8
			c0-21.7-7.1-38.8-21.6-52.2c-15.3-14-35.3-24.9-59.7-32.5c-25.4-7.7-59.9-16.2-102.5-25.1c-58.1-12.2-107.3-26.7-146.5-43.2
			c-40.1-16.8-72.4-40.1-96-69.2c-24-29.7-36.2-66.8-36.2-110.5c0-41.6,12.7-79.1,38-111.5c24.9-32.1,61.5-57.3,108.5-74.3
			c46.4-16.9,101.5-25.5,164-25.5c49.9,0,93.8,5.7,130.4,17c36.9,11.3,67.9,26.5,92.3,45.3c24.6,19,42.9,39.2,54.4,60.2
			c11.6,21.3,17.5,42.4,17.5,62.8c0,19.7-7.7,37.6-22.9,53.2c-15.3,15.8-34.7,23.7-57.4,23.7c-20.7,0-36.9-5-48.1-14.8
			c-10.5-9.2-21.4-23.4-33.4-43.8c-13.9-26.1-30.8-46.7-50.2-61.2c-18.8-14.1-50.2-21.2-93.4-21.2c-40,0-72.6,7.9-96.8,23.6
			c-23.3,15-34.7,32.3-34.7,52.8c0,12.5,3.7,23,11.2,32c7.9,9.6,19.1,17.9,33.3,25c14.7,7.3,29.8,13.1,45,17.2
			c15.5,4.3,41.5,10.6,77.3,18.7c45.3,9.5,86.8,20.3,123.5,31.9c37.3,11.7,69.4,26.1,95.7,43c26.7,17.2,47.9,39.2,63,65.5
			c15.1,26.6,22.7,59.2,22.7,97.1C927,789.8,913.7,831.2,887.8,867.4z M1147.2,722.3c8.5-38.2,12.9-77.7,12.9-118.3
			c0-304.3-250.2-551-558.9-551c-32.5,0-64.4,2.8-95.6,8.1c-50-31-109.1-49-172.4-49C154.1,12,9,155,9,331.6
			c0,59,16.3,114.1,44.5,161.7C46.1,529,42.2,566.1,42.2,604c0,304.4,250.2,551.1,558.9,551.1c35,0,69.2-3.2,102.4-9.2
			c45.7,24.2,97.8,38,153.2,38c179,0,324.1-143.1,324.1-319.6C1180.8,813.3,1168.7,765.1,1147.2,722.3z"/>
	</g>
</g>
</svg>
