<?xml version="1.0" encoding="utf-8"?>
<!-- Generator: Adobe Illustrator 25.1.0, SVG Export Plug-In . SVG Version: 6.00 Build 0)  -->
<svg version="1.1" id="slides-logo" xmlns="http://www.w3.org/2000/svg" xmlns:xlink="http://www.w3.org/1999/xlink" x="0px"
	 y="0px" viewBox="0 0 1200 1200" style="enable-background:new 0 0 1200 1200;" xml:space="preserve">
<style type="text/css">
	.st0{fill:#512833;}
	.st1{fill:#934358;}
	.st2{fill:#E5637C;}
	.st3{fill:#FFFFFF;}
</style>
<g id="Symbol">
	<g>
		<polygon class="st0" points="1009.6,1157.6 65.7,985.3 237.8,41.4 1182.1,213.7 		"/>
		<polygon class="st1" points="994.2,1125.8 39.3,1033 132.2,78 1087.1,170.5 		"/>
		<polygon class="st2" points="979.5,1081.5 20,1081.5 20,122 979.5,122 		"/>
		<path class="st3" d="M359.3,786.5c0-5.7,3.5-14,10.4-25c7.1-11,13.2-16.8,18.9-16.8c0.6,0,5.1,2.8,13.4,7.9
			c8.3,5.3,20.3,10.4,35.9,16c15.6,5.5,34.3,7.9,56.4,7.9c22.1,0,40.2-6.1,54.2-18.9c14.4-12.4,21.3-29.4,21.3-51.1
			c0-21.3-6.1-38-18.9-50.1c-12.4-11.8-37.5-23.3-74.7-33.7c-37.3-10.4-64.3-24.1-80.8-40.4c-16.8-16.4-25-41.2-25-74.7
			s12.6-61.5,38.2-83.8c25.6-22.7,59.1-33.7,100.3-33.7c28.4,0,53.6,3.5,76.1,10.8s33.5,15.4,33.5,24.2c0,7.3-3.2,16.4-9.7,28
			c-6.5,11.2-12.2,17-17,17c-0.6,0-4.1-1.6-10.8-5.1c-18.9-10.1-40.2-15.2-63.9-15.2c-23.7,0-42,4.9-55,14.6
			c-13.2,9.7-19.7,22.5-19.7,38c0,15.6,4.9,27.8,14.6,36.7s26.4,17,49.7,24.2c52.2,16.2,87.9,33.7,106.5,53.2
			c18.5,19.1,28,48.3,28,86.9c0,38.8-13.8,70.6-41.2,95.8c-27.6,25-60.7,37.5-99,37.5c-38.2,0-71.6-5.7-99.6-17
			C372.9,808,359.3,797,359.3,786.5L359.3,786.5z"/>
	</g>
</g>
</svg>
