<?xml version="1.0" encoding="utf-8"?>
<!-- Generator: Adobe Illustrator 24.2.3, SVG Export Plug-In . SVG Version: 6.00 Build 0)  -->
<svg version="1.1" id="slides-logo" xmlns="http://www.w3.org/2000/svg" xmlns:xlink="http://www.w3.org/1999/xlink" x="0px" y="0px"
	 viewBox="0 0 1400 600" style="enable-background:new 0 0 1400 600;" xml:space="preserve">
<style type="text/css">
	.st0{fill:#512833;}
	.st1{fill:#934358;}
	.st2{fill:#E5637C;}
	.st3{fill:#FFFFFF;}
</style>
<g id="Symbol">
	<g>
		<polygon class="st0" points="493.8,502.9 143.8,439 207.6,89 557.7,152.9 		"/>
		<polygon class="st1" points="488.1,491.1 134,456.7 168.4,102.6 522.5,136.9 		"/>
		<polygon class="st2" points="482.6,474.7 126.8,474.7 126.8,118.9 482.6,118.9 		"/>
		<path class="st3" d="M252.6,365.3c0-2.1,1.3-5.2,3.9-9.3c2.6-4.1,4.9-6.2,7-6.2c0.2,0,1.9,1,5,2.9c3.1,2,7.5,3.9,13.3,5.9
			c5.8,2,12.7,2.9,20.9,2.9c8.2,0,14.9-2.3,20.1-7c5.3-4.6,7.9-10.9,7.9-18.9c0-7.9-2.3-14.1-7-18.6c-4.6-4.4-13.9-8.6-27.7-12.5
			c-13.8-3.9-23.8-8.9-30-15c-6.2-6.1-9.3-15.3-9.3-27.7c0-12.4,4.7-22.8,14.2-31.1c9.5-8.4,21.9-12.5,37.2-12.5
			c10.5,0,19.9,1.3,28.2,4c8.3,2.7,12.4,5.7,12.4,9c0,2.7-1.2,6.1-3.6,10.4c-2.4,4.2-4.5,6.3-6.3,6.3c-0.2,0-1.5-0.6-4-1.9
			c-7-3.7-14.9-5.6-23.7-5.6c-8.8,0-15.6,1.8-20.4,5.4c-4.9,3.6-7.3,8.3-7.3,14.1c0,5.8,1.8,10.3,5.4,13.6c3.6,3.3,9.8,6.3,18.4,9
			c19.4,6,32.6,12.5,39.5,19.7c6.9,7.1,10.4,17.9,10.4,32.2c0,14.4-5.1,26.2-15.3,35.5c-10.2,9.3-22.5,13.9-36.7,13.9
			c-14.2,0-26.5-2.1-36.9-6.3C257.7,373.3,252.6,369.2,252.6,365.3L252.6,365.3z"/>
	</g>
</g>
<g id="Word">
	<g>
		<path class="st3" d="M611.9,355.2c0-1.8,1.1-4.5,3.3-8c2.2-3.6,4.2-5.3,6-5.3c0.2,0,1.6,0.8,4.3,2.5c2.7,1.7,6.5,3.4,11.5,5.1
			c5,1.7,11,2.5,18,2.5c7,0,12.8-2,17.4-6c4.5-4,6.8-9.4,6.8-16.3c0-6.9-2-12.2-6-16c-4-3.8-12-7.4-23.9-10.8
			c-11.9-3.4-20.6-7.7-25.9-13c-5.3-5.3-8-13.2-8-23.9c0-10.7,4.1-19.6,12.3-26.9c8.2-7.2,18.9-10.8,32.1-10.8
			c9.1,0,17.2,1.2,24.3,3.5c7.1,2.3,10.7,4.9,10.7,7.8c0,2.3-1,5.3-3.1,9c-2.1,3.7-3.9,5.5-5.5,5.5c-0.2,0-1.3-0.5-3.5-1.6
			c-6.1-3.2-12.9-4.8-20.4-4.8c-7.6,0-13.5,1.6-17.6,4.7c-4.2,3.1-6.3,7.2-6.3,12.2c0,5,1.6,8.9,4.7,11.8c3.1,2.9,8.4,5.4,15.9,7.7
			c16.7,5.2,28.1,10.8,34.1,17c6,6.1,9,15.4,9,27.8c0,12.4-4.4,22.6-13.2,30.6c-8.8,8-19.4,12-31.7,12s-22.9-1.8-31.8-5.5
			C616.3,362.1,611.9,358.6,611.9,355.2L611.9,355.2z"/>
		<path class="st3" d="M728.1,334.4V174.6c0-3.9,3.6-5.9,10.7-5.9h1.1c7.1,0,10.7,2,10.7,5.9v157.7c0,13.2,4.8,19.8,14.4,19.8
			c3,0,5.6-0.2,7.7-0.7c2.1-0.4,3.4-0.7,3.7-0.7c1.6,0,2.9,1.6,4,4.9c1.1,3.3,1.6,5.8,1.6,7.6c0,5.3-6.5,8-19.5,8
			c-8.9,0-16.9-2.7-23.9-8.1C731.7,357.7,728.1,348.1,728.1,334.4L728.1,334.4z"/>
		<path class="st3" d="M803.2,365.3v-132c0-3.9,3.6-5.9,10.7-5.9h1.1c7.1,0,10.7,2,10.7,5.9v132c0,3.9-3.6,5.9-10.7,5.9h-1.1
			C806.8,371.2,803.2,369.2,803.2,365.3L803.2,365.3z"/>
		<path class="st3" d="M880.5,297.8c0,36,11.6,54,34.7,54c11.6,0,23-6.1,34.2-18.4v-73.2c-9.6-8-20.4-12-32.3-12h-1.6
			c-11.4,0.2-20.1,4.5-26.1,13.1C883.4,269.7,880.5,281.9,880.5,297.8L880.5,297.8z M951.3,351.2c-12.8,13.4-27.1,20-42.8,20
			c-15.7,0-28.2-6.6-37.5-19.8c-9.4-13.2-14-30.1-14-50.8v-2.4c0-21.9,5-39.1,15-51.4c10-12.4,22.4-18.6,37.4-18.6
			c15,0,28.3,4.5,40.1,13.6v-67.3c0-3.9,3.6-5.9,10.7-5.9h1.1c7.1,0,10.7,2,10.7,5.9v155.5c0,10.7,0.4,18.4,1.3,23.3
			c1.2,6.6,1.9,10.1,1.9,10.4c0,2.1-1.7,3.7-5.1,4.7c-3.4,1-6,1.5-7.9,1.5c-1.9,0-3.2-0.2-3.9-0.5c-0.7-0.4-1.4-1-2-1.9
			c-0.6-0.9-1.1-1.7-1.5-2.5c-0.4-0.8-0.7-1.9-1.1-3.3c-0.4-1.4-0.7-2.5-0.9-3.3c-0.3-0.8-0.5-2-0.8-3.7
			C951.7,352.9,951.5,351.8,951.3,351.2L951.3,351.2z"/>
		<path class="st3" d="M1092.2,289.8c0-28.1-10.7-42.2-32.1-42.2c-23,0-35.5,14.1-37.4,42.2H1092.2L1092.2,289.8z M1014.7,353.9
			c-10.7-11.6-16-29.3-16-53c0-23.8,5.3-41.8,15.8-54.1c10.5-12.3,25.5-18.4,44.9-18.4c37.8,0,56.7,23.2,56.7,69.8
			c0,1.6-1.1,3.8-3.2,6.7c-2.1,2.9-4,4.3-5.6,4.3h-84.4c1.1,14.8,4.9,25.7,11.5,32.6c6.6,7,16.5,10.4,29.7,10.4
			c12.1,0,23.2-2.9,33.4-8.6c3.4-1.8,5.3-2.7,5.6-2.7c1.8,0,3.8,1.8,6,5.3c2.2,3.6,3.3,6.2,3.3,8c0,3.6-4.9,7.3-14.6,11.2
			c-9.7,3.9-20.9,5.9-33.5,5.9C1041.9,371.3,1025.4,365.5,1014.7,353.9L1014.7,353.9z"/>
		<path class="st3" d="M1130.7,355.2c0-1.8,1.1-4.5,3.3-8c2.2-3.6,4.2-5.3,6-5.3c0.2,0,1.6,0.8,4.3,2.5c2.7,1.7,6.5,3.4,11.5,5.1
			c5,1.7,11,2.5,18,2.5c7,0,12.8-2,17.4-6c4.5-4,6.8-9.4,6.8-16.3c0-6.9-2-12.2-6-16c-4-3.8-12-7.4-23.9-10.8
			c-11.9-3.4-20.6-7.7-25.9-13c-5.3-5.3-8-13.2-8-23.9c0-10.7,4.1-19.6,12.3-26.9c8.2-7.2,18.9-10.8,32.1-10.8
			c9.1,0,17.2,1.2,24.3,3.5c7.1,2.3,10.7,4.9,10.7,7.8c0,2.3-1,5.3-3.1,9c-2.1,3.7-3.9,5.5-5.5,5.5c-0.2,0-1.3-0.5-3.5-1.6
			c-6.1-3.2-12.9-4.8-20.4-4.8c-7.6,0-13.5,1.6-17.6,4.7c-4.2,3.1-6.3,7.2-6.3,12.2c0,5,1.6,8.9,4.7,11.8c3.1,2.9,8.4,5.4,15.9,7.7
			c16.7,5.2,28.1,10.8,34.1,17c6,6.1,8.9,15.4,8.9,27.8c0,12.4-4.4,22.6-13.2,30.6c-8.8,8-19.4,12-31.7,12
			c-12.3,0-22.9-1.8-31.8-5.5C1135.2,362.1,1130.7,358.6,1130.7,355.2L1130.7,355.2z"/>
		<path class="st3" d="M829.6,181.3c0,8.4-6.8,15.2-15.2,15.2s-15.2-6.8-15.2-15.2c0-8.4,6.8-15.2,15.2-15.2
			S829.6,172.9,829.6,181.3L829.6,181.3z"/>
	</g>
</g>
</svg>
