<?xml version="1.0" encoding="utf-8"?>
<!-- Generator: Adobe Illustrator 25.1.0, SVG Export Plug-In . SVG Version: 6.00 Build 0)  -->
<svg version="1.1"
	 id="appel" inkscape:version="0.91 r13725" sodipodi:docname="Apple_1998.svg" xmlns:cc="http://creativecommons.org/ns#" xmlns:dc="http://purl.org/dc/elements/1.1/" xmlns:inkscape="http://www.inkscape.org/namespaces/inkscape" xmlns:rdf="http://www.w3.org/1999/02/22-rdf-syntax-ns#" xmlns:sodipodi="http://sodipodi.sourceforge.net/DTD/sodipodi-0.dtd" xmlns:svg="http://www.w3.org/2000/svg"
	 xmlns="http://www.w3.org/2000/svg" xmlns:xlink="http://www.w3.org/1999/xlink" x="0px" y="0px" viewBox="0 0 1200 1200"
	 style="enable-background:new 0 0 1200 1200;" xml:space="preserve">
<style type="text/css">
	.st0{fill:#4D4D4E;}
	.st1{fill:#F89820;}
	.st2{fill:url(#SVGID_1_);}
</style>
<g>
	
		<sodipodi:namedview  bordercolor="#666666" borderopacity="1" gridtolerance="10" guidetolerance="10" id="namedview6" inkscape:current-layer="svg2" inkscape:cx="-1066.5045" inkscape:cy="964.94669" inkscape:pageopacity="0" inkscape:pageshadow="2" inkscape:window-height="705" inkscape:window-maximized="1" inkscape:window-width="1366" inkscape:window-x="-8" inkscape:window-y="-8" inkscape:zoom="0.1767767" objecttolerance="10" pagecolor="#ffffff" showgrid="false">
		</sodipodi:namedview>
	<path class="st0" d="M1123.6,1159H87.1c-23.9,0-43.5-19.6-43.5-43.5V79.3c0-23.9,19.6-43.5,43.5-43.5h1036.4
		c23.9,0,43.5,19.6,43.5,43.5v1036.4C1166.8,1139.6,1147.5,1159,1123.6,1159L1123.6,1159z"/>
	<path class="st1" d="M302.7,375l587.9-186.5c0,0,41.7-21.9,31.7,18.6l1.5,179.8c0,0,7.3,26.4-28.9,32.9L656,494.5L302.7,375z"/>
	<path class="st1" d="M302.7,375c0,0-23.1,5.5-16.4,45L285,593.2c0,0-2,21.9,39.5,30.7l582.6,187.5c0,0,19.6,7.8,17.4-16.4
		l0.2-193.2c0,0,5.5-19.8-30.7-32.9L656,494.3L302.7,375z"/>
	
		<linearGradient id="SVGID_1_" gradientUnits="userSpaceOnUse" x1="-675.0562" y1="163.1105" x2="-568.7595" y2="126.3329" gradientTransform="matrix(5.5944 0 0 5.5944 4095.6504 -14.257)">
		<stop  offset="0.233" style="stop-color:#F89822"/>
		<stop  offset="1" style="stop-color:#C27818"/>
	</linearGradient>
	<path class="st2" d="M559.3,699.4L311.5,775c0,0-29.9,1-26.4,57c3.5,56.1-0.2,168.9-0.2,168.9s2.6,20.8,31.2,8.8l587.9-187.5
		c0,0,20.8-5.3,3.3-11C889.5,805.7,559.3,699.4,559.3,699.4z"/>
</g>
</svg>
