<?xml version="1.0" encoding="utf-8"?>
<!-- Generator: Adobe Illustrator 24.2.1, SVG Export Plug-In . SVG Version: 6.00 Build 0)  -->
<svg version="1.1" id="sw-rdf-logo" xmlns="http://www.w3.org/2000/svg" xmlns:xlink="http://www.w3.org/1999/xlink" x="0px" y="0px"
	 viewBox="0 0 80.5 15.5" style="enable-background:new 0 0 80.5 15.5;" xml:space="preserve">
<style type="text/css">
	.st0{fill:#FFFFFF;}
	.st1{fill:#005B9D;}
	.st2{fill:none;stroke:#005B9D;stroke-width:0.5;}
	.st3{fill:#241E12;}
	.st4{fill:#87BB40;}
	.st5{fill:#ED7D22;}
	.st6{fill:#BD1B89;}
</style>
<g shape-rendering="geometricPrecision" image-rendering="optimizeQuality" text-rendering="geometricPrecision">
	<g>
		<rect x="0.2" y="0.2" class="st0" width="41.5" height="15.1"/>
		<rect x="39" y="0.2" class="st1" width="41.2" height="15.1"/>
		<g>
			<path class="st0" d="M46.6,4h4.9c2.3,0,3.3,1.1,3.3,2.3c0,0.9-0.5,1.5-1.4,1.9c0.6,0.3,0.9,0.8,1.4,1.8l1,2.2h-3l-0.5-1.2
				c-0.6-1.4-1.1-2.2-1.9-2.2h-0.8v3.4h-3L46.6,4L46.6,4z M50.4,7.5c1,0,1.5-0.4,1.5-1.1s-0.5-1.1-1.5-1.1h-0.9v2.2L50.4,7.5
				L50.4,7.5z"/>
			<path class="st0" d="M56.9,4h4.3c3.3,0,4.7,2.3,4.7,4.2c0,1.9-1.2,4-4.1,4h-4.9V4z M60.7,10.2c1.5,0,2.2-0.7,2.2-2.1
				c0-1.1-0.5-2.1-2.1-2.1h-0.8v4.3L60.7,10.2L60.7,10.2z"/>
			<path class="st0" d="M67.4,4h6.3v1.7h-3.3v1.5h3.1v1.7h-3.1v3.2h-3V4z"/>
		</g>
		<rect x="0.2" y="0.2" class="st2" width="80" height="15"/>
		<g>
			<g>
				<path class="st3" d="M23.9,1.6c0.4,0,0.7,0.3,0.7,0.7c0,0.4-0.3,0.7-0.7,0.7c-0.4,0-0.7-0.3-0.7-0.7C23.2,2,23.5,1.6,23.9,1.6
					L23.9,1.6z M23.9,1.8c-0.3,0-0.6,0.3-0.6,0.6c0,0.3,0.2,0.6,0.6,0.6c0.3,0,0.6-0.3,0.6-0.6C24.5,2,24.2,1.8,23.9,1.8L23.9,1.8z
					 M23.8,2.8h-0.2V2c0.1,0,0.1,0,0.3,0C24,2,24.1,2,24.1,2c0,0,0.1,0.1,0.1,0.2c0,0.1-0.1,0.2-0.2,0.2v0c0.1,0,0.1,0.1,0.1,0.2
					c0,0.1,0,0.2,0,0.2h-0.2c0,0,0-0.1,0-0.2c0-0.1-0.1-0.1-0.2-0.1h-0.1V2.8z M23.8,2.3L23.8,2.3c0.2,0,0.3,0,0.3-0.1
					c0-0.1,0-0.1-0.2-0.1c0,0-0.1,0-0.1,0V2.3z"/>
			</g>
			<g>
				<g>
					<g>
						<path class="st3" d="M22.7,2.5l0.2,1.4l-0.8,1.6c0,0-0.3-0.7-0.8-1c-0.4-0.3-0.7-0.4-1.2-0.3c-0.6,0.1-1.2,0.8-1.5,1.6
							c-0.3,1-0.3,1.5-0.4,1.9c0,0.7,0.1,1.1,0.1,1.1S17.9,8,17.9,6.6c0-1,0.2-1.8,0.6-2.7c0.4-0.8,1-1.2,1.5-1.3
							c0.5-0.1,1,0.2,1.3,0.5c0.3,0.3,0.7,0.9,0.7,0.9L22.7,2.5z"/>
						<path class="st3" d="M22.8,10.4c0,0-0.4,0.6-0.6,0.9c-0.2,0.2-0.6,0.7-1.1,0.9c-0.5,0.2-0.8,0.3-1.2,0.2
							c-0.5,0-0.9-0.3-1.1-0.4c-0.2-0.1-0.6-0.5-0.8-0.8c-0.2-0.3-0.6-1-0.6-1s0.2,0.6,0.3,0.9c0.1,0.2,0.3,0.6,0.6,1.1
							c0.3,0.4,0.9,1.1,1.7,1.2s1.5-0.2,1.6-0.3c0.1-0.1,0.5-0.4,0.7-0.6c0.2-0.2,0.4-0.5,0.5-0.7c0.1-0.1,0.2-0.4,0.2-0.4
							L22.8,10.4z"/>
					</g>
					<g>
						<path class="st1" d="M7.8,2.5l2,6.7l2-6.7h1.4l-3.2,11H9.8l-2-6.8l-2,6.8H5.6l-3.2-11h1.4l2,6.7l1.3-4.5L6.4,2.5H7.8z"/>
						<path class="st1" d="M17.2,10c0,1-0.3,1.8-0.8,2.5c-0.5,0.7-1.2,1-2.1,1c-0.6,0-1.2-0.2-1.6-0.6c-0.5-0.4-0.8-0.9-1-1.6
							l1.1-0.5c0.2,0.4,0.4,0.7,0.6,1c0.3,0.2,0.6,0.4,0.9,0.4c0.4,0,0.7-0.2,1-0.6c0.3-0.4,0.4-0.9,0.4-1.5c0-0.7-0.1-1.2-0.4-1.5
							C15,8,14.5,7.8,13.8,7.8h-0.5V7.2l1.9-3.3h-2.3L12.2,5h-0.4V2.5h5.3v0.7l-2,3.4c0.7,0.2,1.2,0.6,1.6,1.2
							C17,8.5,17.2,9.2,17.2,10z"/>
					</g>
				</g>
				<g>
					<path class="st4" d="M31.4,2.7c3.5,1.6,4.3-1.3,4.3-1.3S35.1,5,32,6.5c-0.6,0.3-1,0.5-1,0.5l-5.1-2.5l5.1-2.1
						C30.9,2.5,30.8,2.4,31.4,2.7z"/>
					<polygon class="st5" points="30.4,13.4 25.6,10.9 25.6,5.6 30.4,8 					"/>
					<polygon class="st6" points="31.4,13.4 36.1,10.9 36.1,5.6 31.4,8 					"/>
				</g>
			</g>
		</g>
	</g>
</g>
</svg>
