<?xml version="1.0" encoding="utf-8"?>
<!-- Generator: Adobe Illustrator 24.2.1, SVG Export Plug-In . SVG Version: 6.00 Build 0)  -->
<svg version="1.1" id="sw-sqarql-logo" xmlns="http://www.w3.org/2000/svg" xmlns:xlink="http://www.w3.org/1999/xlink" x="0px" y="0px"
	 viewBox="0 0 80.5 15.5" style="enable-background:new 0 0 80.5 15.5;" xml:space="preserve">
<style type="text/css">
	.st0{fill:#FFFFFF;}
	.st1{fill:#005B9D;}
	.st2{fill:none;stroke:#005B9D;stroke-width:0.5;}
	.st3{fill:#241E12;}
	.st4{fill:#87BB40;}
	.st5{fill:#ED7D22;}
	.st6{fill:#BD1B89;}
</style>
<g shape-rendering="geometricPrecision" image-rendering="optimizeQuality" text-rendering="geometricPrecision">
	<g>
		<rect x="0.2" y="0.2" class="st0" width="41.5" height="15.1"/>
		<rect x="39.3" y="0.2" class="st1" width="41" height="15.1"/>
		<rect x="0.2" y="0.2" class="st2" width="80" height="15"/>
		<g>
			<g>
				<path class="st3" d="M23.9,1.3c0.4,0,0.7,0.3,0.7,0.7c0,0.4-0.3,0.7-0.7,0.7c-0.4,0-0.7-0.3-0.7-0.7C23.2,1.6,23.5,1.3,23.9,1.3
					C23.9,1.3,23.9,1.3,23.9,1.3z M23.9,1.4c-0.3,0-0.6,0.3-0.6,0.6c0,0.3,0.2,0.6,0.6,0.6c0.3,0,0.6-0.3,0.6-0.6
					C24.5,1.7,24.2,1.4,23.9,1.4C23.9,1.4,23.9,1.4,23.9,1.4z M23.8,2.5h-0.2V1.6c0.1,0,0.1,0,0.3,0c0.1,0,0.2,0,0.3,0.1
					c0,0,0.1,0.1,0.1,0.2c0,0.1-0.1,0.2-0.2,0.2v0c0.1,0,0.1,0.1,0.1,0.2c0,0.1,0,0.2,0,0.2h-0.2c0,0,0-0.1,0-0.2
					c0-0.1-0.1-0.1-0.2-0.1h-0.1V2.5z M23.8,2L23.8,2C24,2,24,2,24,1.9c0-0.1,0-0.1-0.2-0.1c0,0-0.1,0-0.1,0V2z"/>
			</g>
			<g>
				<g>
					<g>
						<path class="st3" d="M22.7,2.1l0.2,1.4l-0.8,1.6c0,0-0.3-0.7-0.8-1c-0.4-0.3-0.7-0.4-1.2-0.3c-0.6,0.1-1.2,0.8-1.5,1.6
							c-0.3,1-0.3,1.5-0.4,1.9c0,0.7,0.1,1.1,0.1,1.1s-0.5-0.9-0.5-2.3c0-1,0.2-1.8,0.6-2.7c0.4-0.8,1-1.2,1.5-1.3
							c0.5-0.1,1,0.2,1.3,0.5c0.3,0.3,0.7,0.9,0.7,0.9L22.7,2.1z"/>
						<path class="st3" d="M22.8,10.1c0,0-0.4,0.6-0.6,0.9c-0.2,0.2-0.6,0.7-1.1,0.9c-0.5,0.2-0.8,0.3-1.2,0.2
							c-0.5,0-0.9-0.3-1.1-0.4c-0.2-0.1-0.6-0.5-0.8-0.8c-0.2-0.3-0.6-1-0.6-1s0.2,0.6,0.3,0.9c0.1,0.2,0.3,0.6,0.6,1.1
							c0.3,0.4,0.9,1.1,1.7,1.2s1.5-0.2,1.6-0.3c0.1-0.1,0.5-0.4,0.7-0.6c0.2-0.2,0.4-0.5,0.5-0.7c0.1-0.1,0.2-0.4,0.2-0.4
							L22.8,10.1z"/>
					</g>
					<g>
						<path class="st1" d="M7.8,2.2l2,6.7l2-6.7h1.4l-3.2,11H9.8l-2-6.8l-2,6.8H5.6l-3.2-11h1.4l2,6.7l1.3-4.5L6.4,2.2H7.8z"/>
						<path class="st1" d="M17.2,9.6c0,1-0.3,1.8-0.8,2.5c-0.5,0.7-1.2,1-2.1,1c-0.6,0-1.2-0.2-1.6-0.6c-0.5-0.4-0.8-0.9-1-1.6
							l1.1-0.5c0.2,0.4,0.4,0.7,0.6,1c0.3,0.2,0.6,0.4,0.9,0.4c0.4,0,0.7-0.2,1-0.6c0.3-0.4,0.4-0.9,0.4-1.5c0-0.7-0.1-1.2-0.4-1.5
							c-0.3-0.4-0.8-0.6-1.5-0.6h-0.5V6.8l1.9-3.3h-2.3l-0.6,1.1h-0.4V2.2h5.3v0.7l-2,3.5c0.7,0.2,1.2,0.6,1.6,1.2
							C17,8.1,17.2,8.8,17.2,9.6z"/>
					</g>
				</g>
				<g>
					<path class="st4" d="M31.4,2.4C35,3.9,35.7,1,35.7,1S35.1,4.7,32,6.2c-0.6,0.3-1,0.5-1,0.5l-5.1-2.5l5.1-2.1
						C30.9,2.1,30.8,2.1,31.4,2.4z"/>
					<polygon class="st5" points="30.4,13.1 25.6,10.6 25.6,5.3 30.4,7.7 					"/>
					<polygon class="st6" points="31.4,13.1 36.1,10.6 36.1,5.3 31.4,7.7 					"/>
				</g>
			</g>
		</g>
		<g>
			<path class="st0" d="M41.9,9.3c0.6,0.5,1.1,0.8,1.6,0.8c0.4,0,0.6-0.2,0.6-0.6c0-0.9-2.2-1-2.2-3.4c0-1,0.5-2.5,2.1-2.5
				c0.7,0,1.3,0.3,1.8,0.9v2.2c-0.6-0.7-1-1.1-1.4-1.1c-0.3,0-0.6,0.2-0.6,0.6c0,1,2.2,1.1,2.2,3.4c0,1.2-0.6,2.4-2.1,2.4
				c-0.7,0-1.4-0.2-2-0.6L41.9,9.3L41.9,9.3z"/>
			<path class="st0" d="M47,3.8h3c1.7,0,2.3,1.3,2.3,2.6c0,1.3-0.6,2.7-2.4,2.7H49V12h-2C47,12,47,3.8,47,3.8z M49.5,7.6
				c0.6,0,0.9-0.4,0.9-1.1c0-0.7-0.2-1.1-0.9-1.1H49v2.2H49.5z"/>
			<path class="st0" d="M54.3,3.8h2.1L59,12h-2l-0.4-1.3H54L53.6,12h-2L54.3,3.8z M56.2,9.2L55.3,6l-0.9,3.2H56.2z"/>
			<path class="st0" d="M59.8,3.8h3.3c1.6,0,2.2,1.1,2.2,2.3c0,0.9-0.3,1.5-0.9,1.9c0.4,0.3,0.6,0.8,1,1.8L66,12h-2l-0.4-1.2
				c-0.4-1.4-0.7-2.2-1.3-2.2h-0.6V12h-2V3.8z M62.4,7.3c0.7,0,1-0.4,1-1.1s-0.4-1.1-1-1.1h-0.6v2.2L62.4,7.3L62.4,7.3z"/>
			<path class="st0" d="M72,14.3c-0.8-0.2-2.5-1.2-3.4-1.9c-1.5-1.2-2.2-2.7-2.2-4.5c0-2,0.9-4.2,3.2-4.2c2.2,0,3.3,2.1,3.3,4.2
				c0,1.5-0.5,2.7-1.5,3.5c0.7,0.5,1.3,0.8,1.9,1.1L72,14.3z M69.7,9.8c0.7,0,1.2-0.7,1.2-1.8c0-1.1-0.5-1.8-1.2-1.8
				c-0.7,0-1.2,0.7-1.2,1.8C68.5,9,69,9.8,69.7,9.8z"/>
			<path class="st0" d="M74,3.8h2V10h2.3V12H74V3.8z"/>
		</g>
	</g>
</g>
</svg>
