<?xml version="1.0" encoding="utf-8"?>
<!-- Generator: Adobe Illustrator 25.1.0, SVG Export Plug-In . SVG Version: 6.00 Build 0)  -->
<svg version="1.1" id="Layer_1" xmlns="http://www.w3.org/2000/svg" xmlns:xlink="http://www.w3.org/1999/xlink" x="0px" y="0px"
	 viewBox="0 0 1200 1200" style="enable-background:new 0 0 1200 1200;" xml:space="preserve">
<style type="text/css">
	.st0{fill:#3178C6;}
	.st1{fill-rule:evenodd;clip-rule:evenodd;fill:#FFFFFF;}
</style>
<path class="st0" d="M136.2,23.9h924.9c62,0,112.2,50.3,112.2,112.2v924.9c0,62-50.3,112.2-112.2,112.2H136.2
	c-62,0-112.2-50.3-112.2-112.2V136.2C23.9,74.2,74.2,23.9,136.2,23.9z"/>
<path class="st1" d="M735.4,938.5v112.4c18.3,9.4,39.9,16.4,64.8,21.1s51.2,7,78.9,7c26.9,0,52.5-2.6,76.8-7.7
	c24.2-5.1,45.5-13.6,63.8-25.5c18.3-11.8,32.7-27.3,43.4-46.4s16-42.7,16-70.8c0-20.4-3-38.2-9.1-53.6c-6.1-15.3-14.9-29-26.3-40.9
	c-11.5-11.9-25.2-22.7-41.3-32.1c-16-9.5-34.1-18.4-54.3-26.9c-14.8-6.1-28-12-39.7-17.7c-11.7-5.7-21.7-11.6-29.9-17.6
	c-8.2-6-14.5-12.3-19-19c-4.4-6.7-6.7-14.2-6.7-22.7c0-7.7,2-14.7,6-20.9c4-6.2,9.6-11.5,16.9-16c7.3-4.4,16.2-7.9,26.7-10.4
	c10.5-2.5,22.3-3.7,35.1-3.7c9.4,0,19.3,0.7,29.7,2.1c10.4,1.4,20.9,3.6,31.4,6.5c10.5,2.9,20.8,6.6,30.7,11.1
	c10,4.4,19.1,9.6,27.6,15.5v-105c-17.1-6.6-35.8-11.4-56-14.6c-20.3-3.2-43.5-4.7-69.7-4.7c-26.7,0-52,2.9-75.9,8.6
	c-23.9,5.7-44.9,14.7-63.1,26.9c-18.2,12.2-32.5,27.7-43,46.5c-10.5,18.8-15.8,41.4-15.8,67.6c0,33.5,9.7,62,29,85.7
	c19.3,23.6,48.7,43.7,88,60.1c15.5,6.3,29.9,12.5,43.2,18.6c13.3,6.1,24.9,12.4,34.6,19c9.7,6.6,17.4,13.7,23,21.4
	c5.6,7.7,8.4,16.5,8.4,26.3c0,7.3-1.8,14-5.3,20.2c-3.5,6.2-8.8,11.6-16,16.2c-7.1,4.6-16,8.1-26.7,10.7
	c-10.7,2.6-23.1,3.9-37.4,3.9c-24.4,0-48.5-4.3-72.4-12.8C777.9,968.5,755.8,955.6,735.4,938.5L735.4,938.5z M546.5,661.7h144.2
	v-92.2H288.8v92.2h143.5v410.6h114.2V661.7z"/>
</svg>
