<?xml version="1.0" encoding="utf-8"?>
<!-- Generator: Adobe Illustrator 24.3.0, SVG Export Plug-In . SVG Version: 6.00 Build 0)  -->
<svg version="1.1" id="typescript-logo" xmlns="http://www.w3.org/2000/svg" xmlns:xlink="http://www.w3.org/1999/xlink" x="0px" y="0px"
	 viewBox="0 0 500 134.2" style="enable-background:new 0 0 500 134.2;" xml:space="preserve">
<style type="text/css">
	.st0{fill:#007ACC;}
</style>
<g>
	<path class="st0" d="M71.6,19.8H47v76.4H36.9V19.8H12.4v-9h59.2V19.8z M118.1,35.2L90,106c-5,12.6-12,18.9-21,18.9
		c-2.6,0-4.7-0.3-6.3-0.8v-8.7c2.1,0.8,4.1,1.1,5.7,1.1c5,0,8.6-3,11.1-8.9L84.3,96L60.5,35.2h10.8l16.5,46.9
		c0.2,0.6,0.6,2.1,1.2,4.7h0.3c0.2-0.9,0.6-2.4,1.2-4.5l17.3-47.1H118.1z M134,87.3h-0.3v36.8H124v-89h9.8v10.7h0.3
		c4.8-8.1,11.9-12.2,21-12.2c7.8,0,14,2.7,18.3,8.1c4.4,5.4,6.6,12.8,6.6,21.9c0,10.2-2.6,18.3-7.5,24.5s-11.7,9.2-20.3,9.2
		C144.5,97.7,138.4,94.2,134,87.3z M133.9,62.8v8.6c0,5.1,1.7,9.3,5,12.8c3.3,3.5,7.4,5.3,12.5,5.3c5.9,0,10.5-2.3,14-6.8
		c3.3-4.5,5-10.8,5-18.9c0-6.8-1.5-12.2-4.7-15.9c-3.2-3.9-7.4-5.7-12.8-5.7c-5.7,0-10.2,2-13.7,5.9
		C135.5,51.8,133.9,56.8,133.9,62.8z M239.9,68.1h-43c0.2,6.8,2,12,5.4,15.8c3.5,3.8,8.3,5.6,14.4,5.6c6.9,0,13.2-2.3,18.9-6.8v9.2
		c-5.4,3.9-12.5,5.9-21.2,5.9c-8.6,0-15.3-2.7-20.3-8.3c-5-5.6-7.4-13.4-7.4-23.3c0-9.5,2.7-17.3,8.1-23.1c5.4-6,12-9,20-9
		s14.1,2.6,18.5,7.8c4.4,5.1,6.6,12.3,6.6,21.5L239.9,68.1z M229.8,59.8c0-5.7-1.4-10.1-4.1-13.2c-2.7-3.2-6.5-4.7-11.1-4.7
		c-4.7,0-8.6,1.7-11.7,5c-3.2,3.3-5.3,7.7-6,12.9H229.8z M244.7,93.2v-6.8c6.2,3.9,12.3,5.9,18.6,5.9c6.6,0,11.7-1.4,15.2-4.2
		c3.5-2.9,5.1-6.6,5.1-11.6c0-4.4-1.2-7.8-3.5-10.5c-2.3-2.6-7.4-6.2-15-10.7c-8.7-5.1-14.1-9.3-16.4-12.6
		c-2.3-3.5-3.5-7.4-3.5-11.7c0-6,2.4-11.1,7.1-15.3c4.7-4.2,11-6.3,18.8-6.3c5.1,0,10.2,0.9,15.2,2.6V18c-5-2.3-10.4-3.5-16.1-3.5
		c-5.9,0-10.4,1.5-13.8,4.4c-3.5,3-5.1,6.6-5.1,11.1c0,4.4,1.2,7.8,3.5,10.4s7.4,6.2,15,10.5c8,4.5,13.2,8.6,15.9,12
		c2.7,3.5,3.9,7.5,3.9,12.2c0,6.6-2.3,11.9-6.8,16.1c-4.5,4.2-11,6.2-19.2,6.2c-3,0-6.3-0.5-10.2-1.4
		C249.5,95.1,246.6,94.4,244.7,93.2z M340.4,93.5c-4.5,2.7-9.9,4.2-16.2,4.2c-8.3,0-15-2.9-20.1-8.6c-5.1-5.7-7.7-13.1-7.7-22.4
		c0-9.6,2.9-17.6,8.6-23.8c5.7-6.2,13.1-9.3,22.1-9.3c4.7,0,9.2,0.9,13.5,2.9v6.2c-4.4-2.7-9.2-4.1-14.3-4.1
		c-7.2,0-12.9,2.6-17.4,7.7c-4.5,5.1-6.6,11.9-6.6,20c0,8,2.1,14.3,6.2,19.1c4.1,4.8,9.5,7.2,16.1,7.2c6.2,0,11.4-1.7,15.9-4.8V93.5
		z M376.8,40.9c-1.8-1.4-3.9-2-6.5-2c-4.8,0-8.9,2.6-12,7.5c-3.3,5-4.8,12-4.8,21.2v28.7h-5.4V35.2h5.4v13.5h0.3
		c1.4-4.7,3.6-8.3,6.6-10.8c3-2.6,6.5-3.9,10.5-3.9c2.3,0,4.4,0.3,6,1.1v5.9H376.8z M385.5,19.8c-1.2,0-2.3-0.5-3.2-1.4
		c-0.9-0.9-1.4-2-1.4-3.3s0.5-2.4,1.4-3.2c0.9-0.8,2-1.2,3.2-1.2c1.2,0,2.3,0.5,3.3,1.2c0.9,0.8,1.4,1.8,1.4,3.2
		c0,1.2-0.5,2.4-1.4,3.3C387.8,19.4,386.7,19.8,385.5,19.8z M382.8,96.2v-61h5.4v61H382.8z M407,85.4h-0.3v38.9h-5.4V35.2h5.4v12.6
		h0.3c2.3-4.5,5.3-8,9.3-10.4c4.1-2.4,8.6-3.6,13.4-3.6c7.8,0,13.8,2.7,18.2,8c4.4,5.4,6.5,12.6,6.5,21.8c0,10.2-2.6,18.5-7.5,24.8
		c-5,6.3-11.6,9.5-19.7,9.5C418.1,97.7,411.4,93.6,407,85.4z M406.7,62.7v7.7c0,6.2,2,11.4,5.7,15.8c3.9,4.4,8.9,6.6,15.2,6.6
		c6.2,0,11.3-2.7,15.2-8c3.9-5.4,5.9-12.3,5.9-21c0-7.7-1.8-13.7-5.4-18.2c-3.6-4.5-8.3-6.8-14.3-6.8c-7.1,0-12.6,2.4-16.5,7.2
		C408.5,50.8,406.7,56.2,406.7,62.7z M487.6,95.3c-2.9,1.4-5.6,2-8,2c-9,0-13.5-5.4-13.5-16.2V40.3h-11v-5h11V19.4l2.7-0.9l2.7-0.9
		v17.7h16.1v5h-16.1v40.3c0,4.2,0.6,7.2,2,9.2c1.4,2,3.6,2.9,6.8,2.9c2.3,0,4.7-0.8,7.4-2.3V95.3z"/>
</g>
</svg>
