<?xml version="1.0" encoding="utf-8"?>
<!-- Generator: Adobe Illustrator 24.3.0, SVG Export Plug-In . SVG Version: 6.00 Build 0)  -->
<svg version="1.1" id="xquery-logo" xmlns="http://www.w3.org/2000/svg" xmlns:xlink="http://www.w3.org/1999/xlink" x="0px" y="0px"
	 viewBox="0 0 872 766" style="enable-background:new 0 0 872 766;" xml:space="preserve">
<style type="text/css">
	.st0{fill:#02B883;}
</style>
<path class="st0" d="M614.9,262.5c0-0.7-0.2-1.4-0.4-2.1c-0.1-0.3-0.2-0.5-0.3-0.8c-0.4-0.9-0.9-1.7-1.6-2.3l-112-112
	c-0.7-0.7-1.5-1.2-2.3-1.6c-0.2-0.1-0.5-0.2-0.7-0.3c-0.7-0.2-1.4-0.4-2.1-0.4c-0.1,0-0.3-0.1-0.5-0.1H297c-4.4,0-8,3.6-8,8v49h-40
	c-4.4,0-8,3.6-8,8v87H128.6c-9.6,0-17.3,7.8-17.3,17.3v120.6c0,9.6,7.8,17.3,17.3,17.3l112.4-0.3V615c0,4.4,3.6,8,8,8h263.3
	c4.4,0,8-3.6,8-8v-40H607c4.4,0,8-3.6,8-8V263C615,262.8,614.9,262.7,614.9,262.5L614.9,262.5z M503,170.3l84.7,84.7H503L503,170.3z
	 M257,216h32v79h-32h-0.1h0.1V216z M128.6,434.2c-0.7,0-1.3-0.6-1.3-1.3V312.3c0-0.7,0.6-1.3,1.3-1.3h180.2H470
	c0.7,0,1.3,0.6,1.3,1.3v120.6c0,0.7-0.6,1.3-1.3,1.3H311.5H128.6z M504.3,607H257V449.9h32V567c0,4.4,3.6,8,8,8h207.3V607z M599,559
	H305V449.9l165,0.3c9.6,0,17.3-7.8,17.3-17.3V312.3c0-9.6-7.8-17.3-17.3-17.3l-165-1V158l182,1v104c0,4.4,3.6,8,8,8h104V559z"/>
<path class="st0" d="M375.3,237.9c-0.3,0-0.7-0.1-1-0.2l-48.4-22.5c-0.8-0.4-1.4-1.2-1.4-2.2v-8.7c0-0.9,0.5-1.8,1.4-2.2l48.4-22.5
	c0.7-0.3,1.6-0.3,2.3,0.2c0.7,0.4,1.1,1.2,1.1,2v10.7c0,1-0.6,1.8-1.4,2.2l-31.8,13.9l31.8,13.9c0.9,0.4,1.4,1.2,1.4,2.2v10.7
	c0,0.8-0.4,1.6-1.1,2C376.2,237.8,375.8,237.9,375.3,237.9L375.3,237.9z"/>
<path class="st0" d="M177.2,402.8l-5.9-11.9c-2.4-4.6-4-8-5.8-11.8h-0.2c-1.4,3.8-3,7.2-5.1,11.8l-5.5,11.9h-17l19-33.2l-18.3-32.4
	h17.1l5.7,12c1.9,4,3.4,7.2,5,10.9h0.2c1.6-4.2,2.8-7.1,4.5-10.9l5.6-12h17L175,369.3l19.5,33.6h-17.3V402.8z"/>
<path class="st0" d="M254.8,414.1c-9.4-2.7-17.1-5.6-25.9-9.3c-1.5-0.6-3-0.9-4.6-1c-14.8-1-28.6-11.9-28.6-33.3
	c0-19.7,12.5-34.5,32.1-34.5c20.1,0,31.1,15.2,31.1,33.1c0,14.9-6.9,25.4-15.6,29.3v0.4c5.1,1.5,10.7,2.6,15.9,3.7L254.8,414.1z
	 M243.1,369.7c0-12-5.7-21.9-15.8-21.9s-16,9.9-16,22.2c-0.1,12.5,5.9,22,15.9,22C237.3,392,243.1,382.6,243.1,369.7L243.1,369.7z"
	/>
<path class="st0" d="M313.5,387.5c0,6.2,0.2,11.3,0.4,15.3H301l-0.7-6.7H300c-1.9,2.9-6.3,7.8-14.9,7.8c-9.6,0-16.8-6-16.8-20.8v-28
	h14.9v25.6c0,6.9,2.2,11.1,7.4,11.1c4.1,0,6.4-2.8,7.4-5.2c0.4-0.9,0.5-2,0.5-3.2V355h14.9v32.5L313.5,387.5z"/>
<path class="st0" d="M336.8,383.7c0.5,6.1,6.5,9.1,13.4,9.1c5.1,0,9.2-0.7,13.2-1.9l1.9,10c-4.9,1.9-10.8,2.9-17.2,2.9
	c-16.2,0-25.4-9.4-25.4-24.3c0-12.1,7.5-25.4,24.1-25.4c15.4,0,21.2,12,21.2,23.8c0,2.5-0.3,4.8-0.5,5.8H336.8z M354.2,373.5
	c0-3.6-1.6-9.6-8.4-9.6c-6.2,0-8.8,5.7-9.2,9.6H354.2z"/>
<path class="st0" d="M376.8,370.8c0-7-0.2-11.6-0.4-15.7h12.8l0.5,8.8h0.4c2.4-6.9,8.3-9.8,12.9-9.8c1.4,0,2,0,3.1,0.2v13.9
	c-1.1-0.2-2.3-0.4-4-0.4c-5.5,0-9.2,2.9-10.1,7.5c-0.2,1-0.3,2.1-0.3,3.3v24.2h-14.8v-32H376.8z"/>
<path class="st0" d="M426.7,355.1l7.1,23.4c0.8,2.8,1.8,6.3,2.3,8.9h0.3c0.7-2.5,1.5-6.1,2.1-8.9l5.8-23.4h15.9l-11.1,31.4
	c-6.8,18.9-11.4,26.5-16.8,31.3c-5.2,4.5-10.6,6-14.3,6.5l-3.1-12.6c1.9-0.3,4.2-1.2,6.4-2.5c2.2-1.2,4.7-3.5,6.1-5.9
	c0.5-0.7,0.8-1.5,0.8-2.1c0-0.5-0.1-1.3-0.7-2.4l-17.4-43.6L426.7,355.1L426.7,355.1z"/>
<path class="st0" d="M525,538.2c-0.5,0-0.9-0.1-1.3-0.4c-0.7-0.4-1.1-1.2-1.1-2v-10.7c0-1,0.6-1.8,1.5-2.2l32.5-13.9L524,495
	c-0.9-0.4-1.5-1.2-1.5-2.2v-10.7c0-0.8,0.4-1.6,1.1-2s1.6-0.5,2.3-0.2l48.4,22.2c0.9,0.4,1.4,1.2,1.4,2.2v9.3c0,0.9-0.5,1.8-1.4,2.2
	L526,538C525.6,538.1,525.3,538.2,525,538.2L525,538.2z"/>
</svg>
