<?xml version="1.0" encoding="utf-8"?>
<!-- Generator: Adobe Illustrator 24.3.0, SVG Export Plug-In . SVG Version: 6.00 Build 0)  -->
<svg version="1.1" id="xslt-logo" xmlns="http://www.w3.org/2000/svg" xmlns:xlink="http://www.w3.org/1999/xlink" x="0px" y="0px"
	 viewBox="0 0 872 766" style="enable-background:new 0 0 872 766;" xml:space="preserve">
<style type="text/css">
	.st0{fill:#DA9E02;}
</style>
<path class="st0" d="M609.9,262.5c0-0.7-0.2-1.4-0.4-2.1c-0.1-0.3-0.2-0.5-0.3-0.8c-0.4-0.9-0.9-1.7-1.6-2.3l-112-112
	c-0.7-0.7-1.5-1.2-2.3-1.6c-0.2-0.1-0.5-0.2-0.7-0.3c-0.7-0.2-1.4-0.4-2.1-0.4c-0.1,0-0.3-0.1-0.5-0.1H292c-4.4,0-8,3.6-8,8v115
	H170.4c-9.6,0-17.3,7.8-17.3,17.3v107.6c0,9.6,7.8,17.3,17.3,17.3l101.4-0.3H284V567c0,4.4,3.6,8,8,8h235.7H602c4.4,0,8-3.6,8-8V263
	C610,262.8,609.9,262.7,609.9,262.5z M498,170.3l84.7,84.7H498V170.3z M170.4,392.2c-0.7,0-1.3-0.6-1.3-1.3V283.3
	c0-0.7,0.6-1.3,1.3-1.3l133.4,1h103.4c0.7,0,1.3,0.6,1.3,1.3v106.6c0,0.7-0.6,1.3-1.3,1.3H306.5L170.4,392.2L170.4,392.2z M594,559
	H300V407.9l107.2,0.3c9.6,0,17.3-7.8,17.3-17.3V284.3c0-9.6-7.8-17.3-17.3-17.3l-101.4-1H300V158l182,1v104c0,4.4,3.6,8,8,8h104V559
	z"/>
<g>
	<path class="st0" d="M370.3,237.9c-0.3,0-0.7-0.1-1-0.2l-48.4-22.5c-0.8-0.4-1.4-1.2-1.4-2.2v-8.7c0-0.9,0.5-1.8,1.4-2.2l48.4-22.5
		c0.7-0.3,1.6-0.3,2.3,0.2c0.7,0.4,1.1,1.2,1.1,2v10.7c0,1-0.6,1.8-1.4,2.2l-31.8,13.9l31.8,13.9c0.9,0.4,1.4,1.2,1.4,2.2v10.7
		c0,0.8-0.4,1.6-1.1,2C371.2,237.8,370.8,237.9,370.3,237.9z"/>
</g>
<g>
	<path class="st0" d="M520,538.2c-0.5,0-0.9-0.1-1.3-0.4c-0.7-0.4-1.1-1.2-1.1-2v-10.7c0-1,0.6-1.8,1.5-2.2l32.5-13.9L519,495
		c-0.9-0.4-1.5-1.2-1.5-2.2v-10.7c0-0.8,0.4-1.6,1.1-2c0.7-0.4,1.6-0.5,2.3-0.2l48.4,22.2c0.9,0.4,1.4,1.2,1.4,2.2v9.3
		c0,0.9-0.5,1.8-1.4,2.2L521,538C520.6,538.1,520.3,538.2,520,538.2z M568.3,513.6L568.3,513.6L568.3,513.6z"/>
</g>
<g>
	<path class="st0" d="M227.4,372.5l-5.9-11.8c-2.4-4.6-4-8-5.8-11.7h-0.2c-1.4,3.8-3,7.2-5,11.7l-5.4,11.8h-16.9l18.9-33.1
		l-18.2-32.3h17l5.7,11.9c1.9,4,3.4,7.2,4.9,10.9h0.2c1.6-4.2,2.8-7.1,4.5-10.9l5.5-11.9h16.9L225.1,339l19.4,33.5H227.4z"/>
	<path class="st0" d="M252.9,357.2c4,2,10.1,4.1,16.4,4.1c6.8,0,10.4-2.8,10.4-7.1c0-4.1-3.1-6.4-11-9.2
		c-10.9-3.8-17.9-9.8-17.9-19.3c0-11.2,9.3-19.7,24.7-19.7c7.4,0,12.8,1.6,16.7,3.3l-3.3,11.9c-2.6-1.3-7.3-3.1-13.7-3.1
		c-6.4,0-9.5,2.9-9.5,6.3c0,4.2,3.7,6,12.1,9.2c11.5,4.3,17,10.3,17,19.5c0,11-8.4,20.3-26.4,20.3c-7.5,0-14.8-1.9-18.5-4
		L252.9,357.2z"/>
	<path class="st0" d="M304.8,307.1h14.8v53h26v12.4h-40.8V307.1z"/>
	<path class="st0" d="M356.9,319.5h-17.6v-12.4h50.2v12.4h-17.8v53h-14.8L356.9,319.5L356.9,319.5z"/>
</g>
</svg>
