<?xml version="1.0" encoding="utf-8"?>
<!-- Generator: Adobe Illustrator 25.1.0, SVG Export Plug-In . SVG Version: 6.00 Build 0)  -->
<svg version="1.1" id="Layer_1" xmlns:v="https://vecta.io/nano"
	 xmlns="http://www.w3.org/2000/svg" xmlns:xlink="http://www.w3.org/1999/xlink" x="0px" y="0px" viewBox="0 0 2100 2100"
	 style="enable-background:new 0 0 2100 2100;" xml:space="preserve">
<style type="text/css">
	.st0{fill:#FF0000;}
	.st1{fill:#FFFFFF;}
</style>
<path class="st0" d="M2003.1,839.7c-23.3-86.1-90.6-153.4-176.7-176.7c-154.9-42.2-778.3-42.2-778.3-42.2s-623.4,1.3-778.3,43.5
	C183.7,687.6,116.5,754.9,93.2,841c-46.9,275.2-65,694.6,1.3,958.8c23.3,86.1,90.6,153.4,176.7,176.7
	c154.9,42.2,778.3,42.2,778.3,42.2s623.4,0,778.3-42.2c86.1-23.3,153.4-90.6,176.7-176.7C2053.8,1524.2,2069.1,1105,2003.1,839.7z"
	/>
<path class="st1" d="M822.3,1627.5l531.3-307.8L822.3,1012V1627.5z"/>
</svg>
