<?xml version="1.0" encoding="utf-8"?>
<!-- Generator: Adobe Illustrator 25.1.0, SVG Export Plug-In . SVG Version: 6.00 Build 0)  -->
<svg version="1.1" id="Layer_2_1_" xmlns="http://www.w3.org/2000/svg" xmlns:xlink="http://www.w3.org/1999/xlink" x="0px" y="0px"
	 viewBox="0 0 1200 1200" style="enable-background:new 0 0 1200 1200;" xml:space="preserve">
<style type="text/css">
	.st0{fill:#6E49B4;}
</style>
<g>
	<path class="st0" d="M1058.7,431.6h-28.4V294.7c0-0.9-0.2-1.7-0.2-2.6c0-5.4-1.7-10.8-5.6-15.1L796.9,17c0,0-0.2,0-0.2-0.2
		c-1.3-1.5-3-2.8-4.5-3.9c-0.4-0.4-1.1-0.6-1.5-0.9c-1.5-0.9-3-1.5-4.5-1.9c-0.4-0.2-0.9-0.2-1.3-0.4c-1.7-0.4-3.4-0.6-5.4-0.6
		H219.6c-25.6,0-46.3,20.7-46.3,46.3v376.2h-28.4c-36.6,0-66.2,29.7-66.2,66.2v344.4c0,36.6,29.7,66.2,66.2,66.2h28.4V1144
		c0,25.6,20.7,46.3,46.3,46.3h764.6c25.6,0,46.3-20.7,46.3-46.3V908.5h28.4c36.6,0,66.2-29.7,66.2-66.2V497.9
		C1124.9,461.3,1095.4,431.6,1058.7,431.6z M513.1,92h24.1c4.5,0,8.2-3.7,8.2-8.2s-3.7-8.2-8.2-8.2h-24.1v-20h243.1v237
		c0,12.7,10.3,23.3,23.3,23.3h204.7V432H513.1v-23.5h24.1c4.5,0,8.2-3.7,8.2-8.2s-3.7-8.2-8.2-8.2h-24.1V362h24.1
		c4.5,0,8.2-3.7,8.2-8.2s-3.7-8.2-8.2-8.2h-24.1v-25l0,0H553c13.6,0,24.8-11.2,24.8-24.8L553,139.6c0-13.6-11.2-24.8-24.8-24.8
		h-15.1l0,0V92z M707.7,490.8v345.9h-78.4V490.8H707.7z M326.3,555.5v-64.6h251v45.3l-161.2,234v1.9h163.8v64.6H311v-42l164.9-237
		v-2.2H326.3z M517.2,151.4l20.9,131.4H459l22.8-131.4H517.2z M219.6,55.3h267.6v20.3h-24.1c-4.5,0-8.2,3.7-8.2,8.2s3.7,8.2,8.2,8.2
		h24.1v22.4H487h-15.9c-13.6,0-24.8,11.2-24.8,24.8l-27.4,156.2c0,13.6,11.2,24.8,24.8,24.8h43.5v25l0,0h-24.1
		c-4.5,0-8.2,3.7-8.2,8.2s3.7,8.2,8.2,8.2h24.1l0,0v30.4h-24.1c-4.5,0-8.2,3.7-8.2,8.2s3.7,8.2,8.2,8.2h24.1V432H219.6V55.3z
		 M219.6,1131.7V908.5h267.6v37.1h-24.1c-4.5,0-8.2,3.7-8.2,8.2s3.7,8.2,8.2,8.2h24.1v30.8h-24.1c-4.5,0-8.2,3.7-8.2,8.2
		s3.7,8.2,8.2,8.2h24.1v30.2h-24.1c-4.5,0-8.2,3.7-8.2,8.2s3.7,8.2,8.2,8.2h24.1v30.2h-24.1c-4.5,0-8.2,3.7-8.2,8.2s3.7,8.2,8.2,8.2
		h24.1v29.5H219.6z M513.1,1131.7L513.1,1131.7v-29.3h24.1c4.5,0,8.2-3.7,8.2-8.2s-3.7-8.2-8.2-8.2h-24.1v-30.2h24.1
		c4.5,0,8.2-3.7,8.2-8.2s-3.7-8.2-8.2-8.2h-24.1v-30.2h24.1c4.5,0,8.2-3.7,8.2-8.2s-3.7-8.2-8.2-8.2h-24.1v-30.8h24.1
		c4.5,0,8.2-3.7,8.2-8.2s-3.7-8.2-8.2-8.2h-24.1v-37.1h470.8v223H513.1z M992.1,678.3c-26.7,25.2-66.2,36.4-112.5,36.4
		c-10.3,0-19.4-0.4-26.7-1.5v123.7h-77.6V495.6c24.1-4.1,58-7.1,105.8-7.1c48.3,0,82.5,9.3,105.8,27.8c22,17.5,36.8,46.1,36.8,80.2
		C1023.8,630,1012.6,658.7,992.1,678.3z"/>
	<path class="st0" d="M885.2,547.3c-15.9,0-26.7,1.5-32.3,3v102.1c6.7,1.5,14.9,2.2,26.3,2.2c41.6,0,67.2-21.1,67.2-56.5
		C946.4,566.5,924.3,547.3,885.2,547.3z"/>
</g>
</svg>
